<?xml version="1.0"?>
<svg xmlns="http://www.w3.org/2000/svg" viewBox="0 0 30 30" width="20px" height="20px">
    <path style="line-height:normal;text-indent:0;text-align:start;text-decoration-line:none;text-decoration-style:solid;text-decoration-color:#000;text-transform:none;block-progression:tb;isolation:auto;mix-blend-mode:normal" d="M 5 4 C 3.895 4 3 4.895 3 6 L 3 20 C 3 21.105 3.895 22 5 22 L 25 22 C 26.105 22 27 21.105 27 20 L 27 6 C 27 4.895 26.105 4 25 4 L 5 4 z M 5 6 L 25 6 L 25 18 L 5 18 L 5 6 z M 15 19 C 15.552 19 16 19.448 16 20 C 16 20.552 15.552 21 15 21 C 14.448 21 14 20.552 14 20 C 14 19.448 14.448 19 15 19 z M 10 24 A 1.0001 1.0001 0 1 0 10 26 L 20 26 A 1.0001 1.0001 0 1 0 20 24 L 10 24 z" font-weight="400" font-family="sans-serif" white-space="normal" overflow="visible"/>
</svg>
