<svg class="c-culogo" viewbox="0 0 351 90"xmlns="http://www.w3.org/2000/svg"><title>Carleton University logo</title><g fill="none"><g fill="#fff"><path d="M65.348 61.022c.205-.54.399-1.086.578-1.637 1.45-4.3 2.17-8.873 2.13-13.667 0 0-.025-29.332-.124-39.652-.87-.25-1.744-.483-2.622-.7a49.886 49.886 0 0 0-2.665-.63C54.18 2.879 44.36 1.872 36.084 1.628l.02.04a51.55 51.55 0 0 0-2.588.02l.053-.107C24.15 1.536 12.716 3.118 3.563 5.55c-.835.193-1.475.368-1.864.516-.02 2.115-.038 5.034-.053 8.33-.07 14.385-.071 31.322-.071 31.322-.055 6.593 1.31 12.77 4.073 18.38.21.433.43.863.66 1.29.065.122.121.246.188.368l.003-.013c.316.575.646 1.148.998 1.714h-.001l.018.028a39.392 39.392 0 0 0 1.966 2.87c.37.481.745.951 1.124 1.41.28.342.568.672.856 1.004.09.103.177.21.266.311 5.318 6.026 11.725 10.45 18.803 13.59.269.132.532.264.803.395.02.01.244.086.567.195.638.263 1.433.496 2.149.72l.766.256c.855-.312 2.053-.617 2.933-.983l.57-.19c.546-.255 1.078-.51 1.604-.766a56.668 56.668 0 0 0 9.33-5.408l.155-.112c.246-.178.492-.355.737-.538 3.744-2.76 6.964-5.926 10.007-9.884 2.248-2.992 3.924-6.011 5.148-9.202z"/><path d="M34.836 89.908l-1.647-.542c-.62-.193-1.263-.392-1.838-.626-.573-.193-.61-.208-.712-.259l-.799-.392c-7.582-3.363-14.09-8.069-19.291-13.963l-.274-.32c-.32-.37-.605-.697-.882-1.034-.391-.474-.777-.957-1.158-1.453-.37-.491-.729-.991-1.076-1.499l-.062.264-1.978-3.563c-.047-.085-.09-.173-.133-.26l-.062-.121c-.239-.446-.47-.896-.69-1.351C1.37 58.978-.056 52.553.002 45.703c0-.156.001-17.092.071-31.315.015-3.3.032-6.222.053-8.338l.01-1.081 1.008-.381c.45-.17 1.126-.36 2.065-.577C12.505 1.541 24.013 0 33.193 0l2.918.013-.018.035h.037c9.195.273 18.983 1.419 26.852 3.146 1.016.214 1.942.433 2.736.646a76.24 76.24 0 0 1 2.65.707l1.127.326.011 1.176c.098 10.21.123 39.373.124 39.665.04 4.928-.705 9.702-2.213 14.176a37.632 37.632 0 0 1-.598 1.694l-.06.157c-1.286 3.352-3.04 6.488-5.352 9.564-3.137 4.08-6.417 7.32-10.333 10.207-.21.157-.433.318-.655.479l-.265.19a58.471 58.471 0 0 1-9.574 5.55c-.505.246-1.045.503-1.598.761l-.164.066-.52.175c-.57.232-1.207.43-1.822.62-.4.124-.79.244-1.123.366zm-2.887-4.3c.087.032.247.085.45.153l.098.037c.456.19 1.049.373 1.62.55l.69.22c.236-.076.485-.153.738-.232.567-.176 1.154-.358 1.601-.543l.589-.201c.501-.235 1.001-.474 1.5-.716a55.414 55.414 0 0 0 9.1-5.272l.244-.176c.209-.15.416-.3.622-.455 3.683-2.714 6.763-5.757 9.704-9.583 2.123-2.826 3.738-5.71 4.926-8.805l1.5.482-1.47-.56c.213-.565.398-1.086.57-1.614 1.4-4.156 2.09-8.58 2.052-13.164 0-.294-.025-27.366-.114-38.461a103.2 103.2 0 0 0-1.44-.373 48.249 48.249 0 0 0-2.606-.615c-7.358-1.615-16.428-2.71-25.08-3.036h-1.164c-.31-.006-.62-.009-.93-.009l-.325.002c-.401.004-.825.014-1.259.027l-2.634.082.08-.161c-8.522.22-18.672 1.667-27.045 3.891-.274.063-.507.12-.705.171-.017 1.967-.03 4.432-.043 7.156-.069 14.217-.07 31.144-.07 31.314-.052 6.364 1.263 12.308 3.91 17.68.203.42.415.833.635 1.243.025.046.05.094.074.143l.11.197c.336.612.649 1.15.955 1.642l.056.093c.578.923 1.195 1.82 1.848 2.69.348.452.712.908 1.08 1.354.261.316.528.623.794.93l.296.347c4.898 5.549 11.042 9.987 18.26 13.19z"/></g><g fill="#fff"><path d="M34.814 88.236l3.503-1.174c9.565-4.455 16.015-9.138 21.832-16.706 5.511-7.332 7.63-14.819 7.906-24.638 0-.001-.131-31.714-.189-39.442C64.475 4.329 44.075 1.577 34.81 1.66"/><path d="M35.311 89.734l-.996-2.996 3.419-1.146c9.653-4.506 15.79-9.204 21.169-16.2 5.029-6.692 7.299-13.79 7.58-23.72-.002-.249-.122-29.232-.182-38.365-4.609-1.631-22.409-4.173-31.477-4.068L34.796.081c9.298-.084 30.055 2.645 33.852 4.823l.786.451.007.908c.056 7.453.189 39.312.189 39.454-.302 10.681-2.76 18.321-8.224 25.59-5.737 7.463-12.231 12.439-22.426 17.187l-.164.065z"/></g><g fill="#fff"><path d="M34.81 1.66c-9.918.09-29.901 3.194-33.111 4.406-.123 15.086-.124 39.65-.124 39.65.238 9.377 2.4 17.317 7.905 24.64 5.822 7.578 12.76 12.34 21.852 16.708.083.04 3.482 1.172 3.482 1.172"/><path d="M34.318 89.735c-3.49-1.164-3.551-1.192-3.66-1.244C20.4 83.563 13.696 78.429 8.234 71.32 2.877 64.193.264 56.074.002 45.756c0-.286.002-24.785.123-39.705l.009-1.084 1.01-.38C4.824 3.2 25.02.168 34.796.08l.028 3.158c-8.872.08-26.497 2.707-31.562 4.004-.112 14.98-.114 38.235-.114 38.474.247 9.718 2.588 17.036 7.587 23.687 5.188 6.753 11.34 11.455 21.208 16.203.369.13 2.22.748 3.366 1.13z"/></g><path d="M56.808 45.993l-.837-.274-.182-.878-1.438-.563c-3.914-1.366-7.927-2.467-12.07-2.864-2.669-.256-5.37-.055-7.421 1.27-2.044-1.326-4.744-1.526-7.413-1.27-4.145.397-8.163 1.497-12.083 2.864l-1.439.563-.185.878-.839.274-4.687 19.653c2.643-.488 8.09-1.281 11.108-1.595 3.754-.421 6.952-.58 11.19-.437-.018.17-.068.313.038.483.491.472 1.48.427 2.271.498.822.032 1.187.045 1.996.051.807.006 1.176-.019 1.995-.051.79-.071 1.782-.026 2.275-.498.105-.17.057-.313.038-.483 4.24-.143 7.44.016 11.19.437 3.016.314 8.459 1.107 11.103 1.595zM34.294 60.786c-2.183-1.174-4.906-1.35-7.559-1.2-5.666.366-10.76 1.616-16.095 3.44l4.082-17.777c4.096-1.565 8.402-2.808 12.854-3.185 2.916-.18 5.425.19 6.869 1.23zm8.624-1.199c-2.65-.15-5.375.025-7.562 1.2l-.08-17.49c1.446-1.041 3.959-1.41 6.873-1.231 4.452.378 8.751 1.62 12.843 3.184L59 63.028c-5.326-1.826-10.415-3.076-16.081-3.44z" fill="#282828"/><path d="M36.084 1.627l4.652 9.388.013.031c.019.04.08.167.247.458.155-.06.306-.12.456-.183.21-.118 7.793-4.449 7.793-4.449l-3.688 18.183 7.523-7.945 3.165 6.042c.104-.016.825-.138.825-.138l-.41.069 9.247-2.552-2.94 10.416s-.04.07-.056.089l.007.003-.038.12.028-.041s-.242.735-.352 1.063c-.044.135-.146.466-.174.55l4.735 2.452-9.837 8.752.107.51.81.267 4.932 21.046c3.349-6.04 4.984-12.794 4.925-20.042 0 0-.025-29.331-.123-39.652-9.418-2.717-21.777-4.14-31.847-4.437m-1.27 86.61c.871-.318 2.107-.63 2.992-1.006 8.633-3.601 16.324-9.04 22.343-16.875a40.259 40.259 0 0 0 1.983-2.898l-1.014-.187c-2.72-.502-8.156-1.284-10.988-1.58a75.53 75.53 0 0 0-1.099-.115c-.302-.03-.603-.06-.898-.087h-.012a68.004 68.004 0 0 0-7.842-.253l-.057.055c-.837.803-2.001.87-2.852.92l-.473.032-.481.02-1.613.035-2.047-.052-.494-.034c-.85-.05-2.015-.118-2.852-.923l-.054-.053a70.548 70.548 0 0 0-6.217.125l-.02.003c-.188.012-.374.024-.562.04l-.037.002-.55.044a1.82 1.82 0 0 0-.088.008c-.169.015-.337.028-.508.044l-.165.016-.446.042-.288.028-.338.036c-.212.022-.427.047-.646.069-2.825.295-8.263 1.078-10.979 1.579l-1.016.185c.618.995 1.28 1.962 1.984 2.899 6.02 7.833 13.71 13.273 22.342 16.875.885.376 2.122.687 2.992 1.005M1.699 6.066c-.1 10.32-.124 39.65-.124 39.65-.06 7.249 1.575 14.001 4.92 20.04l5.02-21.047.813-.265.094-.443-9.91-8.818 4.734-2.451-.196-.623-.266-.806a4238.67 4238.67 0 0 1-3.06-10.773l9.246 2.552-.4-.066c.08.014.717.119.817.137l3.165-6.044 7.52 7.943-3.688-18.179 7.796 4.448c.15.062.3.123.455.183a6.69 6.69 0 0 0 .244-.451l4.15-8.377.542-1.096C23.499 1.533 11.126 3.344 1.699 6.066z" fill="#222"/><path d="M9.312 33.06c-.034.493-.494 1.052-.759 1.249l-2.538 1.314 8.228 7.32.551-.215.03-.01c4.736-1.652 8.698-2.588 12.467-2.948 3.1-.297 5.587.044 7.57 1.028 1.989-.984 4.477-1.325 7.577-1.028 3.768.36 7.725 1.297 12.454 2.948l.03.01.49.193 8.201-7.298-2.538-1.314c-.262-.197-.723-.756-.756-1.249-.01-.147-.027-.131-.041-.088l.007-.041c.048-.292 0-.231.264-1.019-.021.02.484-1.5.497-1.512l1.974-6.994-5.83 1.608c-.32.02-.614.132-.928.177-.548.078-.986.152-1.314-.21l-2.34-4.466-6.656 7.028-.528.526c-1.12.854-2.703-.066-2.01-2.496l2.998-14.78-4.084 2.331c-.55.23-1.024.42-1.78.657-.25.079-.5-.083-.668-.242-.29-.476-.78-1.293-.949-1.663l-4.115-8.31-4.12 8.31c-.166.371-.656 1.186-.947 1.663-.167.158-.418.32-.668.242a18.665 18.665 0 0 1-1.78-.657l-4.085-2.331 2.998 14.78c.691 2.43-.89 3.35-2.01 2.496l-.527-.526-6.655-7.028-2.34 4.466c-.33.362-.77.288-1.314.21-.314-.045-.608-.157-.927-.177L6.61 23.406 8.584 30.4c.013.013.52 1.533.496 1.512.263.788.216.727.263 1.019a.416.416 0 0 0 .006.033c-.012-.037-.029-.041-.037.096z" fill="#bf112b"/><g fill="#282828"><path d="M32.05 47.638c-2.328-.991-5.03-.686-7.49-.259-2.906.506-4.256.873-7.456 1.948l.18-.8s4.03-1.575 9.473-2.214c0 0 3.128-.396 5.293.566v.759zm0 3.536c-2.328-.99-5.03-.686-7.49-.258-2.906.506-4.988.827-8.283 1.928l.18-.8s4.858-1.556 10.3-2.195c0 0 3.13-.396 5.294.566zm0 3.583c-2.328-.99-5.03-.686-7.49-.258-2.906.504-5.857 1.285-9.195 2.406l.18-.8s5.77-2.034 11.212-2.673c0 0 3.13-.397 5.294.565zm5.446-7.12c2.328-.99 5.03-.685 7.49-.258 2.905.506 4.255.873 7.455 1.948l-.18-.8s-4.03-1.575-9.472-2.214c0 0-3.129-.396-5.293.566zm0 3.537c2.328-.99 5.03-.686 7.49-.258 2.905.506 4.988.827 8.283 1.928l-.18-.8s-4.857-1.556-10.3-2.195c0 0-3.129-.396-5.293.566zm0 3.583c2.328-.99 5.03-.686 7.49-.258 2.905.504 5.858 1.285 9.193 2.406l-.178-.8s-5.77-2.034-11.213-2.673c0 0-3.129-.397-5.293.565v.76zM136.48 20.745h-2.176c-.28-10.626-4.571-15.537-14.513-15.537-14.296 0-16.256 12.357-16.256 24.427 0 10.188 1.162 24.498 15.021 24.498 10.087 0 15.4-6.912 15.674-17.2h2.178v14.309c-6.532 3.541-12.192 5.13-18.07 5.13-15.746 0-24.382-11.2-24.382-26.737 0-15.394 9.651-26.668 25.398-26.668 5.733 0 11.829 1.735 17.126 4.192v13.586zm16.47 13.875c2.975-.722 5.225-1.373 7.982-2.312v-3.035c0-4.987-.87-8.239-5.66-8.239-3.628 0-5.843 1.084-5.843 5.853 0 2.82-1.09 4.135-3.63 4.135-1.885 0-3.59-.882-3.59-3.051 0-6.937 7.04-8.744 12.845-8.744 11.102 0 13.28 4.553 13.28 10.551v18.356c0 5.493 1.669 5.566 5.732 5.566v1.807h-5.515c-4.064 0-6.894-.362-8.055-4.698-2.83 4.336-6.385 5.565-11.175 5.565-7.547 0-9.942-3.903-9.942-10.479 0-5.998 3.12-8.816 9.215-10.261zm.435 1.951c-4.353 1.3-5.732 2.89-5.732 9.25 0 4.41.798 8.311 4.717 8.311 6.313 0 8.562-7.949 8.562-12.863v-6.938z"/><path d="M178.351 21.489h-6.263v-1.823h13.69v8.383h.147c1.528-4.229 4.66-9.258 10.195-9.258 4.297 0 6.627 2.77 6.627 6.998 0 2.917-1.165 4.885-3.787 4.885-1.966 0-3.64-1.46-3.64-3.719 0-1.02.363-2.769.363-3.716 0-1.02-.729-1.823-1.821-1.823-3.787 0-8.084 8.31-8.084 16.182v15.964h6.045v1.823h-19.632v-1.823h6.16V21.49z"/><path d="M200.77 2.967h13.57v50.585h6.21v1.833h-19.78v-1.833h6.208V4.8h-6.209zM227.8 35.29v.587c0 10.248 1.374 18.228 10.7 18.228 6.577 0 9.903-4.099 11.782-9.37l1.59.586c-3.108 8.491-8.025 11.053-15.975 11.053-10.843 0-16.337-8.492-16.337-18.814 0-9.883 6.29-18.814 16.843-18.814 9.253 0 15.542 6.735 15.542 16.544H227.8zm15.47-2.268c0-5.271-.29-12.445-7.662-12.445-6.218 0-7.808 7.907-7.808 12.445zm8.762-13.397h4.987V9.89h7.373v9.735h8.023v1.83h-8.023v25.477c0 4.32.866 6.369 3.832 6.369 2.746 0 3.903-2.05 5.06-4.393l1.661.732-.65 1.317c-1.446 2.636-3.904 4.98-9.107 4.98-7.518 0-8.169-4.32-8.169-9.005V21.456h-4.987z"/><path d="M290.77 18.791c12.843 0 16.812 11.406 16.812 18.792 0 7.384-3.968 18.79-16.812 18.79-12.843 0-16.814-11.406-16.814-18.79 0-7.386 3.97-18.792 16.814-18.792zm0 35.755c8.514 0 8.586-9.286 8.586-16.963 0-7.678-.072-16.963-8.586-16.963-8.515 0-8.587 9.285-8.587 16.963 0 7.677.072 16.963 8.587 16.963zM314.474 53.27V21.467h-6.261v-1.808H321.9v6.794h.146c2.257-4.915 6.626-7.662 12.596-7.662 7.137 0 10.704 2.964 10.704 10.191V53.27h5.752v1.807h-18.931v-1.807h5.752V29.345c0-3.975-.73-7.951-5.825-7.951-6.77 0-10.193 6.36-10.193 13.083V53.27h5.751v1.807h-19.44V53.27zM114.71 80.514c0 3.741-2.533 6.519-7.397 6.519-4.89 0-7.422-2.778-7.422-6.519V70.77h3.872v9.61c0 1.948 1.49 3.427 3.55 3.427 2.035 0 3.525-1.479 3.525-3.427v-9.61h3.872zm14.742-9.744h5.263l7.471 11.021h.05v-11.02h3.873v15.86h-5.065l-7.67-11.291h-.05v11.29h-3.872zm31.472 0h3.872v15.86h-3.872zm16.703 0h4.419l4.344 10.394h.049l4.419-10.394h4.146l-7.25 15.86h-3.102zm28.914 0h11.94v3.226h-8.067v2.957h7.62v3.226h-7.62v3.226h8.514v3.225h-12.388V70.77zm26.904 0h6.801c3.6 0 6.628 1.12 6.628 4.817 0 2.217-1.316 3.942-3.8 4.345l4.47 6.698H242.9l-3.675-6.34h-1.91v6.34h-3.872zm3.872 6.563h2.283c1.415 0 3.253-.044 3.253-1.77 0-1.588-1.59-1.835-3.004-1.835h-2.532zm33.186-2.687c-.621-.717-1.861-1.053-2.805-1.053-1.092 0-2.607.448-2.607 1.636 0 2.889 8.092 1.03 8.092 6.586 0 3.54-3.152 5.218-6.776 5.218-2.259 0-4.245-.604-5.908-1.993l2.755-2.733c.795.942 2.085 1.501 3.375 1.501 1.267 0 2.681-.537 2.681-1.658 0-2.91-8.24-1.344-8.24-6.63 0-3.383 3.25-5.151 6.701-5.151 1.986 0 3.897.47 5.386 1.657zm17.051-3.876h3.873v15.86h-3.873zm21.841 3.092h-5.015v-3.09h13.901v3.09h-5.014V86.63h-3.872zm26.086 6.004l-6.603-9.096h4.816l3.725 5.936 3.946-5.936h4.593l-6.604 9.096v6.764h-3.873v-6.764z"/></g></g></svg>
