<svg width="194" height="160" xmlns="http://www.w3.org/2000/svg" xmlns:xlink="http://www.w3.org/1999/xlink"><defs><path id="a" d="M0 0h24.91v24.172H0z"></path></defs><g fill="none" fill-rule="evenodd"><path d="M30.463 100.576l-5.417.016-.763-4.865c-.718-.717-1.623-1.284-2.714-1.699-1.09-.414-2.377-.62-3.858-.616-3.163.01-5.593 1.171-7.292 3.485-1.7 2.314-2.543 5.327-2.533 9.041l.004 1.28c.011 3.714.869 6.73 2.573 9.05 1.704 2.322 4.104 3.477 7.2 3.467 1.431-.003 2.741-.217 3.93-.638 1.189-.421 2.107-.993 2.754-1.715l.734-4.87 5.418-.016.021 7.226c-1.46 1.711-3.324 3.076-5.593 4.095-2.269 1.018-4.81 1.532-7.622 1.541-4.876.015-8.876-1.671-11.998-5.059-3.122-3.387-4.69-7.74-4.706-13.06l-.004-1.229c-.015-5.303 1.52-9.666 4.605-13.087 3.085-3.423 7.083-5.14 11.993-5.155 2.812-.009 5.352.498 7.618 1.52 2.266 1.023 4.143 2.376 5.63 4.062l.02 7.226M44.076 120.006c1.069-.004 2.04-.238 2.912-.704.873-.467 1.55-1.05 2.035-1.752l-.012-4.027-3.619.01c-1.505.006-2.645.363-3.42 1.072-.775.71-1.161 1.563-1.158 2.555.003.895.292 1.593.868 2.096.576.503 1.375.753 2.394.75zm6.158 4.74c-.196-.438-.367-.889-.514-1.352-.147-.464-.262-.93-.345-1.403a9.757 9.757 0 01-3.064 2.377c-1.204.605-2.583.91-4.137.916-2.574.007-4.62-.69-6.138-2.093-1.518-1.403-2.28-3.317-2.287-5.742-.007-2.473.974-4.387 2.945-5.744 1.971-1.357 4.867-2.04 8.687-2.052l3.618-.01-.008-2.588c-.003-1.27-.37-2.252-1.1-2.95-.731-.697-1.809-1.044-3.233-1.04-.81.002-1.53.099-2.16.288-.631.189-1.14.414-1.528.676l-.454 2.832-5.341.016.007-5.858c1.292-.882 2.775-1.627 4.449-2.234 1.673-.607 3.498-.914 5.473-.92 3.254-.01 5.898.785 7.935 2.38 2.036 1.598 3.059 3.877 3.067 6.838l.032 10.91c.002.407.006.79.016 1.147.009.358.038.7.088 1.025l2.162.287.013 4.27-8.183.025zM60.888 120.443l3.397-.743-.048-16.377-3.766-.721-.013-4.296 10.368-.03.327 3.855c.611-1.369 1.402-2.437 2.37-3.205.97-.767 2.094-1.153 3.372-1.157.373 0 .765.027 1.178.083a7.33 7.33 0 011.033.203l-.734 6.496-2.914-.066c-1.036.004-1.893.21-2.572.619a3.934 3.934 0 00-1.549 1.738l.038 12.837 3.402.723.012 4.27-13.889.042-.012-4.271M80.021 91.874l-.012-4.296 10.878-.032.097 32.077 3.426.723.013 4.27-13.938.042-.013-4.271 3.422-.743-.083-27.05-3.79-.72M108.448 103.17c-1.311.003-2.346.51-3.104 1.522-.758 1.01-1.224 2.338-1.396 3.982l.073.121 8.692-.025-.001-.635c-.005-1.512-.36-2.72-1.067-3.62-.707-.902-1.773-1.35-3.197-1.346zm0 21.916c-3.788.01-6.819-1.201-9.092-3.635-2.274-2.434-3.416-5.53-3.427-9.289l-.003-.976c-.011-3.922 1.051-7.155 3.19-9.7 2.136-2.544 5.01-3.814 8.62-3.808 3.545-.011 6.3 1.055 8.265 3.197 1.965 2.142 2.953 5.043 2.964 8.705l.011 3.88-15.685.047-.049.146c.135 1.74.718 3.17 1.749 4.29 1.031 1.12 2.429 1.678 4.193 1.673 1.57-.005 2.873-.167 3.908-.488 1.036-.32 2.167-.824 3.396-1.511l1.93 4.388c-1.081.865-2.483 1.593-4.206 2.184-1.722.59-3.644.89-5.764.897zM130.64 90.99l.02 7.101 4.613-.013.015 5.003-4.613.014.04 13.449c.002 1.024.215 1.756.637 2.194.422.438.99.656 1.702.653.485 0 .91-.022 1.274-.064.365-.042.773-.113 1.226-.212l.622 5.15c-.792.245-1.577.431-2.353.555-.777.125-1.619.188-2.525.191-2.445.007-4.329-.663-5.652-2.01-1.323-1.346-1.989-3.484-1.998-6.412l-.04-13.473-2.465.011-.015-5.003 2.466-.011-.019-7.1 7.066-.022M144.696 111.52c.007 2.409.434 4.34 1.28 5.794.846 1.454 2.207 2.178 4.086 2.172 1.829-.005 3.166-.74 4.012-2.208.845-1.467 1.265-3.397 1.258-5.789l-.002-.513c-.007-2.343-.442-4.253-1.304-5.731-.862-1.478-2.216-2.215-4.061-2.21-1.846.006-3.188.751-4.024 2.234-.838 1.484-1.254 3.396-1.246 5.74l.001.512zm-7.092-.49c-.011-3.938 1.076-7.167 3.262-9.688 2.186-2.52 5.213-3.786 9.082-3.798 3.885-.011 6.928 1.233 9.13 3.732 2.2 2.5 3.306 5.726 3.318 9.68l.002.512c.011 3.971-1.076 7.208-3.262 9.713-2.186 2.503-5.206 3.761-9.058 3.773-3.902.011-6.953-1.229-9.153-3.72-2.201-2.491-3.308-5.722-3.32-9.692v-.513zM164.21 120.125l3.397-.743-.049-16.377-3.765-.72-.013-4.296 10.368-.031.327 3.782c.87-1.353 1.943-2.406 3.22-3.158 1.277-.752 2.708-1.13 4.295-1.136 2.654-.008 4.729.825 6.223 2.496 1.494 1.671 2.247 4.297 2.257 7.877l.034 11.495 3.402.723.013 4.27-13.55.041-.012-4.27 3.033-.743-.034-11.47c-.005-1.774-.365-3.03-1.08-3.769-.714-.738-1.792-1.105-3.233-1.1-.938.002-1.78.196-2.523.58a5.197 5.197 0 00-1.865 1.63l.042 14.155 2.867.725.013 4.27-13.355.04-.013-4.27M37.809 134.677l.007 2.388-2.105.414.03 10.313c.004 1.303.355 2.276 1.055 2.921s1.657.965 2.872.96c1.232-.002 2.199-.326 2.9-.971.7-.644 1.048-1.622 1.044-2.934l-.03-10.313-2.094-.401-.007-2.388 8.14-.024.007 2.388-2.105.413.03 10.313c.007 2.217-.715 3.93-2.165 5.136-1.45 1.208-3.354 1.815-5.712 1.822-2.348.007-4.247-.589-5.695-1.788-1.448-1.198-2.175-2.906-2.182-5.123l-.03-10.313-2.094-.4-.007-2.389 2.093-.006 3.942-.011 2.106-.007M50.711 152.021l1.89-.412-.028-9.105-2.093-.4-.007-2.39 5.764-.016.182 2.102c.484-.752 1.08-1.337 1.79-1.756.71-.418 1.506-.628 2.388-.63 1.476-.005 2.63.457 3.46 1.386.83.93 1.249 2.39 1.255 4.38l.018 6.39 1.891.402.007 2.375-7.532.022-.007-2.375 1.686-.411-.019-6.378c-.003-.986-.203-1.684-.6-2.095-.397-.41-.996-.614-1.797-.612-.522.002-.99.11-1.403.324a2.882 2.882 0 00-1.037.905l.023 7.87 1.594.402.007 2.375-7.425.022-.007-2.375M74.155 136.13l-3.943.012-.008-2.973 3.942-.011.009 2.972zm-5.8 15.839l1.903-.413-.027-9.104-2.107-.401-.007-2.389 6.048-.018.035 11.9 1.89.402.008 2.375-7.735.023-.007-2.375zM82.949 142.004l-1.377.262 1.95 6.562.261 1.383h.081l.28-1.384 1.883-6.56-1.404-.267-.007-2.389 6.628-.02.007 2.389-1.268.207-4.271 12.103-3.767.011-4.355-12.077-1.27-.2-.006-2.388 6.628-.02.007 2.388M98.369 142.35c-.73.003-1.304.285-1.726.846-.421.563-.68 1.3-.776 2.215l.04.068 4.834-.014-.001-.353c-.003-.842-.2-1.513-.594-2.014-.392-.501-.985-.75-1.777-.747zm.387 12.185c-2.106.006-3.791-.667-5.055-2.02-1.264-1.354-1.9-3.075-1.905-5.165l-.002-.543c-.006-2.18.584-3.978 1.773-5.393 1.188-1.414 2.786-2.12 4.793-2.117 1.97-.006 3.503.587 4.595 1.777 1.092 1.192 1.642 2.805 1.648 4.84l.006 2.158-8.72.026-.028.08c.075.969.4 1.764.973 2.386.573.623 1.35.933 2.331.93.873-.003 1.598-.093 2.173-.271.575-.178 1.204-.459 1.887-.84l1.074 2.439c-.601.481-1.381.886-2.339 1.215-.957.328-2.025.495-3.204.498zM106.175 151.85l1.889-.412-.027-9.105-2.094-.4-.007-2.39 5.765-.016.181 2.143c.34-.76.78-1.354 1.318-1.782a2.95 2.95 0 011.875-.642c.207-.001.425.014.655.045.23.032.42.069.574.114l-.408 3.61-1.62-.036c-.576.002-1.053.117-1.43.344a2.19 2.19 0 00-.861.966l.02 7.137 1.892.402.007 2.375-7.722.022-.007-2.374M128.808 144.522l-2.646.008-.424-1.83a3.447 3.447 0 00-1.02-.54 4.04 4.04 0 00-1.358-.214c-.693.003-1.241.16-1.645.473-.404.314-.606.706-.604 1.177.001.443.196.811.583 1.103.388.294 1.163.552 2.325.773 1.81.357 3.152.885 4.027 1.583.875.7 1.315 1.664 1.318 2.894.004 1.32-.558 2.4-1.684 3.24-1.128.841-2.613 1.264-4.458 1.27-1.125.003-2.159-.16-3.1-.487a7.894 7.894 0 01-2.508-1.41l-.05-3.298 2.753-.008.546 1.912c.234.198.555.344.96.438.405.093.828.14 1.27.139.8-.003 1.41-.148 1.827-.44.418-.291.626-.684.624-1.182 0-.434-.214-.81-.638-1.125-.424-.315-1.203-.593-2.337-.834-1.72-.348-3.02-.866-3.9-1.556-.88-.69-1.32-1.63-1.324-2.825-.004-1.23.497-2.292 1.502-3.187 1.006-.894 2.44-1.343 4.303-1.349a11.006 11.006 0 013.22.451c1.014.305 1.81.697 2.387 1.174l.051 3.65M136.816 135.936l-3.942.012-.01-2.972 3.943-.012.009 2.972zm-5.8 15.84l1.903-.414-.027-9.104-2.107-.401-.007-2.389 6.048-.018.035 11.9 1.891.403.007 2.374-7.735.024-.007-2.375z" fill="#FFFFFE"></path><g transform="translate(139.937 135.828)"><mask id="b" fill="#fff"><use xlink:href="#a"></use></mask><path d="M5.277 0l.01 3.595 2.566-.007.008 2.782-2.565.007.022 7.477c.001.57.12.977.354 1.22.235.244.55.366.947.364a6.7 6.7 0 00.708-.036c.203-.023.43-.062.682-.117l.346 2.862c-.441.137-.877.24-1.31.31-.43.068-.899.104-1.403.105-1.359.004-2.406-.368-3.142-1.117-.736-.749-1.106-1.938-1.11-3.565l-.023-7.491-1.359.007L0 3.614l1.36-.007L1.348.011 5.277 0M24.91 5.926l-1.363.207-5.33 14.305c-.421 1.06-.983 1.948-1.687 2.664-.705.717-1.768 1.078-3.19 1.083a5.09 5.09 0 01-.938-.08 17.161 17.161 0 01-1.034-.227l.45-2.892.393.054c.134.017.251.026.35.026.657-.002 1.16-.165 1.511-.487.35-.322.619-.723.807-1.203l.442-1.114-4.666-12.076-1.364-.213-.007-2.39 7.154-.02.007 2.388-1.632.276 2.015 5.856.206 1.058.08.013 2.289-6.94-1.648-.267-.007-2.389 7.155-.02.007 2.388" fill="#FFFFFE" mask="url(#b)"></path></g><path d="M126.4 23.034l-11.574 12.548 5.004-21.949-6.665 3.547-4.997-13.663-4.997 13.663-6.664-3.547 5.004 21.949-11.823-12.815-.767 5.596-9.694-2.842 4.474 10.629-4.107 1.125 13.853 10.398c15.761-6.11 25.648-4.335 31.441-1.974-.852 3.346-2.113 6.457-3.779 9.33a21.536 21.536 0 00-1.474-.743c-2.013-.918-4.433-1.662-7.343-2.096a37.969 37.969 0 00-3.583-.353 47.274 47.274 0 00-3.236-.054c-3.273.056-6.983.437-11.2 1.25l-.47.086c-.767.14-1.513.256-2.24.352-10.586 1.392-17.12-1.759-21.037-5.352a37.763 37.763 0 01-1.045-3.582c3.927 4.12 10.849 7.73 22.32 3.743L76.304 36.647l5.39-1.477-5.023-11.936 11.028 3.233.96-6.988L98.852 30.53 94.36 10.82l8.013 4.265 4.886-13.356c.642.085 1.283.178 1.922.278l4.784 13.078 8.013-4.265-4.493 19.71 8.925-9.675-.008 2.18" fill="#FFFFFE"></path><path d="M91.762 55.946c-10.918.877-17.072-2.184-20.544-5.974a40.069 40.069 0 001.937 4.102c.038.07.078.139.117.209 3.251 2.399 8.713 4.676 17.89 5.422 9.634.784 15.972 3.391 20.14 6.379 2.52-1.956 4.729-4.103 6.623-6.44-4.717-2.703-12.693-4.78-26.163-3.698" fill="#FFFFFE"></path><path d="M73.272 54.283c5.21 9.47 13.583 14.835 23.26 19.067.575.25 1.2.264 1.772 0 2.837-1.322 5.99-2.639 8.649-4.267a48.231 48.231 0 004.348-3c-4.167-2.987-10.505-5.594-20.139-6.378-9.177-.746-14.639-3.023-17.89-5.422M94.273 53.033c-12.197 2.352-19.504-1.02-23.746-4.91.215.62.444 1.237.691 1.849 3.472 3.79 9.626 6.851 20.544 5.974 13.47-1.082 21.446.995 26.163 3.698a36 36 0 003.186-4.62c-5.163-2.85-13.487-4.565-26.838-1.99M121.977 10.82l-4.493 19.71 8.925-9.675c.012-4.396.005-8.793.046-13.187.01-.8-.178-1.247-1.016-1.534-5.32-1.835-10.732-3.26-16.259-4.127l4.784 13.078 8.013-4.265" fill="#1B1A19"></path><path d="M91.802 48.28L76.303 36.647l5.39-1.477-5.023-11.936 11.028 3.233.96-6.988L98.852 30.53 94.36 10.82l8.013 4.265 4.886-13.356a78.085 78.085 0 00-4.046-.432c-11.477-.913-22.596.898-33.437 4.687-1.049.368-1.409.838-1.396 1.958.062 4.944.058 14.839.058 14.839 0 4.458-.045 8.916.01 13.373.037 2.873.387 5.67 1.035 8.387 3.927 4.12 10.849 7.725 22.32 3.739" fill="#1B1A19"></path><path d="M124.891 45.7c.734-2.884 1.165-5.941 1.279-9.177.159-4.494.21-8.99.23-13.489l-11.574 12.548 5.004-21.949-6.665 3.547-4.997-13.663-4.997 13.663-6.664-3.547 5.004 21.949-11.823-12.815-.767 5.596-9.694-2.842 4.474 10.629-4.107 1.125 13.853 10.398c15.763-6.111 25.65-4.335 31.444-1.973" fill="#D4252C"></path><path d="M97.333 0C88.27 0 78.88 1.675 69.427 4.98c-1.495.525-2.124 1.414-2.106 2.973.061 4.882.058 14.729.058 14.828 0 1.386-.004 2.772-.008 4.158-.01 3.024-.02 6.151.018 9.23a39.387 39.387 0 001.063 8.62v.002a39.018 39.018 0 001.081 3.698l.181.497c.183.505.328.904.525 1.39a41.284 41.284 0 002.107 4.425c2.525 4.588 5.874 8.457 10.238 11.828 3.636 2.808 7.935 5.255 13.529 7.701a3.28 3.28 0 001.32.282 3.11 3.11 0 001.314-.291c.612-.285 1.223-.563 1.87-.857 2.335-1.061 4.748-2.158 6.888-3.469a49.505 49.505 0 004.445-3.065c2.573-1.996 4.86-4.22 6.798-6.61a37.198 37.198 0 003.274-4.745l.007-.012a37.662 37.662 0 003.869-9.523.977.977 0 00.022-.074c.754-2.965 1.195-6.129 1.31-9.403.174-4.886.216-9.794.232-13.523l.009-2.18.007-3.67c.004-3.119.009-6.344.04-9.514.009-.834-.16-2.01-1.733-2.549-5.7-1.965-11.078-3.33-16.439-4.171a79.446 79.446 0 00-6.048-.72A75.477 75.477 0 0097.334 0zm0 1.062c1.95 0 3.911.076 5.882.233a78.076 78.076 0 015.968.71c5.528.867 10.94 2.293 16.261 4.127.838.287 1.026.735 1.017 1.534-.042 4.395-.035 8.792-.047 13.19l-.008 2.179c-.02 4.498-.072 8.996-.231 13.49-.114 3.236-.545 6.294-1.279 9.178l-.002-.001c-.853 3.345-2.113 6.455-3.778 9.327v.001l-.002.003a36.012 36.012 0 01-3.185 4.616c-1.894 2.337-4.103 4.485-6.624 6.44a48.202 48.202 0 01-4.35 3c-2.659 1.628-5.811 2.945-8.65 4.267a2.07 2.07 0 01-.872.194c-.304 0-.608-.066-.899-.194-9.678-4.232-18.052-9.597-23.263-19.069-.039-.07-.079-.138-.117-.209a40.012 40.012 0 01-1.937-4.102c-.247-.612-.41-1.081-.693-1.854a37.705 37.705 0 01-1.044-3.578v-.003a38.153 38.153 0 01-1.035-8.384c-.055-4.459-.01-8.918-.01-13.376 0 0 .004-9.896-.058-14.84-.013-1.12.348-1.59 1.397-1.959 8.98-3.139 18.152-4.92 27.56-4.92z" fill="#FFFFFE"></path></g></svg>