<svg xmlns="http://www.w3.org/2000/svg" width="24" height="24"><path  d="M11.953 18.614c5.326-4.83 7.838-11.077 7.92-17.442-2.398.39-5.142.022-7.92-1.172-2.778 1.194-5.522 1.562-7.92 1.172.082 6.365 2.595 12.612 7.92 17.442zM6.948 5.349c0-.36.125-.689.332-.95l1.04.43-.693.13A.942.942 0 0 0 9.13 6.033l.578.238a1.535 1.535 0 0 1-2.76-.924v.002zm1.239 3.65c1.733-.74 3.077-1.865 3.766-3.23v5.98c.695-1.218 2.064-2.218 3.766-2.75-2.012.85-3.628 3.746-3.766 6.58C11.814 12.745 10.2 9.85 8.187 9v-.001zm-2.94 12.736a.947.947 0 0 0-.266-.68c-.207-.202-.511-.31-.88-.31H2.75v2.996h.724v-1.566L4.58 23.74h.865l-.789-1.104a.932.932 0 0 0 .59-.902l.001.001zm-1.182.377h-.59v-.687h.586c.207 0 .454.058.454.345 0 .215-.169.342-.45.342zm13.377.199l-1.93-1.812v3.242h.716v-1.604l1.93 1.81v-3.2h-.716v1.564zm-6.385-1.565l-.748 1.652-.749-1.652h-.802L10.308 24l1.551-3.254h-.802zm2.14 1.821h1.385v-.671h-1.386v-.48h1.564v-.67h-2.287v1.15h-.735l.735.607v1.238h2.307v-.671h-1.584v-.503h.001zm7.04-.66c-.563-.134-.563-.215-.563-.325 0-.125.133-.209.331-.209.222 0 .444.086.679.26l.098.073.396-.557-.088-.07a1.659 1.659 0 0 0-1.077-.373c-.616 0-1.062.386-1.062.926 0 .642.5.816 1.011.94.532.122.532.215.532.314 0 .168-.192.227-.37.227-.29 0-.528-.098-.795-.33l-.091-.078-.445.527.087.077c.346.308.772.471 1.231.471.662 0 1.107-.378 1.107-.95 0-.604-.495-.805-.98-.923h-.001zm-13.902.66h-.858l.568.574-.304.6h.778l.249-.504h1.198l.249.504h.794L7.375 20.52l-1.04 2.049v-.002zm.764 0l.268-.541.268.541h-.536z"/></svg>
