<svg viewbox="0 0 24 24" xmlns="http://www.w3.org/2000/svg" aria-hidden="true"><path d="M2.745 2A1.819 1.819 0 0 0 .924 3.817v13.626h12.748v-1.817h4.925l.539.909-.54.908h4.182V3.817A1.819 1.819 0 0 0 20.957 2zm14.57 3.634a.909.909 0 0 1 .643 1.55l-4.553 4.542a.911.911 0 0 1-1.287 0L10.03 9.644l-3.91 3.9a.91.91 0 0 1-1.287 0 .906.906 0 0 1 0-1.285l4.553-4.542a.911.911 0 0 1 1.287 0L12.761 9.8l3.91-3.9a.909.909 0 0 1 .643-.266zM.923 19.26c-.329-.005-.634.167-.8.45s-.165.633 0 .916a.911.911 0 0 0 .8.45h21.854a.907.907 0 1 0 0-1.817z" /></svg>
