<svg viewbox="0 0 24 24" xmlns="http://www.w3.org/2000/svg" aria-hidden="true"><path d="M12.807 2.01a.853.853 0 0 0-.633.443.816.816 0 0 0 .164.974l4.306 4.082a.87.87 0 0 0 .446.224L23 8.748a.855.855 0 0 0 .907-.44.819.819 0 0 0-.167-.974L19.437 3.25a.867.867 0 0 0-.446-.222l-5.91-1.017a.885.885 0 0 0-.274-.001zM2.704 3.71C1.762 3.711 1 4.455 1 5.374v11.638c0 .919.762 1.663 1.704 1.663H19.74c.941 0 1.704-.744 1.704-1.663v-6.587l-1.007 1.942-.697 1.309v1.674H2.704V5.374h9.242l-.794-.753a2.49 2.49 0 0 1-.609-.91zM13.46 6.3l-1.068 2.062s1.398.697 2.787 2.537c2.34.02 3.738.719 3.738.719L19.99 9.55l-3.38-.58a1.335 1.335 0 0 1-.698-.347zm-2.24 9.882c.471 0 .853.372.853.831a.842.842 0 0 1-.852.831.842.842 0 0 1-.852-.83c0-.46.382-.832.852-.832zm-4.258 4.156a.856.856 0 0 0-.748.413.814.814 0 0 0 0 .838c.155.259.44.416.748.412h8.518c.307.004.593-.153.748-.412s.155-.58 0-.838a.856.856 0 0 0-.748-.413z"/></svg>
