<svg height="30" viewBox="0 0 30 30" width="30" xmlns="http://www.w3.org/2000/svg"><g fill="none" fill-rule="evenodd"><path d="m10.32 6.874c0-.48.154-.891.48-1.2.326-.308.72-.48 1.2-.48s.891.155 1.2.48c.309.326.48.72.48 1.2s-.154.892-.48 1.2c-.3163741.32328455-.7477148.50840159-1.2.515-.48 0-.891-.189-1.2-.515-.3200568-.31575007-.4940066-.75062456-.48-1.2zm2.863 3.96c-.343-.325-.72-.514-1.183-.531h-1.714c-.463.034-.823.223-1.183.531-.3224942.3115081-.51295382.7350301-.532 1.183h1.715v5.143c.034.463.188.857.531 1.183.343.343.72.531 1.183.531h1.714c.463 0 .823-.188 1.183-.531.343-.326.514-.72.532-1.183h-1.715v-5.16.017c-.0298897-.4451313-.2182721-.8648231-.531-1.183zm-1.183-8.571c-5.383 0-9.771 4.354-9.771 9.737s4.388 9.771 9.771 9.771 9.771-4.371 9.771-9.771-4.388-9.754-9.771-9.754zm0-2.263c6.617 0 12 5.383 12 12s-5.383 12-12 12-12-5.349-12-12 5.383-12 12-12z" fill="#1496da" fill-rule="nonzero" transform="translate(3 3)"/><circle cx="15" cy="15" opacity=".295573" r="12" stroke="#91d5ff" stroke-width="5"/></g></svg>