<svg width="24" height="24" viewbox="0 0 24 24" xmlns="http://www.w3.org/2000/svg"><g fill="none" fill-rule="evenodd"><path d="M16.87 9.645l-3.435.484a4.734 4.734 0 0 0-.024.07c-.122.365.164 2.794.281 3.731l1.294 3.92a.795.795 0 0 1-.567.965.795.795 0 0 1-.966-.567l-1.31-3.983s-.02-.14-.158-.14c-.131 0-.156.141-.156.141l-1.312 4.005a.796.796 0 0 1-.966.568.795.795 0 0 1-.568-.966l1.351-4.156c.128-1.048.368-3.178.255-3.517a4.734 4.734 0 0 0-.024-.071L7.13 9.645a.795.795 0 0 1-.674-.896.795.795 0 0 1 .895-.674l4.047.571.602.001h.602l4.047-.572a.795.795 0 0 1 .895.674.795.795 0 0 1-.674.896zM12 5.079a1.494 1.494 0 1 1 0 2.989 1.494 1.494 0 0 1 0-2.989zm0-2.38A9.3 9.3 0 1 0 12 21.3a9.3 9.3 0 0 0 0-18.6z" fill="#222"/><path d="M12 22.787C6.052 22.787 1.213 17.948 1.213 12S6.052 1.213 12 1.213 22.787 6.052 22.787 12 17.948 22.787 12 22.787zM12 .022C5.385.022.022 5.385.022 12c0 6.615 5.363 11.978 11.978 11.978 6.615 0 11.978-5.363 11.978-11.978C23.978 5.385 18.615.022 12 .022z" fill="#373B3E"/></g></svg>
