<svg width="24" height="24" viewBox="0 0 24 24" xmlns="http://www.w3.org/2000/svg"><path d="M12.778 0a3.267 3.267 0 0 0-1.82.604c.103.003.204.01.309.016l.193.013c.165.012.33.026.5.045h.017c.114.013.229.03.345.045.098.013.196.026.296.042.15.023.302.053.456.082 1.845.353 3.236 1.228 4.25 2.465l.004.004c.966-.48 2.03-.696 2.925.611 1.693 2.477 2.059 8.612.673 12.481-.425 1.188-1 2.025-1.593 2.651-.01.057-.02.102-.029.157l-.004.037c-.029.17-.058.343-.087.496-.04.21-.079.405-.119.582l-.041.165c5.379-4.156 5.122-16.654-.267-19.397C17.83.612 17.012.43 16.318.45c-.392.011-.744.09-1.06.207L15.25.653C14.362.201 13.592.01 12.93.001c-.05 0-.103-.002-.152 0zm-2.176 1.15c.712.002 1.5.07 2.36.235 2.587.494 4.147 2.017 5.085 4.232.938 2.215 1.215 5.122 1.134 8.267-.08 3.15-.372 5.14-.641 6.331-.245 1.086-.436 1.434-.47 1.497-.068.036-.456.252-.956.503-.27.136-.553.272-.786.37-.07.03-.065.024-.127.045.13-.948.979-7.523.228-14.018-.411-3.562-2.482-5.608-4.842-6.489a8.872 8.872 0 0 0-4.042-.49l.064-.022a9.218 9.218 0 0 1 2.993-.462zm5.263 7.526c-.39-3.387-2.289-5.223-4.481-6.042a8.264 8.264 0 0 0-2.944-.503c-.978.009-1.902.188-2.656.49-2.561 1.955-3.619 5.492-3.898 9.128.951-.178 5.823-.081 8.405.611 2.28.611 2.941 1.373 3.11 1.964.167.59.557 4.048.445 6.215-.086 1.658-.35 2.672-.52 3.095.859-.17 1.614-.392 2.262-.625l-.009-.02.012-.072s1.072-7.34.274-14.241zm-5.571-.23c-2.286-.132-3.592-.243-4.762-.33-.055-.82.19-2.353.19-2.353s1.878.027 4.627.274c0 0 .108 1.533-.055 2.409zm-8.1 4.315c2.403-.027 8.625.735 9.36 1.742.871 1.194.585 7.73-.088 9.402l-.003.002c-3.644.448-8.946-.826-9.817-1.634-.843-.783-.8-7.192-.222-9.448.16-.038.424-.06.77-.064z"/></svg>
