<svg width="24" height="24" viewBox="0 0 24 24" xmlns="http://www.w3.org/2000/svg"><path d="M23.426 12.65h.012l-4.852-8.548h-.012A2.12 2.12 0 0 0 16.711 3a2.15 2.15 0 0 0-2.098 1.712l-.21 2.392-.54 6.191h-3.726l-.54-6.191-.21-2.392A2.15 2.15 0 0 0 7.289 3c-.809 0-1.5.446-1.863 1.102h-.012L.563 12.651h.011A5.179 5.179 0 0 0 0 15.007a5.145 5.145 0 0 0 5.145 5.147c2.543 0 4.652-1.852 5.062-4.291h3.585c.41 2.439 2.52 4.291 5.063 4.291A5.145 5.145 0 0 0 24 15.007c0-.844-.21-1.642-.574-2.357zM5.145 19.298a4.292 4.292 0 0 1 0-8.583c2.12 0 3.878 1.56 4.218 3.588l.07.716a4.29 4.29 0 0 1-4.288 4.28zm8.636-5.088a8.06 8.06 0 0 0-.07.75v.047h-3.422v-.047a8.177 8.177 0 0 0-.07-.75v-.06h3.574l-.012.06zm5.075 5.088a4.298 4.298 0 0 1-4.29-4.28l.07-.715c.34-2.028 2.098-3.588 4.22-3.588a4.292 4.292 0 0 1 0 8.583zm-5.79-6.86l.68-7.726h-3.492l.68 7.727h2.133zm-2.355-5.146c0-.234.2-.434.433-.434h1.711c.235 0 .434.2.434.434a.43.43 0 0 1-.434.422h-1.71a.43.43 0 0 1-.434-.422z"/></svg>
