<svg width="24" height="24" viewBox="0 0 24 24" xmlns="http://www.w3.org/2000/svg"><path d="M4.302 19.063c1.506-2.764 3-5.585 4.537-8.325h6.322c1.537 2.74 3.031 5.56 4.537 8.325H4.302zm14.819-2.41l.018-.836c.04-1.816 4.763-1.81 4.802 0L24 18.515h-3.77l-1.11-1.862zm3.704-4.577c.031.337-.044 1.136-.212 1.438-.147.265-.488.519-.867.605-.183.028-.23.028-.412 0-.379-.086-.72-.34-.867-.605-.168-.302-.244-1.1-.212-1.438.06-.647.64-.97 1.285-.97.645 0 1.224.323 1.284.97zm-5.528 1.515l1.394 2.34c.01-.294.041-.652.137-.821.278-.487.843-.813 1.503-.992a1.52 1.52 0 0 1-.291-.367c-.217-.392-.313-1.27-.27-1.72.006-.072.017-.14.032-.207-1.13-.141-2.465.228-2.488 1.111l-.017.656zM20.404 9.8c-.05-.542-.536-.813-1.077-.813-.541 0-1.026.27-1.077.813-.026.283.037.952.177 1.206.123.221.41.434.727.507a.879.879 0 0 0 .345 0c.318-.073.604-.286.727-.507.14-.254.204-.923.178-1.206zm-4.604 1.28l.008-.383c.015-.708 1.156-.978 2.034-.812-.01.396.07 1.02.234 1.316.064.116.15.222.25.315-.557.148-1.03.43-1.26.842-.09.16-.124.412-.131.627l-1.136-1.906zm2.337-2.747c-.039-.409-.404-.613-.812-.613-.408 0-.774.204-.812.613-.02.213.028.718.134.909.093.167.308.327.548.382a.663.663 0 0 0 .26 0c.24-.055.455-.215.548-.382.106-.191.153-.696.134-.909zM4.879 16.653l-.019-.836c-.039-1.816-4.762-1.81-4.801 0L0 18.515h3.77l1.11-1.862h-.001zm-3.704-4.577c-.031.337.044 1.136.212 1.438.147.265.488.518.867.605.183.027.23.027.412 0 .379-.087.72-.34.867-.605.168-.302.244-1.1.212-1.438-.06-.647-.64-.97-1.285-.97-.645 0-1.224.323-1.284.97zm5.528 1.515l-1.394 2.34c-.01-.294-.041-.652-.137-.821-.278-.487-.843-.813-1.503-.992a1.52 1.52 0 0 0 .291-.367c.218-.392.313-1.27.27-1.72a1.655 1.655 0 0 0-.032-.207c1.13-.141 2.465.228 2.488 1.111l.017.656zM3.596 9.8c.05-.542.536-.813 1.077-.813.541 0 1.026.27 1.077.813.027.283-.037.952-.177 1.206-.123.221-.41.434-.727.507a.879.879 0 0 1-.345 0c-.318-.073-.604-.286-.727-.507-.14-.254-.204-.923-.178-1.206zm4.604 1.28l-.008-.383c-.015-.708-1.156-.978-2.034-.812.01.396-.07 1.02-.234 1.316-.064.116-.15.222-.25.315.557.148 1.03.43 1.26.842.09.16.123.412.131.627L8.2 11.078zM5.864 8.331c.039-.409.404-.613.812-.613.408 0 .774.204.812.613.02.213-.028.718-.134.909-.093.167-.308.327-.547.382a.663.663 0 0 1-.261 0c-.24-.055-.455-.215-.548-.382-.106-.191-.153-.696-.134-.909zm5.314-1.613c.038-.414.41-.622.823-.622.414 0 .785.208.824.622.02.216-.028.728-.136.922-.094.17-.313.332-.556.388a.675.675 0 0 1-.264 0c-.242-.056-.462-.218-.556-.388-.107-.194-.156-.706-.135-.922zM8.673 5v5.063h1.756l.032-.83c.045-1.16 3.034-1.164 3.079 0l.031.83h1.755V5H8.674z"/></svg>
