<svg width="24" height="24" viewBox="0 0 24 24" xmlns="http://www.w3.org/2000/svg"><path d="M14.256 13.5h-1.5c.825 0 1.5-.675 1.5-1.5v-1.5c0-.825-.675-1.5-1.5-1.5h-1.5c-.825 0-1.5.675-1.5 1.5V12c0 .825.675 1.5 1.5 1.5h-1.5c-.825 0-1.5.675-1.5 1.5v3h1.5v4.5c0 .825.675 1.5 1.5 1.5h1.5c.825 0 1.5-.675 1.5-1.5V18h1.5v-3c0-.825-.675-1.5-1.5-1.5zm-3-3h1.5V12h-1.5v-1.5zm3 6h-1.5v6h-1.5v-6h-1.5V15h4.5v1.5zm3.135-5.25a5.39 5.39 0 0 0-5.385-5.385 5.39 5.39 0 0 0-5.25 6.6v2.97c-.915-1.155-1.5-2.595-1.5-4.2 0-3.72 3.03-6.75 6.75-6.75s6.75 3.03 6.75 6.75c0 1.59-.585 3.045-1.5 4.2v-2.97c.09-.405.135-.795.135-1.215zm5.865 0c0 4.32-2.445 8.07-6 9.945V19.62a9.83 9.83 0 0 0 4.635-8.37c0-5.46-4.426-9.885-9.885-9.885-5.46 0-9.885 4.426-9.885 9.885a9.83 9.83 0 0 0 4.635 8.37v1.575A11.245 11.245 0 0 1 12.006 0c6.21 0 11.25 5.04 11.25 11.25z"/></svg>
