<svg width="24" height="24" viewBox="0 0 24 24" xmlns="http://www.w3.org/2000/svg"><path d="M18.297 16.192h5.397v-1.8h-5.397v-1.798L24 10.74l-.612-1.692-5.091 1.746v-1.8c0-.989-.81-1.799-1.8-1.799V5.397c0-.863-.647-1.583-1.493-1.745L16.858 1.8h3.238V0h-3.958L12.54 3.598h-1.062L7.862 0H3.904v1.8h3.238l1.854 1.852c-.846.162-1.494.864-1.494 1.745v1.8c-.99 0-1.799.809-1.799 1.799v1.799L.612 9.049 0 10.741l5.703 1.853v1.799H.306v1.799h5.397v1.799L0 19.844l.612 1.691 5.091-1.745v1.8c0 .989.81 1.798 1.8 1.798H9.3l1.8-1.799V8.996H12.9v12.593l1.799 1.8h1.799c.99 0 1.799-.81 1.799-1.8V19.79l5.091 1.745.612-1.69-5.703-1.854v-1.8zm-3.598-8.996H9.3V5.397H14.7v1.8z"/></svg>
