<svg width="24" height="24" viewbox="0 0 24 24"  xmlns="http://www.w3.org/2000/svg"><path d="M23.145 3.5H.855A.853.853 0 0 0 0 4.356v15.43c0 .481.387.857.856.857h22.288a.853.853 0 0 0 .856-.856V4.356a.853.853 0 0 0-.856-.856zM9.855 17.219H3a.44.44 0 0 1-.434-.434s.012-3.905 2.274-5.17A3.021 3.021 0 0 1 3.434 9.07a3 3 0 1 1 6 0c0 1.067-.575 2.005-1.418 2.544 2.273 1.266 2.273 5.17 2.273 5.17a.44.44 0 0 1-.434.435zm11.578 0h-8.578v-.856h8.578v.856zm0-1.712h-8.578v-.868h8.578v.868zm0-1.724h-8.578v-.855h8.578v.855zm0-1.712h-8.578v-.856h8.578v.856zm0-1.711h-8.578v-.857h8.578v.857zm0-1.724h-8.578V7.78h8.578v.856zm0-1.712h-8.578v-.856h8.578v.856z" /></svg>
