<svg width="24" height="24" viewbox="0 0 24 24"  xmlns="http://www.w3.org/2000/svg"><path d="M21.421 1.714h-1.714v2.572c0 .48-.377.857-.857.857h-3.429a.849.849 0 0 1-.857-.857V1.714H9.421v2.572c0 .48-.377.857-.857.857H5.136a.849.849 0 0 1-.857-.857V1.714H2.564A1.72 1.72 0 0 0 .85 3.43v18.857A1.72 1.72 0 0 0 2.564 24h18.857a1.72 1.72 0 0 0 1.715-1.714V3.429a1.72 1.72 0 0 0-1.715-1.715zm0 20.572H2.564V6.857h18.857v15.429zM7.707 3.429H5.993V0h1.714v3.429zm10.286 0h-1.714V0h1.714v3.429zM9.42 10.286H7.707V8.57h1.714v1.715zm3.429 0h-1.714V8.57h1.714v1.715zm3.429 0h-1.715V8.57h1.715v1.715zm3.428 0h-1.714V8.57h1.714v1.715zM5.993 13.714H4.279V12h1.714v1.714zm3.428 0H7.707V12h1.714v1.714zm3.429 0h-1.714V12h1.714v1.714zm3.429 0h-1.715V12h1.715v1.714zm3.428 0h-1.714V12h1.714v1.714zM5.993 17.143H4.279v-1.714h1.714v1.714zm3.428 0H7.707v-1.714h1.714v1.714zm3.429 0h-1.714v-1.714h1.714v1.714zm3.429 0h-1.715v-1.714h1.715v1.714zm3.428 0h-1.714v-1.714h1.714v1.714zM5.993 20.57H4.279v-1.714h1.714v1.714zm3.428 0H7.707v-1.714h1.714v1.714zm3.429 0h-1.714v-1.714h1.714v1.714zm3.429 0h-1.715v-1.714h1.715v1.714z"/></svg>
