<svg viewbox="0 0 24 24" xmlns="http://www.w3.org/2000/svg"><path d="M1.44 1a.44.44 0 0 0-.44.44v17.6c0 .244.198.44.44.44h7.04v-1.581a2.14 2.14 0 0 1-.44-.536 2.198 2.198 0 0 1-.234-1.527 2.307 2.307 0 0 1-.288-1.402l.013-.041v-.042c.122-.553.41-1.022.798-1.347.09-.5.345-.966.742-1.306a2.266 2.266 0 0 1 1.458-.537 2.217 2.217 0 0 1 1.43-.522 2.18 2.18 0 0 1 1.43.536h.027c.524 0 1.035.182 1.43.523.402.345.657.826.743 1.333.39.318.667.753.783 1.279.01.046.023.091.028.138a2.12 2.12 0 0 1-.44 1.567 2.185 2.185 0 0 1-.33 1.457c-.033.047-.076.095-.11.138v1.87h7.04c.244 0 .44-.196.44-.44V1.44a.44.44 0 0 0-.44-.44zM5.4 4.96h13.2v.88H5.4zm0 2.2h13.2v.88H5.4zm0 2.2h13.2v.88H5.4zm6.559 2.159c-.444 0-.851.221-1.086.563a1.386 1.386 0 0 0-1.224.289c-.339.29-.518.703-.481 1.128-.384.168-.66.541-.77 1.045-.052.417.09.847.37 1.141-.188.407-.185.865.028 1.237.208.365.578.609.99.66.1.427.41.793.825.95.141.053.292.082.44.082.277 0 .554-.098.798-.275.237.173.5.261.77.261.115 0 .306-.003.481-.083.423-.164.703-.507.797-.934.392-.05.77-.274 1.018-.62.009-.011.007-.028.014-.04a1.34 1.34 0 0 0 .055-1.183c.39-.272.591-.7.536-1.196-.002-.016-.01-.026-.014-.041-.101-.453-.373-.795-.77-.977.041-.43-.124-.86-.467-1.155a1.293 1.293 0 0 0-1.224-.261 1.32 1.32 0 0 0-1.086-.591zm2.681 6.765l-.069.027a2.215 2.215 0 0 1-1.141 1.018 2.005 2.005 0 0 1-.811.151c-.263 0-.523-.055-.77-.151a2.177 2.177 0 0 1-.798.165 2.205 2.205 0 0 1-1.691-.825v3.891c0 .158.083.306.22.385a.43.43 0 0 0 .44-.014L12 21.75l1.98 1.182a.43.43 0 0 0 .44.014.443.443 0 0 0 .22-.385z" /></svg>
