<svg width="24" height="24" viewbox="0 0 24 24"  xmlns="http://www.w3.org/2000/svg"><path d="M5.143 6.857a1.72 1.72 0 0 1 1.714-1.714 1.72 1.72 0 0 1 1.714 1.714 1.72 1.72 0 0 1-1.714 1.714 1.72 1.72 0 0 1-1.714-1.714zm13.714 0a1.72 1.72 0 0 0-1.714-1.714 1.72 1.72 0 0 0-1.714 1.714 1.72 1.72 0 0 0 1.714 1.714 1.72 1.72 0 0 0 1.714-1.714zm0 10.286a1.72 1.72 0 0 0-1.714-1.714 1.72 1.72 0 0 0-1.714 1.714 1.72 1.72 0 0 0 1.714 1.714 1.72 1.72 0 0 0 1.714-1.714zM22.286 0H8.57v3.72a3.352 3.352 0 0 1 1.423 1.423h4.012a3.602 3.602 0 0 1 4.011-1.8C19.303 3.669 20.35 4.714 20.64 6a3.598 3.598 0 0 1-3.514 4.44 3.54 3.54 0 0 1-3.137-1.869H9.994c-.72 1.372-2.28 2.195-4.011 1.766C4.73 10.046 3.686 9 3.377 7.731 2.95 5.983 3.771 4.44 5.143 3.72V0H1.714A1.72 1.72 0 0 0 0 1.714v20.572A1.72 1.72 0 0 0 1.714 24l8.572-8.571h3.72a3.602 3.602 0 0 1 4.011-1.8c1.286.325 2.332 1.371 2.623 2.657a3.598 3.598 0 0 1-3.514 4.44 3.54 3.54 0 0 1-3.137-1.869h-2.006L6.857 24h15.429A1.72 1.72 0 0 0 24 22.286V1.714A1.72 1.72 0 0 0 22.286 0z"  /></svg>
