<svg width="24" height="24" viewbox="0 0 24 24"  xmlns="http://www.w3.org/2000/svg"><path d="M3.95 19.2h6.4v1.6h-6.4v-1.6zm8-9.6h-8v1.6h8V9.6zm3.2 4.8v-3.2l-4.8 4.8 4.8 4.8v-3.2h8v-3.2h-8zm-7.2-1.6h-4v1.6h4v-1.6zm-4 4.8h4V16h-4v1.6zm14.4 1.6h1.6v3.2c-.032.448-.176.832-.48 1.12a1.749 1.749 0 0 1-1.12.48h-16c-.88 0-1.6-.72-1.6-1.6V4.8c0-.88.72-1.6 1.6-1.6h4.8c0-1.776 1.424-3.2 3.2-3.2 1.776 0 3.2 1.424 3.2 3.2h4.8c.88 0 1.6.72 1.6 1.6v8h-1.6V8h-16v14.4h16v-3.2zM3.95 6.4h12.8c0-.88-.72-1.6-1.6-1.6h-1.6c-.88 0-1.6-.72-1.6-1.6 0-.88-.72-1.6-1.6-1.6-.88 0-1.6.72-1.6 1.6 0 .88-.72 1.6-1.6 1.6h-1.6c-.88 0-1.6.72-1.6 1.6z"  /></svg>
