<svg width="24" height="24" viewbox="0 0 24 24"  xmlns="http://www.w3.org/2000/svg"><path d="M24 8.188v-1.09l-1.336-.584-.316-.763.532-1.36-.77-.77-1.358.532-.761-.315-.584-1.338h-1.09l-.583 1.338-.762.316-1.358-.533-.77.77.532 1.36-.315.762-1.337.584v1.09l1.337.585.315.762-.532 1.36.77.77 1.358-.532.762.315.584 1.338h1.089l.583-1.337.762-.316 1.358.533.77-.772-.532-1.358.316-.763L24 8.188zm-5.138 2.737a3.28 3.28 0 0 1-3.279-3.282 3.28 3.28 0 0 1 6.558 0 3.28 3.28 0 0 1-3.279 3.282zm-.412 7.15l-.106-.468.543-1.13-.432-.543-1.223.278-.432-.208-.544-1.13h-.693l-.545 1.13-.432.209-1.222-.278-.432.542.543 1.13-.107.468-.979.783.154.676 1.222.28.299.375.001 1.254.624.301.98-.781h.48l.98.78.624-.3.001-1.254.299-.375 1.222-.28.154-.676-.98-.783h.001zm-2.54 2.134a1.799 1.799 0 0 1-1.799-1.8 1.799 1.799 0 1 1 1.798 1.8zm-2.72-8.864l1.384-1.082-.42-1.296-1.756-.061-.67-.924.483-1.69-1.1-.801-1.457.983-1.086-.353-.6-1.652H6.606L6.006 6.12l-1.086.353-1.456-.983-1.101.8.484 1.69-.67.925-1.757.062L0 10.263l1.384 1.082v1.142L0 13.57l.42 1.296 1.756.061.671.924-.484 1.69 1.101.8 1.457-.982 1.085.353.6 1.652h1.362l.6-1.652 1.086-.353 1.456.983 1.101-.8-.484-1.691.671-.924 1.756-.062.42-1.295-1.384-1.083v-1.142zm-5.903 5.23a4.658 4.658 0 0 1-4.655-4.659 4.657 4.657 0 0 1 4.655-4.659 4.657 4.657 0 0 1 4.655 4.66 4.657 4.657 0 0 1-4.655 4.659z"  /></svg>
