<svg width="24" height="24" viewbox="0 0 24 24"  xmlns="http://www.w3.org/2000/svg"><path d="M12 0C5.373 0 0 5.373 0 12c0 6.628 5.373 12 12 12s12-5.372 12-12c0-6.627-5.373-12-12-12zm0 22.08C6.442 22.08 1.92 17.558 1.92 12S6.442 1.92 12 1.92 22.08 6.442 22.08 12 17.558 22.08 12 22.08zM10.95 9.573l-.09.039v.003a2.62 2.62 0 0 0-1.247 1.258h-.005L9.554 11 9.553 11 6.9 17.058l6.065-2.608c.032-.012.063-.026.094-.04l.081-.035v-.003a2.618 2.618 0 0 0 1.248-1.258h.003l.053-.121.003-.008L17.1 6.93l-6.069 2.609-.082.035zm.37 1.741a.96.96 0 1 1 1.359 1.359.96.96 0 0 1-1.359-1.359z" /></svg>
