<svg xmlns="http://www.w3.org/2000/svg" width="34" height="44" viewBox="0 0 34 44"><g fill="none" fill-rule="nonzero"><g fill="#FFF"><path d="M31.74 29.833c.1-.264.194-.53.281-.8.704-2.102 1.054-4.338 1.035-6.682 0 0-.013-14.34-.06-19.386a36.487 36.487 0 0 0-1.274-.342c-.376-.102-.81-.205-1.294-.307-4.112-.909-8.882-1.401-12.902-1.52l.01.02a24.876 24.876 0 0 0-1.257.01l.026-.054c-4.575-.02-10.128.753-14.574 1.94-.406.096-.717.181-.906.253C.815 4 .807 5.427.8 7.038.766 14.071.765 22.351.765 22.351c-.027 3.223.636 6.244 1.978 8.985.103.212.21.423.32.632.033.059.06.12.092.18l.002-.007c.153.281.313.561.484.838l.008.014c.298.481.617.95.956 1.403.18.235.361.465.545.69.137.166.277.328.416.49l.13.152c2.582 2.946 5.694 5.109 9.133 6.644.13.064.258.13.39.193.01.005.118.042.275.095.31.13.696.243 1.043.353l.373.125c.415-.153.997-.302 1.424-.48l.277-.094c.265-.124.524-.25.78-.374a27.482 27.482 0 0 0 4.53-2.644l.076-.055c.12-.087.24-.174.358-.263 1.819-1.35 3.383-2.897 4.86-4.832 1.093-1.463 1.907-2.94 2.501-4.5l.024-.063z"/><path d="M16.92 43.955l-.8-.265c-.301-.094-.613-.191-.893-.306-.278-.094-.295-.102-.345-.127l-.388-.191c-3.683-1.644-6.844-3.945-9.37-6.827l-.133-.156c-.156-.18-.294-.34-.429-.506a26.55 26.55 0 0 1-.562-.71c-.18-.24-.354-.484-.523-.733l-.03.13-.96-1.743c-.023-.041-.044-.084-.065-.127l-.03-.059a18.16 18.16 0 0 1-.336-.66C.666 28.834-.027 25.693.001 22.344c0-.077 0-8.356.035-15.31C.043 5.421.05 3.992.06 2.958l.005-.529.49-.186a8.377 8.377 0 0 1 1.003-.282C6.074.753 11.664 0 16.122 0l1.417.006-.008.018h.018c4.466.133 9.22.693 13.042 1.538.494.104.943.211 1.33.315.429.108.865.224 1.286.346l.548.16.005.574c.047 4.992.06 19.25.06 19.392.02 2.41-.342 4.743-1.075 6.93-.088.274-.186.553-.29.829l-.03.076c-.624 1.64-1.475 3.172-2.599 4.676-1.523 1.995-3.117 3.579-5.019 4.99-.102.077-.21.156-.318.234l-.129.093a28.356 28.356 0 0 1-4.65 2.713c-.245.12-.507.247-.776.373l-.08.032-.253.086c-.276.113-.585.21-.884.303-.195.06-.383.12-.545.179l-.251.092zm-1.402-2.102l.218.075.048.018c.222.092.51.182.787.269l.335.108c.115-.038.236-.076.359-.114.275-.086.56-.175.778-.266l.285-.098c.244-.115.487-.232.729-.35a26.873 26.873 0 0 0 4.42-2.577l.119-.086.302-.223c1.788-1.327 3.284-2.815 4.713-4.685 1.031-1.381 1.816-2.792 2.392-4.305l.73.236-.715-.274c.104-.276.194-.531.277-.789.68-2.032 1.015-4.194.997-6.436 0-.143-.012-13.378-.055-18.803-.23-.062-.465-.122-.7-.182-.42-.112-.841-.212-1.266-.3-3.574-.79-7.98-1.326-12.182-1.485h-.565c-.15-.003-.301-.004-.452-.004h-.158c-.194.002-.4.007-.61.014l-1.28.04.039-.079c-4.14.107-9.07.815-13.137 1.902a13.3 13.3 0 0 0-.342.084 905.99 905.99 0 0 0-.02 3.499c-.034 6.95-.035 15.225-.035 15.308-.025 3.112.613 6.018 1.9 8.645a16.661 16.661 0 0 0 .343.677l.054.096c.163.3.315.562.464.803l.027.045c.28.451.58.89.898 1.315.169.221.345.444.524.662.127.155.256.305.386.455l.144.17c2.378 2.712 5.363 4.882 8.869 6.448l.38.187z"/></g><g fill="#FFF"><path d="M16.91 43.138l1.701-.574c4.646-2.179 7.779-4.468 10.604-8.168 2.677-3.584 3.706-7.245 3.84-12.045 0 0-.064-15.505-.091-19.283C31.316 2.117 21.408.771 16.907.812"/><path d="M17.151 43.87l-.484-1.465 1.66-.56c4.69-2.203 7.67-4.5 10.283-7.92 2.443-3.272 3.545-6.741 3.682-11.596-.001-.122-.06-14.292-.089-18.757-2.238-.797-10.884-2.04-15.289-1.988L16.901.04c4.516-.042 14.598 1.293 16.442 2.358l.382.22.003.444c.028 3.644.092 19.219.092 19.288-.146 5.223-1.34 8.958-3.994 12.51-2.787 3.65-5.941 6.082-10.893 8.404l-.08.032-1.702.574z"/></g><g fill="#FFF"><path d="M16.908.812C12.09.855 2.384 2.373.825 2.965.765 10.341.765 22.35.765 22.35c.116 4.584 1.166 8.466 3.84 12.046 2.828 3.705 6.197 6.033 10.614 8.169.04.019 1.69.572 1.69.572"/><path d="M16.669 43.87c-1.696-.569-1.725-.582-1.778-.608-4.982-2.409-8.238-4.919-10.892-8.394C1.397 31.384.13 27.414.001 22.37c0-.14 0-12.117.06-19.411l.004-.53.49-.186C2.344 1.565 12.153.083 16.902.04l.013 1.544c-4.309.039-12.87 1.323-15.33 1.957-.054 7.324-.055 18.693-.055 18.81.12 4.75 1.257 8.328 3.685 11.58 2.52 3.301 5.508 5.6 10.301 7.921.18.063 1.079.366 1.635.553l-.481 1.465z"/></g><path fill="#282828" d="M27.592 22.486l-.406-.134-.088-.43-.699-.275c-1.901-.668-3.85-1.206-5.863-1.4-1.296-.125-2.608-.027-3.604.62-.993-.647-2.304-.745-3.6-.62-2.014.194-3.966.732-5.87 1.4l-.698.275-.09.43-.408.134-2.276 9.608a89.965 89.965 0 0 1 5.395-.78 34.681 34.681 0 0 1 5.436-.214c-.01.084-.034.153.018.236.238.23.719.209 1.103.244.399.015.576.022.969.025.392.002.571-.01.97-.025.383-.035.864-.013 1.104-.244.051-.083.028-.153.019-.236a34.62 34.62 0 0 1 5.435.214c1.465.153 4.108.541 5.392.78l-2.239-9.608zm-10.935 7.232c-1.06-.574-2.383-.66-3.671-.587-2.752.179-5.227.79-7.818 1.682l1.983-8.691c1.99-.765 4.08-1.373 6.243-1.557 1.417-.088 2.635.092 3.336.601l-.073 8.552zm4.189-.587c-1.288-.073-2.61.013-3.673.587l-.039-8.55c.703-.51 1.923-.69 3.339-.603 2.162.185 4.25.792 6.238 1.557l1.946 8.692c-2.587-.893-5.06-1.504-7.811-1.683z"/><path fill="#282828" d="M17.526.795l2.26 4.59.007.015c.008.02.039.082.12.224.075-.03.148-.059.22-.09.103-.057 3.786-2.174 3.786-2.174l-1.791 8.889 3.654-3.884 1.537 2.954.4-.068-.198.034 4.491-1.248-1.428 5.093-.027.043.003.002-.018.058.013-.02-.17.52c-.022.066-.072.228-.085.27l2.3 1.198-4.778 4.278.052.25.393.13 2.396 10.29c1.626-2.953 2.42-6.255 2.392-9.799 0 0-.012-14.34-.06-19.385C28.42 1.636 22.417.94 17.526.795m-.617 42.343c.424-.155 1.024-.308 1.454-.492 4.193-1.76 7.929-4.42 10.852-8.25.342-.457.663-.93.964-1.416l-.493-.092a90.164 90.164 0 0 0-5.337-.772 36.455 36.455 0 0 0-.97-.1h-.006a32.817 32.817 0 0 0-3.81-.124l-.027.028c-.406.393-.972.426-1.385.45l-.23.016-.233.01-.784.017-.994-.026-.24-.017c-.413-.024-.979-.057-1.385-.451l-.026-.026a34.044 34.044 0 0 0-3.02.061l-.01.002-.273.019-.018.001-.267.022a.879.879 0 0 0-.043.004l-.247.021-.08.008-.216.02-.14.014-.164.018c-.103.01-.208.023-.314.034a90.16 90.16 0 0 0-5.332.771l-.494.091c.3.486.622.96.964 1.417 2.924 3.83 6.659 6.49 10.851 8.25.43.184 1.03.336 1.453.492M16.306.772C11.414.75 5.404 1.635.826 2.965.775 8.011.764 22.35.764 22.35c-.03 3.544.765 6.845 2.39 9.797l2.438-10.289.395-.13.046-.217-4.813-4.31 2.299-1.199a112.27 112.27 0 0 1-.096-.304l-.13-.394a.42.42 0 0 0-.013-.017l-1.473-5.25L6.3 11.284l-.195-.032.397.067L8.04 8.365l3.653 3.883L9.9 3.36l3.786 2.175.221.09c.084-.15.113-.208.119-.221l.007-.018 2.009-4.078.263-.536"/><path fill="#BF112B" d="M4.523 16.163c-.017.24-.24.514-.369.61l-1.232.643 3.996 3.579.268-.106.014-.005c2.3-.807 4.225-1.265 6.056-1.441 1.505-.145 2.713.022 3.676.503.967-.481 2.175-.648 3.68-.503 1.83.176 3.753.634 6.05 1.441l.014.006.239.093 3.983-3.567-1.233-.643c-.127-.096-.351-.37-.367-.61-.005-.072-.013-.064-.02-.043l.003-.02c.024-.143 0-.113.129-.499-.01.01.235-.732.24-.739l.96-3.42-2.832.787c-.155.01-.298.065-.45.087-.267.038-.48.074-.639-.103l-1.136-2.183-3.233 3.436-.257.257c-.544.417-1.313-.033-.977-1.22l1.457-7.226-1.984 1.14a9.067 9.067 0 0 1-.864.32c-.122.039-.243-.04-.325-.118-.14-.233-.379-.632-.46-.813l-2-4.063-2 4.063c-.081.181-.319.58-.46.813-.082.077-.204.157-.325.118a9.028 9.028 0 0 1-.864-.32l-1.985-1.14 1.456 7.225c.336 1.188-.432 1.638-.976 1.22l-.256-.256-3.232-3.436-1.137 2.183c-.16.177-.374.14-.638.103-.153-.022-.295-.077-.45-.087l-2.832-.786.958 3.42c.007.006.253.749.241.738.128.386.105.356.128.498 0 .006.002.011.003.017-.006-.018-.014-.02-.018.047z"/><path fill="#282828" d="M15.567 23.29c-1.13-.485-2.443-.336-3.638-.127-1.411.247-2.067.427-3.621.952l.087-.39s1.958-.77 4.601-1.083c0 0 1.52-.194 2.571.277v.37zm0 1.728c-1.13-.484-2.443-.335-3.638-.126-1.411.247-2.423.405-4.023.943l.087-.391s2.36-.761 5.003-1.073c0 0 1.52-.194 2.571.276v.371zm0 1.752c-1.13-.484-2.443-.335-3.638-.126-1.411.247-2.845.628-4.466 1.176l.088-.39s2.802-.995 5.445-1.308c0 0 1.52-.194 2.571.276v.372zm2.645-3.48c1.13-.485 2.444-.336 3.638-.127 1.411.247 2.067.427 3.621.952l-.087-.39s-1.958-.77-4.6-1.083c0 0-1.52-.194-2.572.277v.37zm0 1.728c1.13-.484 2.444-.335 3.638-.126 1.411.247 2.423.405 4.024.943l-.088-.391s-2.36-.761-5.003-1.073c0 0-1.52-.194-2.57.276v.371zm0 1.752c1.13-.484 2.444-.335 3.638-.126 1.411.247 2.845.628 4.466 1.176l-.087-.39s-2.803-.995-5.446-1.308c0 0-1.52-.194-2.571.276v.372z"/></g></svg>
