<svg width="24" height="24" viewbox="0 0 24 24"  xmlns="http://www.w3.org/2000/svg"><path d="M18.114 12.3l-.232-.075-.051-.243-.4-.156c-1.089-.379-2.205-.684-3.358-.793-.742-.071-1.493-.016-2.064.351-.568-.367-1.32-.422-2.062-.351-1.153.11-2.27.414-3.36.793l-.401.156-.052.243-.233.076-1.304 5.443c.735-.135 2.25-.355 3.09-.442a20.09 20.09 0 0 1 3.112-.121c-.005.047-.019.087.01.134.137.13.412.118.632.138.23.008.33.012.555.014.225.001.327-.006.555-.015.22-.02.496-.007.633-.138.03-.047.016-.086.01-.133 1.18-.04 2.07.004 3.113.12.84.088 2.353.308 3.088.443L18.114 12.3zm-6.262 4.098c-.608-.325-1.365-.374-2.103-.332-1.576.1-2.993.447-4.477.952l1.135-4.923c1.14-.434 2.337-.778 3.576-.882.81-.05 1.51.053 1.91.341l-.042 4.844zm2.399-.332c-.738-.042-1.496.007-2.104.332l-.022-4.844c.402-.289 1.101-.39 1.912-.341 1.238.105 2.434.448 3.572.882l1.115 4.923c-1.481-.505-2.897-.851-4.473-.952zM12.35.013l1.294 2.6.003.01c.005.01.023.045.069.126l.127-.05 2.167-1.233s-.935 4.588-1.025 5.036l2.092-2.2.88 1.673.23-.038-.114.018 2.572-.706-.818 2.885-.015.024h.002l-.011.035.008-.012-.098.294-.048.153 1.317.679-2.736 2.424.03.141.225.074 1.372 5.83c.931-1.673 1.386-3.544 1.37-5.551 0 0-.007-8.124-.035-10.982C18.588.49 15.151.096 12.35.013zM11.996 24c.243-.088.586-.174.833-.278 2.401-.998 4.54-2.504 6.215-4.674.197-.261.38-.53.552-.802l-.283-.052a52.352 52.352 0 0 0-3.361-.47l-.25-.024h-.004a16.015 16.015 0 0 0-.525-.04 18.862 18.862 0 0 0-1.656-.03l-.016.015c-.233.222-.557.241-.794.255l-.132.009-.133.005-.449.01-.57-.015-.137-.01c-.236-.013-.56-.032-.793-.255l-.015-.015a19.728 19.728 0 0 0-1.73.035l-.005.001-.156.011h-.01l-.154.013-.025.002-.14.012-.046.005-.124.011-.08.008-.095.01-.18.019c-.785.082-2.298.298-3.053.437l-.283.052c.17.273.354.541.552.803 1.674 2.17 3.814 3.676 6.215 4.673.246.104.59.19.832.278V24zm-.345-24C8.849-.012 5.407.49 2.785 1.243 2.757 4.1 2.75 12.225 2.75 12.225c-.016 2.007.439 3.877 1.37 5.55l1.396-5.83.226-.073.026-.123-2.756-2.442 1.316-.679-.055-.172-.074-.224-.007-.009-.844-2.974 2.572.707-.111-.019.227.038.88-1.673 2.093 2.2-1.026-5.035 2.168 1.232.127.05c.048-.084.064-.117.067-.125l.005-.01L11.5.304 11.65 0zM4.903 8.72c-.01.137-.138.291-.211.346l-.706.364 2.289 2.027.153-.06.008-.002c1.317-.458 2.419-.717 3.468-.817.862-.082 1.554.012 2.105.285.554-.273 1.246-.367 2.108-.285 1.048.1 2.15.36 3.464.817l.009.003.136.053 2.281-2.021-.706-.364c-.073-.055-.201-.21-.21-.346-.003-.04-.008-.036-.012-.024l.002-.012c.013-.08 0-.063.074-.282-.006.006.134-.415.138-.419l.55-1.937-1.623.445c-.088.006-.17.037-.258.05-.152.021-.274.042-.365-.059l-.65-1.237-1.852 1.947-.147.145c-.312.237-.752-.018-.56-.69l.834-4.094-1.136.646a5.152 5.152 0 0 1-.495.182c-.07.021-.139-.023-.185-.067a6.161 6.161 0 0 1-.264-.46L11.997.55 10.85 2.852a6.073 6.073 0 0 1-.264.46c-.046.045-.116.09-.185.068a5.197 5.197 0 0 1-.495-.182L8.77 2.552l.834 4.093c.193.673-.247.928-.559.692L8.9 7.19 7.048 5.245 6.397 6.48c-.092.1-.215.08-.366.059-.087-.013-.169-.044-.258-.05l-1.622-.445.549 1.937c.004.003.144.425.138.419.073.218.06.201.073.282 0 .003 0 .005.002.009-.004-.01-.009-.012-.01.027zm6.325 4.037c-.648-.274-1.4-.19-2.084-.072-.808.14-1.184.242-2.074.54l.05-.221s1.121-.437 2.635-.614c0 0 .87-.11 1.472.157v.21h.001zm0 .98c-.648-.274-1.4-.19-2.084-.071-.808.14-1.387.228-2.303.534l.05-.222s1.351-.431 2.865-.608c0 0 .87-.11 1.472.157v.21zm0 .992c-.648-.274-1.4-.19-2.084-.071-.808.14-1.629.355-2.557.666l.05-.221s1.605-.564 3.119-.74c0 0 .87-.11 1.472.156v.21zm1.515-1.972c.647-.274 1.4-.19 2.083-.071.808.14 1.184.242 2.074.54l-.05-.222s-1.121-.437-2.635-.613c0 0-.87-.11-1.473.156v.21zm0 .98c.647-.275 1.4-.19 2.083-.072.808.14 1.388.23 2.305.534l-.051-.221s-1.351-.431-2.865-.608c0 0-.87-.11-1.472.156v.21zm0 .992c.647-.274 1.4-.19 2.083-.072.808.14 1.63.356 2.558.667l-.05-.221s-1.605-.564-3.12-.741c0 0-.87-.11-1.471.156v.211z" /></svg>
