<svg width="24" height="24" viewbox="0 0 24 24"  xmlns="http://www.w3.org/2000/svg"><path d="M12.8 6.4h-1.6V4.8h1.6v1.6zm6.4 4.8h-1.6v1.6h1.6v-1.6zM8 6.4H6.4V8H8V6.4zm-1.6 4.8H4.8v1.6h1.6v-1.6zM24 2.4l-.8-.8-10.4 8c-.096-.032-1.6 0-1.6 0-.88 0-1.6.72-1.6 1.6v1.6c0 .88.72 1.6 1.6 1.6h1.6c.88 0 1.6-.72 1.6-1.6v-1.472L24 2.4zm-2.544 6.544c.304.976.48 2 .48 3.056 0 5.472-4.448 9.92-9.92 9.92-5.472 0-9.936-4.448-9.936-9.92 0-5.472 4.448-9.92 9.92-9.92 1.92 0 3.696.544 5.232 1.504l1.504-1.504A11.934 11.934 0 0 0 12.016 0C5.376 0 0 5.376 0 12s5.376 12 12 12 12-5.376 12-12c0-1.648-.32-3.232-.944-4.656l-1.6 1.6z"  /></svg>
