<svg width="24" height="24" viewbox="0 0 24 24"  xmlns="http://www.w3.org/2000/svg"><path d="M12.036 24C6.36 24 1.75 22.457 1.75 20.571v-3.428c0-.292.154-.583.36-.857 1.149 1.474 5.143 2.571 9.926 2.571s8.777-1.097 9.925-2.571c.223.274.36.565.36.857v3.428c0 1.886-4.611 3.429-10.285 3.429zm0-6.857C6.36 17.143 1.75 15.6 1.75 13.714v-3.428c0-.189.069-.36.154-.532a1.71 1.71 0 0 1 .206-.325C3.259 10.903 7.253 12 12.036 12s8.777-1.097 9.925-2.571c.086.102.155.222.206.325.086.172.154.36.154.532v3.428c0 1.886-4.611 3.429-10.285 3.429zm0-6.857C6.36 10.286 1.75 8.743 1.75 6.857V3.43C1.75 1.543 6.361 0 12.036 0 17.71 0 22.32 1.543 22.32 3.429v3.428c0 1.886-4.611 3.429-10.285 3.429zm0-8.572c-3.789 0-6.857.772-6.857 1.715 0 .942 3.068 1.714 6.857 1.714 3.788 0 6.857-.772 6.857-1.714 0-.943-3.069-1.715-6.857-1.715z"  /></svg>
