<svg width="24" height="24" viewbox="0 0 24 24"  xmlns="http://www.w3.org/2000/svg"><path d="M22.5 4.5h-12C10.5 3.675 9.825 3 9 3H3c-.825 0-1.5.675-1.5 1.5C.675 4.5 0 5.175 0 6v13.5c0 .825.675 1.5 1.5 1.5h21c.825 0 1.5-.675 1.5-1.5V6c0-.825-.675-1.5-1.5-1.5zM9 7.5H3V6h6v1.5zM15.75 18c-2.91 0-5.25-2.34-5.25-5.25s2.34-5.25 5.25-5.25S21 9.84 21 12.75 18.66 18 15.75 18zm3.75-5.25c0 2.07-1.695 3.75-3.75 3.75-2.055 0-3.75-1.695-3.75-3.75C12 10.695 13.695 9 15.75 9c2.055 0 3.75 1.695 3.75 3.75z"  /></svg>
