<svg width="24" height="24" viewbox="0 0 24 24"  xmlns="http://www.w3.org/2000/svg"><path d="M12.527 21.708c5.097 0 9.23-4.14 9.23-9.248s-4.133-9.248-9.23-9.248c-5.098 0-9.23 4.14-9.23 9.248 0 5.107 4.132 9.248 9.23 9.248zm5.718-9.463c0 1.584-.64 3.014-1.675 4.052a5.695 5.695 0 0 1-4.043 1.677c-1.58 0-3.008-.64-4.043-1.677a5.718 5.718 0 0 1-1.675-4.052c0-1.582.64-3.012 1.675-4.05a5.694 5.694 0 0 1 4.043-1.678c1.58 0 3.007.641 4.043 1.678a5.716 5.716 0 0 1 1.674 4.05h.44c0-3.406-2.756-6.169-6.157-6.17-3.402 0-6.158 2.764-6.158 6.17 0 3.408 2.757 6.17 6.158 6.17 3.4 0 6.157-2.762 6.157-6.17h-.44zM24 21.312h-1.123s.018-7.063.125-7.65c.108-.59.463-.711.463-1.489-.09-.14-.714.06-.714-1.366V4.518C22.75 2.623 24 2 24 2v19.312l-8.286-7.932M2.13 21.563h-.872V8.456S0 8.373 0 7.45c0-.923.126-4.568.126-4.568s.02-.266.135-.251c.116.014.116.251.116.251s-.032 3.386.198 3.4c.23.014.46-3.4.46-3.4s-.041-.245.127-.252c.167-.006.167.252.167.252s0 3.428.251 3.4c.252-.028.318-3.4.318-3.4s.035-.224.143-.252c.108-.027.126.252.126.252s-.02 3.4.293 3.4c.314 0 .317-3.4.317-3.4s-.024-.245.102-.252c.126-.006.13.252.13.252s.481 3.813.125 4.652c-.357.84-1.005.84-1.005.84v13.19" /></svg>
