<svg width="24" height="24" viewbox="0 0 24 24"  xmlns="http://www.w3.org/2000/svg"><path d="M16.522 4.71V0h-7.75a.854.854 0 0 0-.86.856v3.421h4.74l2.576 2.578h3.446c.235 0 .424.188.424.423a.431.431 0 0 1-.424.433h-2.587L17.381 9v3h1.293a.42.42 0 0 1 .424.422.431.431 0 0 1-.424.434h-1.293v6h3.434c.482 0 .87-.387.87-.856V5.133h-4.74a.421.421 0 0 1-.423-.422zM17.381 0v4.277h4.304L17.381 0zm-6.022 9.855V5.133H3.62A.867.867 0 0 0 2.75 6v17.133c0 .48.388.867.87.867h12.043c.471 0 .859-.387.859-.867V10.277h-4.74a.42.42 0 0 1-.423-.421zM13.511 18h-7.75a.43.43 0 0 1-.424-.434.43.43 0 0 1 .424-.433h7.75c.236 0 .424.199.424.433a.431.431 0 0 1-.424.434zm-8.174-3c0-.246.189-.434.424-.434h5.163c.247 0 .435.188.435.434a.424.424 0 0 1-.435.422H5.761A.421.421 0 0 1 5.337 15zm8.598-2.578a.431.431 0 0 1-.424.434h-7.75a.431.431 0 0 1-.424-.434.42.42 0 0 1 .424-.422h7.75c.236 0 .424.188.424.422zm-1.717-3v-4.29l4.304 4.29h-4.304z" /></svg>
