<svg width="24" height="24" viewbox="0 0 24 24"  xmlns="http://www.w3.org/2000/svg"><path d="M20.336 4.593L16.404.66A2.25 2.25 0 0 0 14.814 0H5.25A2.257 2.257 0 0 0 3 2.254V21.75A2.25 2.25 0 0 0 5.25 24h13.497a2.25 2.25 0 0 0 2.25-2.25V6.186a2.26 2.26 0 0 0-.661-1.593zm-1.772 1.41h-3.566V2.438l3.566 3.567zM5.25 21.75V2.254h7.498v4.874c0 .624.502 1.125 1.125 1.125h4.874V21.75H5.25zm9.935-11.247h-1.35a.557.557 0 0 0-.492.295c-.843 1.551-1.04 1.987-1.34 2.704-.652-1.364-.323-.81-1.34-2.704a.564.564 0 0 0-.497-.295H8.81a.562.562 0 0 0-.487.843l2.17 3.656-2.17 3.655a.56.56 0 0 0 .487.844h1.355a.557.557 0 0 0 .492-.295c1.017-1.875 1.078-2.11 1.34-2.705.699 1.416.277.746 1.34 2.705.099.182.291.295.497.295h1.35a.562.562 0 0 0 .488-.844l-2.175-3.655c.033-.052 1.42-2.367 2.17-3.656a.56.56 0 0 0-.483-.843z"  /></svg>
