<svg width="24" height="24" viewbox="0 0 24 24"  xmlns="http://www.w3.org/2000/svg"><path d="M20.336 4.593L16.404.66A2.25 2.25 0 0 0 14.814 0H5.25A2.257 2.257 0 0 0 3 2.254V21.75A2.25 2.25 0 0 0 5.25 24h13.497a2.25 2.25 0 0 0 2.25-2.25V6.186a2.26 2.26 0 0 0-.661-1.593zm-1.772 1.41h-3.566V2.438l3.566 3.567zM5.25 21.75V2.254h7.498v4.874c0 .624.502 1.125 1.125 1.125h4.874V21.75H5.25zm11.725-6.734c-.571-.563-2.202-.408-3.018-.305-.806-.492-1.345-1.171-1.724-2.17.182-.754.473-1.902.253-2.624-.197-1.228-1.772-1.106-1.997-.277-.206.755-.019 1.805.328 3.145-.468 1.12-1.167 2.624-1.659 3.487-.937.483-2.203 1.228-2.39 2.165-.155.74 1.219 2.587 3.567-1.462 1.05-.347 2.193-.773 3.205-.942.886.478 1.922.797 2.615.797 1.195 0 1.312-1.322.82-1.814zm-9.284 3.646c.24-.642 1.148-1.383 1.425-1.64-.89 1.42-1.425 1.673-1.425 1.64zm3.825-8.933c.346 0 .314 1.505.084 1.912-.206-.651-.202-1.912-.084-1.912zm-1.144 6.402c.455-.792.844-1.734 1.158-2.563.389.707.885 1.274 1.41 1.663-.975.202-1.823.614-2.568.9zm6.168-.234s-.235.281-1.749-.366c1.645-.122 1.917.253 1.749.366z"  /></svg>
