<svg width="24" height="24" viewbox="0 0 24 24"  xmlns="http://www.w3.org/2000/svg"><path d="M20.336 4.593L16.404.66A2.25 2.25 0 0 0 14.814 0H5.25A2.257 2.257 0 0 0 3 2.254V21.75A2.25 2.25 0 0 0 5.25 24h13.497a2.25 2.25 0 0 0 2.25-2.25V6.186a2.26 2.26 0 0 0-.661-1.593zm-1.772 1.41h-3.566V2.438l3.566 3.567zM5.25 21.75V2.254h7.498v4.874c0 .624.502 1.125 1.125 1.125h4.874V21.75H5.25zm10.315-9.748a.558.558 0 0 0-.549.446c-.965 4.578-.956 4.47-.984 4.85-.01-.056-.019-.122-.033-.201-.037-.24.014.009-1.106-4.663a.562.562 0 0 0-.548-.432h-.623a.571.571 0 0 0-.549.427c-1.143 4.64-1.124 4.508-1.162 4.86-.005-.052-.01-.117-.023-.197-.033-.244-.661-3.435-.895-4.64a.563.563 0 0 0-.553-.454h-.788a.563.563 0 0 0-.548.693c.375 1.528 1.251 5.132 1.556 6.374.06.253.286.427.548.427h1.181a.556.556 0 0 0 .544-.427l.839-3.346c.07-.29.117-.563.14-.811l.136.81c.005.02.59 2.368.84 3.347.06.248.285.427.543.427h1.157a.556.556 0 0 0 .544-.427c.975-3.838 1.415-5.577 1.617-6.374a.56.56 0 0 0-.544-.698h-.74v.01z"  /></svg>
