<svg width="24" height="24" viewbox="0 0 24 24"  xmlns="http://www.w3.org/2000/svg"><path d="M16.321 0H3.464C2.518 0 1.75.768 1.75 1.714v20.572c0 .946.768 1.714 1.714 1.714h17.143c.947 0 1.714-.768 1.714-1.714V6l-6-6zm4.286 22.286H3.464V1.714h5.143V3.43h1.714V1.714h5.143l5.143 5.143v15.429zM10.321 5.143V3.429h1.715v1.714H10.32zm-1.714 0h1.714v1.714H8.607V5.143zm1.714 3.428V6.857h1.715v1.714H10.32zm-1.714 0h1.714v1.715H8.607V8.57zM10.321 12v-1.714h1.715V12H10.32zm-1.714 2.194a3.429 3.429 0 0 0-1.714 2.949v1.714h6.857v-1.714a3.429 3.429 0 0 0-3.429-3.429V12H8.607v2.194zm3.429 1.235v1.714H8.607v-1.714h3.429z"  /></svg>
