<svg width="24" height="24" viewbox="0 0 24 24"  xmlns="http://www.w3.org/2000/svg"><path d="M8.607 18.857h1.714v1.714H5.18v-1.714h1.714V15.43H5.179v-1.715h3.428v5.143zM22.321 6v16.286A1.72 1.72 0 0 1 20.607 24H3.464a1.72 1.72 0 0 1-1.714-1.714V1.714A1.72 1.72 0 0 1 3.464 0h12.857l6 6zm-1.714.857l-5.143-5.143h-12v20.572h17.143V6.857zm-5.143-1.714h-3.428v1.714h1.714v3.429h-1.714V12h5.143v-1.714h-1.715V5.143zm-10.285 0h5.142V12H5.18V5.143zm1.714 5.143h1.714V6.857H6.893v3.429zm5.143 3.428h5.143v6.857h-5.143v-6.857zm1.714 5.143h1.714V15.43H13.75v3.428z"  /></svg>
