<svg width="24" height="24" viewbox="0 0 24 24"  xmlns="http://www.w3.org/2000/svg"><path d="M10.63.016c1.264 3.386.64 5.274-.811 6.725-1.53 1.639-3.98 2.856-5.665 5.243-2.262 3.2-2.652 10.19 5.509 12.016-3.433-1.81-4.167-7.053-.468-10.315-.952 3.168.827 5.197 3.027 4.463 2.17-.733 3.59.827 3.542 2.606-.03 1.217-.483 2.247-1.763 2.825 5.337-.921 7.459-5.337 7.459-8.677 0-4.431-3.948-5.024-1.95-8.754-2.372.203-3.168 1.764-2.95 4.292.14 1.685-1.592 2.808-2.902 2.075-1.046-.64-1.03-1.857-.094-2.778 1.95-1.92 2.73-6.382-2.934-9.706L10.6 0l.03.016z"  /></svg>
