<svg width="24" height="24" viewbox="0 0 24 24"  xmlns="http://www.w3.org/2000/svg"><path d="M6.563 9.117l7.699-7.7-.598-1.183A.417.417 0 0 0 13.289 0a.406.406 0 0 0-.305.129l-7.71 7.71a.425.425 0 0 0-.13.305c0 .165.094.305.235.375v.012l1.184.586zm8.19-6.973L7.29 9.61l7.102 7.102 7.465-7.465-7.102-7.102zm1.103 16.712a.425.425 0 0 0 .304-.13l7.711-7.71A.407.407 0 0 0 24 10.71a.418.418 0 0 0-.234-.375l-1.184-.598-7.699 7.7.586 1.183h.012c.07.14.21.235.375.235zM2.144 24c.692 0 1.301-.328 1.688-.844l7.828-7.851-3.035-3.024-7.816 7.852.035.035A2.097 2.097 0 0 0 0 21.856C0 23.039.96 24 2.145 24z" /></svg>
