<svg width="24" height="24" viewbox="0 0 24 24"  xmlns="http://www.w3.org/2000/svg"><path d="M24 13.303V10.56l-3.326-1.097-.771-1.869L21.41 4.44l-1.937-1.937-3.103 1.56-1.868-.772L13.32 0h-2.743l-1.08 3.326-1.903.771L4.44 2.59 2.503 4.526l1.56 3.103-.772 1.868L0 10.663v2.726l3.326 1.097.771 1.868L2.59 19.51l1.937 1.937 3.103-1.56 1.868.771 1.183 3.292h2.726l1.08-3.326 1.903-.772 3.154 1.509 1.937-1.937-1.577-3.103.806-1.869L24 13.27v.034zm-12 3.823a5.136 5.136 0 0 1-5.143-5.143A5.136 5.136 0 0 1 12 6.84a5.136 5.136 0 0 1 5.143 5.143A5.136 5.136 0 0 1 12 17.126z"  /></svg>
