<svg width="24" height="24" viewbox="0 0 24 24"  xmlns="http://www.w3.org/2000/svg"><path d="M22.19 5.538h-2.547c.35-.609.61-1.236.665-1.68.11-1.236-.203-2.252-.96-2.972C18.683.185 17.852 0 16.837 0h-.203c-.979.037-2.05.462-2.825 1.07a6.335 6.335 0 0 0-1.79 2.216 5.986 5.986 0 0 0-1.791-2.215C9.452.48 8.382 0 7.403 0h-.055C6.314 0 5.39.166 4.689.886c-.757.72-1.07 1.736-.96 2.972.056.425.314 1.071.665 1.68H1.846C.831 5.538 0 6.37 0 7.385v5.538h1.846v9.23c0 1.016.83 1.847 1.846 1.847h16.616c1.015 0 1.846-.83 1.846-1.846v-9.23H24v-5.54c0-1.015-.83-1.846-1.846-1.846h.037zm-8.824-1.624a4.547 4.547 0 0 1 1.385-1.699c.554-.424 1.329-.72 1.938-.757h.166c.831 0 1.219.204 1.477.462.259.258.61.72.554 1.754-.092.35-.461 1.126-.923 1.846H12.61l.757-1.625v.019zM5.742 1.92c.24-.24.572-.462 1.68-.462.572 0 1.329.314 1.901.757a4.408 4.408 0 0 1 1.385 1.699l.775 1.624H6.13c-.461-.72-.83-1.495-.923-1.846-.055-1.034.296-1.495.554-1.754l-.018-.018zm5.372 20.215H3.729v-9.212h7.385v9.23-.018zm0-11.077h-9.23V7.385h9.23v3.692-.019zm9.23 11.077H12.96v-9.212h7.385v9.23-.018zm1.847-11.077H12.96V7.385h9.23v3.692-.019z"  /></svg>
