<svg width="24" height="24" viewbox="0 0 24 24"  xmlns="http://www.w3.org/2000/svg"><path d="M12 0C5.383 0 0 5.383 0 12s5.383 12 12 12c.823 0 1.611-.086 2.366-.24-.292-.137-.343-1.251-.035-1.869.326-.702 1.389-2.485.343-3.085-1.045-.6-.754-.857-1.388-1.56-.635-.703-.377-.806-.429-.995-.137-.582.617-1.525.669-1.611a1.569 1.569 0 0 0 0-.566c0-.137-.463-.377-.583-.394-.103 0-.189.189-.343.223-.154.034-.857-.429-1.011-.566-.155-.137-.24-.394-.463-.583-.223-.223-.24-.051-.566-.188a59.15 59.15 0 0 0-2.194-.823c-.823-.326-.892-.806-.892-1.132-.034-.342-.514-.805-.72-1.148-.24-.343-.274-.806-.343-.703-.068.103.429 1.337.343 1.389-.085.034-.274-.343-.514-.652-.24-.326.24-.154-.514-1.628-.755-1.475.24-2.229.291-3 .052-.772.652.291.326-.223-.326-.515 0-1.526-.24-1.903-.223-.377-1.509.428-1.509.428.035-.377 1.183-.994 1.989-1.577s1.337-.103 1.988.086c.669.223.703.154.48-.086-.222-.223.103-.291.618-.223.48.086.651.703 1.422.618.806-.052.086.154.189.377.103.223-.103.188-.651.514-.515.343.034.377.942 1.046.909.668.652-.429.532-.943s.668-.103.668-.103c.566.377.463.034.858.137.394.103 1.56 1.097 1.56 1.097-1.423.755-.532.823-.292 1.012.24.188-.48.514-.48.514-.291-.291-.326.034-.514.137-.189.103-.034.377-.034.377-.96.155-.755 1.183-.72 1.423 0 .24-.652.617-.806.994-.154.343.428 1.098.103 1.132-.326.051-.583-1.132-2.246-.703-.514.137-1.611.703-1.011 1.851.617 1.183 1.577-.325 1.902-.154.326.172-.102.909-.034.943.069.034.909.034.96 1.046.052 1.011 1.32.908 1.577.943.292 0 1.2-.755 1.32-.772.103-.051.652-.48 1.766.154 1.131.618 1.68.532 2.057.806s.137.806.48.994c.343.189 1.817-.051 2.194.532.378.583-1.508 3.583-2.091 3.908-.583.326-.823 1.098-1.44 1.578s-1.389 1.097-2.177 1.56c-.703.394-.806 1.131-1.132 1.371 5.383-1.2 9.395-6 9.395-11.726 0-6.617-5.383-12-12-12L12 0zm2.811 11.246c-.154.051-.48.377-1.337-.137-.823-.515-1.388-.395-1.474-.48 0 0-.086-.189.291-.24.755-.086 1.68.702 1.903.702.223 0 .326-.222.703-.085.377.137.086.223-.086.24zM10.87 1.2c-.086-.051.051-.137.154-.24.051-.051.034-.189.086-.24.188-.189 1.045-.429.891.051-.189.463-.994.515-1.131.429zm2.108 1.526c-.326-.035-.994-.086-.891-.24.514-.48-.155-.652-.583-.652-.429-.034-.583-.274-.377-.325.205-.052 1.045.034 1.2.137.137.103.891.428.943.651.034.223 0 .429-.292.429zm2.52-.086c-.24.154-1.423-.703-1.628-.891-.96-.823-1.526-.532-1.715-.703-.188-.172-.137-.326.189-.583.326-.257 1.183.103 1.714.154.514.052 1.132.463 1.132.943.034.429.565.857.325 1.08h-.017z"  /></svg>
