<svg width="24" height="24" viewbox="0 0 24 24"  xmlns="http://www.w3.org/2000/svg"><path d="M11.713 13.858l-5.745-1.785c-6-12 0 2.25 0 3.75s2.7 2.25 6 2.25 6-.75 6-2.25v-3.75l-5.745 1.785a1.095 1.095 0 0 1-.54 0h.03zm.42-9.585a.51.51 0 0 0-.3 0L.373 7.843a.525.525 0 0 0 0 1.005l2.595.825v2.655c-.45.255-.75.75-.75 1.29 0 .285.075.54.21.75-.12.21-.21.465-.21.75v3.87c0 .825 3 .825 3 0v-3.87c0-.285-.075-.54-.21-.75.12-.21.21-.465.21-.75 0-.57-.3-1.035-.75-1.29v-2.175l7.335 2.295c.09.03.21.03.3 0l11.46-3.57a.525.525 0 0 0 0-1.005L12.118 4.288l.015-.015zm-.135 4.8c-.825 0-1.5-.33-1.5-.75s.675-.75 1.5-.75 1.5.33 1.5.75-.675.75-1.5.75z"  /></svg>
