<svg width="24" height="24" viewbox="0 0 24 24"  xmlns="http://www.w3.org/2000/svg"><path d="M10.348 11.779c.53-1.94 1.337-3.518 2.74-4.704.052-.044.106-.087.16-.13v-1.26h1.331a.581.581 0 0 0 .468-.922L11.81.453C11.604.168 11.375 0 11.024 0c-.352 0-.582.168-.789.453L7 4.763a.582.582 0 0 0 .467.922H8.8v4.474a9.035 9.035 0 0 1 1.549 1.62zM23.57 5.454c-10.012.383-11.786 2.992-12.75 9.666C9.665 11.852 7.575 9.231 0 8.058c1.479 5.437 4.027 8.568 8.346 8.568.134 0 .27-.004.408-.01.214-2.201-2.828-3.817-5.153-5.165 5.906 2.092 7.24 3.735 6.152 8.21l-.014.002a1.853 1.853 0 0 0-2.535.616 1.443 1.443 0 0 0-.568-.116c-.712 0-1.303.715-1.43 1.393-.908.634-1.514 1.52-1.514 2.435h14.904c0-.784-.442-1.574-1.136-2.155-.129-.934-.925-1.855-1.89-1.855-.315 0-.611.077-.873.212l-.01-.003a1.545 1.545 0 0 0-1.33-.816c-.598 1.602-1.333 2.77-2.867 3.53.696-.667 1.17-1.453 1.375-2.405.503-2.345-.769-7.132 2.505-9.252 1.535-.993 3.16-1.845 4.752-2.741-4.745 3.866-5.745 4.43-5.538 6.423 3.372-.038 7.154-2.406 9.987-9.475z" /></svg>
