<svg width="24" height="24" viewbox="0 0 24 24"  xmlns="http://www.w3.org/2000/svg"><path d="M23.88 18.118l-2.56-1.264a.264.264 0 0 1-.06-.058c-.02-.027-2.043-2.749-4.942-2.912l-.077-.003c-.972-.04-1.703.154-2.412.342-.535.141-1.04.275-1.61.298-.785.032-1.648.027-2.487.022-1.356-.008-2.757-.017-3.802.138-.626.092-.91.539-.868.932.037.351.366.777 1.168.822.088.005 3.989.231 6.41.534.523.065.972.216 1.304.277a.257.257 0 0 1 .206.3c-.022.119-.122.194-.276.208a3.248 3.248 0 0 1-.436.009c-.302-.017-.484-.088-.66-.155a1.942 1.942 0 0 0-.395-.118c-1.788-.307-6.057-.533-6.186-.54-1.12-.064-1.586-.73-1.645-1.282-.069-.638.357-1.358 1.304-1.497.17-.025.356-.047.565-.066-.397-.315-.939-.758-1.507-1.265-.056-.05-.114-.11-.188-.187-.339-.351-1.043-1.082-1.698-1.12a.819.819 0 0 0-.326.046c-.566-.257-1.168-.426-1.679-.455-.487-.027-.84.078-.965.289-.116.193-.058.492.169.865C2.292 15.7 7.847 20.18 9.38 20.87c.322.144.698.232 1.088.254a3.14 3.14 0 0 0 1.107-.131c.8-.251 4.722-.728 6.125-.65l.103.008c.682.057 1.507.498 1.985.885l.923.376 3.169-3.493zm-13.525-7.014c-1.182-.038-4.428-3.278-4.686-5.39a2.093 2.093 0 0 1 1.378-2.25c.295-.108.607-.162.926-.162.795 0 1.53.337 1.968.903l.414.534.413-.534c.438-.565 1.174-.903 1.968-.903.32 0 .631.054.927.163.971.355 1.385 1.21 1.394 1.961a2.261 2.261 0 0 0-.828.652l-.414.534-.413-.534c-.438-.565-1.174-.903-1.968-.903-.32 0-.63.055-.926.163a2.093 2.093 0 0 0-1.378 2.25c.123 1.003.92 2.261 1.851 3.31-.241.126-.456.2-.626.206zm5.842-5.929c-.035 0-.068.004-.103.006a3.14 3.14 0 0 0-2.073-2.705 3.73 3.73 0 0 0-1.285-.226c-.899 0-1.752.318-2.381.871-.63-.553-1.483-.871-2.382-.871-.441 0-.874.076-1.284.226-1.411.517-2.257 1.906-2.058 3.373.313 2.562 3.964 6.275 5.714 6.307.4-.007.87-.187 1.376-.493.813.767 1.62 1.299 2.095 1.314 1.181-.038 4.427-3.277 4.685-5.382.11-.808-.276-1.854-1.378-2.257a2.68 2.68 0 0 0-.926-.163z"/></svg>
