<svg width="24" height="24" viewbox="0 0 24 24"  xmlns="http://www.w3.org/2000/svg"><path d="M10.8 8.074a1.615 1.615 0 0 1-.48-1.2c0-.48.154-.891.48-1.2.326-.308.72-.48 1.2-.48s.891.155 1.2.48c.309.326.48.72.48 1.2s-.154.892-.48 1.2a1.714 1.714 0 0 1-1.2.515c-.48 0-.891-.189-1.2-.515zm2.914 3.943a1.866 1.866 0 0 0-.531-1.183c-.343-.325-.72-.514-1.183-.531h-1.714c-.463.034-.823.223-1.183.531a1.748 1.748 0 0 0-.532 1.183h1.715v5.143c.034.463.188.857.531 1.183.343.343.72.531 1.183.531h1.714c.463 0 .823-.188 1.183-.531.343-.326.514-.72.532-1.183h-1.715V12v.017zM12 2.263c-5.383 0-9.771 4.354-9.771 9.737S6.617 21.771 12 21.771c5.383 0 9.771-4.371 9.771-9.771S17.383 2.246 12 2.246v.017zM12 0c6.617 0 12 5.383 12 12s-5.383 12-12 12S0 18.651 0 12 5.383 0 12 0z"  /></svg>
