<svg width="24" height="24" viewbox="0 0 24 24"  xmlns="http://www.w3.org/2000/svg"><path d="M22.29 5.343a.922.922 0 0 1-.922.92h-2.762a.921.921 0 0 1-.921-.92V2.579a.92.92 0 0 1 .92-.92h2.763c.51 0 .922.412.922.92v2.764zm-.184 15.735c0 .568-.458 1.028-1.024 1.028h-18.4c-.566 0-1.024-.46-1.024-1.028V9.764h2.315a8.27 8.27 0 0 0-.269 2.057c0 4.545 3.662 8.229 8.178 8.229 4.517 0 8.178-3.684 8.178-8.229 0-.71-.1-1.399-.268-2.057h2.314v11.314zM12.066 5.527a6.539 6.539 0 1 1 0 13.079 6.54 6.54 0 0 1 0-13.08zM21.186 0H2.763A2.763 2.763 0 0 0 0 2.763v18.421a2.763 2.763 0 0 0 2.763 2.764h18.422a2.763 2.763 0 0 0 2.763-2.764V2.764A2.762 2.762 0 0 0 21.185 0z" /></svg>