<svg width="24" height="24" viewbox="0 0 24 24"  xmlns="http://www.w3.org/2000/svg"><path d="M7.5 9l-.75.75v7.5l.75.75h3l.75-.75v-7.5L10.5 9h-3zm2.25 7.5h-1.5v-6h1.5v6zm9.405-10.875c-.33-2.07-.465-3.945-.405-5.625h-4.47c0 .405-.195.72-.585 1.035-.375.3-.945.45-1.695.45-.75 0-1.32-.135-1.695-.45-.345-.3-.54-.63-.54-1.035H5.25c.075 1.695-.045 3.57-.375 5.625-.3 2.07-1.2 3.195-2.625 3.375v13.5c.03.405.165.72.465 1.035.3.315.63.45 1.035.465h16.5c.405-.03.72-.165 1.035-.465.315-.3.45-.63.465-1.035V9c-1.425-.195-2.295-1.32-2.625-3.375h.03zM20.25 22.5H3.75v-12c1.335-.75 2.22-1.875 2.58-3.375.36-1.5.465-3.375.42-5.625h1.5c-.03 1.17.24 2.205.78 3.09.54.87 1.53 1.335 3 1.41 1.47-.03 2.46-.495 3-1.41.54-.885.75-1.92.72-3.09h1.5c.03 2.13.195 3.825.495 5.07.3 1.215 1.035 3 2.505 3.945v12-.015zM13.5 9l-.75.75v7.5l.75.75h3l.75-.75v-7.5L16.5 9h-3zm2.25 7.5h-1.5v-6h1.5v6z"  /></svg>
