<svg width="24" height="24" viewbox="0 0 24 24"  xmlns="http://www.w3.org/2000/svg"><path d="M21.994 3.006C20.71 1.72 19.097 1.05 17.143 1c-1.937.051-3.566.72-4.852 2.006-1.285 1.285-1.937 2.897-1.988 4.851 0 .514.051 1.012.154 1.526L0 19.857v1.714l1.714 1.715h3.429l1.714-1.715v-1.714h1.714v-1.714h1.715v-1.714h3.428l1.869-1.903a5.894 5.894 0 0 0 1.56.188c1.954-.051 3.566-.72 4.851-2.005C23.28 11.423 23.95 9.81 24 7.857c-.051-1.954-.72-3.566-2.006-4.851zm-3.137 5.503a2.349 2.349 0 0 1-2.366-2.366 2.349 2.349 0 0 1 2.366-2.366 2.349 2.349 0 0 1 2.366 2.366 2.349 2.349 0 0 1-2.366 2.366z"  /></svg>
