<svg width="24" height="24" viewbox="0 0 24 24"  xmlns="http://www.w3.org/2000/svg"><path d="M12 5.143A2.568 2.568 0 0 1 9.429 2.57 2.568 2.568 0 0 1 12 0a2.568 2.568 0 0 1 2.571 2.571A2.568 2.568 0 0 1 12 5.143zm12 10.286a3.417 3.417 0 0 1-3.429 3.428h-1.714a3.417 3.417 0 0 1-3.428-3.428l3.428-6.858h-1.714a1.72 1.72 0 0 1-1.714-1.714h-1.715v13.714c.72 0 1.715.772 1.715 1.715h1.714c.72 0 1.714.771 1.714 1.714H5.143c0-.943.994-1.714 1.714-1.714h1.714c0-.943.995-1.715 1.715-1.715h.051l-.051-13.714H8.57a1.72 1.72 0 0 1-1.714 1.714H5.143L8.57 15.43a3.417 3.417 0 0 1-3.428 3.428H3.429A3.417 3.417 0 0 1 0 15.43L3.429 8.57H1.714V6.857h5.143a1.72 1.72 0 0 1 1.714-1.714h6.858a1.72 1.72 0 0 1 1.714 1.714h5.143v1.714H20.57L24 15.43zM4.286 10.286l-2.572 5.143h5.143l-2.571-5.143zm18 5.143l-2.572-5.143-2.571 5.143h5.143z"  /></svg>
