<svg width="24" height="24" viewbox="0 0 24 24"  xmlns="http://www.w3.org/2000/svg"><path d="M20.567 7.715c0 .165.035.317.07.47l-2.274 1.328a1.767 1.767 0 0 0-1.218-.506c-.95 0-1.711.764-1.711 1.715 0 .353.105.67.28.94l-2.905 3.136a1.724 1.724 0 0 0-.809-.21c-.21 0-.41.046-.61.117L8.157 10.11a1.708 1.708 0 0 0-1.3-2.82c-.95.001-1.711.765-1.711 1.716 0 .294.082.564.199.8l-2.696 2.49A1.708 1.708 0 0 0 0 13.73c0 .951.762 1.715 1.71 1.715.95 0 1.724-.764 1.724-1.716 0-.293-.082-.563-.211-.798l2.707-2.49c.27.176.586.281.926.281.21 0 .421-.046.609-.117l3.234 4.604c-.258.294-.41.682-.41 1.105 0 .94.762 1.715 1.711 1.715.95 0 1.71-.776 1.71-1.715 0-.353-.093-.67-.269-.928l2.895-3.149c.246.13.516.2.809.2.949 0 1.71-.763 1.71-1.715 0-.164-.023-.317-.07-.458l2.285-1.339c.305.317.739.505 1.22.505.948 0 1.71-.764 1.71-1.715C24 6.763 23.238 6 22.29 6c-.95 0-1.724.763-1.724 1.715z"  /></svg>
