<svg width="24" height="24" viewbox="0 0 24 24"  xmlns="http://www.w3.org/2000/svg"><path d="M4.8 13.6h1.6v1.6H4.8C2.4 15.2 0 12.496 0 9.6 0 6.704 2.48 4 4.8 4h6.4C13.52 4 16 6.704 16 9.6c0 2.256-1.456 4.352-3.2 5.2v-1.856c.928-.72 1.6-2.032 1.6-3.344 0-2.048-1.632-4-3.2-4H4.8c-1.568 0-3.2 1.952-3.2 4s1.6 4 3.2 4zm14.4-4.8h-1.6v1.6h1.6c1.6 0 3.2 1.952 3.2 4s-1.632 4-3.2 4h-6.4c-1.568 0-3.2-1.952-3.2-4 0-1.328.672-2.624 1.6-3.344V9.2c-1.744.848-3.2 2.944-3.2 5.2 0 2.896 2.48 5.6 4.8 5.6h6.4c2.32 0 4.8-2.704 4.8-5.6 0-2.896-2.4-5.6-4.8-5.6z"  /></svg>
