<svg width="24" height="24" viewbox="0 0 24 24"  xmlns="http://www.w3.org/2000/svg"><path d="M22.571 20.554c0 1.01 0 1.711-1.011 1.711H9.879c-1.012 0-1.012-.703-1.012-1.712 0-1.012 0-1.713 1.012-1.713h11.664c1.011 0 1.011.703 1.011 1.714h.017zM9.88 5.136h11.664c1.011 0 1.011-.703 1.011-1.714 0-1.01 0-1.713-1.011-1.713H9.879c-1.012 0-1.012.703-1.012 1.714 0 1.01 0 1.713 1.012 1.713zm11.664 5.14H9.879c-1.012 0-1.012.702-1.012 1.714 0 1.01 0 1.712 1.012 1.712h11.664c1.011 0 1.011-.703 1.011-1.714 0-1.011 0-1.713-1.011-1.713zM5.443 0H4.207c-.51.326-.99.429-1.762.583v1.131H3.73V5.38h-1.44v1.473h4.864V5.378H5.442V0zm.428 13.925c-.292 0-.772.052-1.132.103.909-.96 1.955-2.141 1.955-3.237-.035-1.337-.96-2.226-2.332-2.226-1.01 0-1.66.342-2.362 1.097l.994.992c.326-.325.652-.651 1.096-.651.48 0 .823.274.823.891 0 .909-1.32 2.056-2.913 3.528v.995h5.14l-.155-1.509H5.854l.017.017zM5.734 20.4v-.051c.754-.326 1.097-.806 1.097-1.473 0-1.2-.96-1.903-2.469-1.903-.82 0-1.522.326-2.19.892l.942 1.097c.429-.343.755-.532 1.181-.532.463 0 .72.223.72.617 0 .463-.342.755-1.474.755v1.284c1.423 0 1.68.291 1.68.805 0 .429-.394.652-.994.652-.48 0-.96-.24-1.389-.652l-.82 1.13c.513.617 1.32.96 2.415.96 1.422 0 2.62-.703 2.62-1.988 0-.858-.53-1.387-1.32-1.61v.017z"  /></svg>
