<svg width="24" height="24" viewbox="0 0 24 24"  xmlns="http://www.w3.org/2000/svg"><path d="M4 22c0 1.18 0 2-1.18 2H1.18C0 24 0 23.18 0 22c0-1.18 0-2 1.18-2H2.8c1.18 0 1.18.82 1.18 2H4zM9.18 4H22.8c1.18 0 1.18-.82 1.18-2 0-1.18 0-2-1.18-2H9.18C8 0 8 .82 8 2c0 1.18 0 2 1.18 2zm-6.36 6H1.18C0 10 0 10.82 0 12c0 1.18 0 2 1.18 2H2.8c1.18 0 1.18-.82 1.18-2 0-1.18 0-2-1.18-2h.02zm0-10H1.18C0 0 0 .82 0 2c0 1.18 0 2 1.18 2H2.8c1.18 0 1.18-.82 1.18-2 0-1.18 0-2-1.18-2h.02zm20 10H9.18C8 10 8 10.82 8 12c0 1.18 0 2 1.18 2H22.8c1.18 0 1.18-.82 1.18-2 0-1.18 0-2-1.18-2h.02zm0 10H9.18C8 20 8 20.82 8 22c0 1.18 0 2 1.18 2H22.8c1.18 0 1.18-.82 1.18-2 0-1.18 0-2-1.18-2h.02z"  /></svg>
