<svg width="24" height="24" viewbox="0 0 24 24"  xmlns="http://www.w3.org/2000/svg"><path d="M0 6.976v16.6c0 .13.096.191.214.134l6.83-3.302h.001l.214-.103V3.333L.215 6.637A.41.41 0 0 0 0 6.976zm8.348 13.33l7.125 3.508V6.738L8.348 3.334v16.973zm11.437-7.996l-.678-.687a24.1 24.1 0 0 1-2.552-3.117v15.308l7.045-3.406a.416.416 0 0 0 .214-.341V7.209c-1.18 2.176-3.051 4.112-3.35 4.415l-.68.686zm-1.188-8.258a1.19 1.19 0 1 1 2.381 0 1.19 1.19 0 0 1-2.381 0zm4.838 1.749c.254-.53.4-1.122.4-1.749l-.002-.051c.002-.18.007-.194-.004-.085A4.047 4.047 0 0 0 19.788 0a4.05 4.05 0 0 0-4.048 4.052v.023c0 .1.006.2.016.302.04.499.17.97.373 1.402 1.014 2.492 3.657 5.175 3.657 5.175s2.63-2.663 3.65-5.153z" /></svg>
