<svg viewBox="0 0 24 24" xmlns="http://www.w3.org/2000/svg" xmlns:xlink="http://www.w3.org/1999/xlink"><mask id="a" fill="#fff"><path d="m21.4962049 13.3391805-1.1999453-.5979919c.1096004-.5830892.1669473-1.1848539.1669473-1.8000121 0-5.32325966-4.2910162-9.63861058-9.5840933-9.63861058-5.29307709 0-9.58390468 4.31535092-9.58390468 9.63861058 0 5.3232596 4.29082759 9.6386105 9.58390468 9.6386105 4.1391602 0 7.665426-2.6388986 9.006286-6.3349412l.9850832 1.0326207c-1.6696613 3.8856268-5.5147303 6.6048864-9.9913692 6.6048864-6.00840366 0-10.8791136-4.8984401-10.8791136-10.9411764 0-6.04273634 4.87070994-10.9411765 10.8791136-10.9411765 6.0084036 0 10.8791136 4.89844016 10.8791136 10.9411765 0 .8237951-.090359 1.6262738-.2620223 2.398004z" fill="#fff" fill-rule="evenodd"/></mask><mask id="b" fill="#fff"><path d="m2.75258824 2.59764706c-.11982353.12762353-.31552942.128-.43570589 0l-2.22811764-2.36592941c-.11982353-.12762353-.06864706-.23171765.11523529-.23171765h4.23652941.23152941c.18494118 0 .26629412.10352941.14594118.23171765-1.29705882 1.49232941-1.98547059 2.28084706-2.06541176 2.36592941z" fill="#fff" fill-rule="evenodd"/></mask><mask id="c" fill="#fff"><path d="m1.951125 6.3057754c-.787125 0-1.3816875-.34074866-1.7836875-.8179893l.402-.44316578c.35175.40909091.778875.67321925 1.3816875.67321925.6616875 0 1.189125-.46877005 1.189125-1.19300535v-.02560427c0-.76697327-.6448125-1.15893048-1.5575625-1.15893048h-.2176875l-.0920625-.40042781 1.6245-2.10494118h-2.4871875v-.58793583h3.2911875v.47724064l-1.641375 2.10474867c.9043125.1022246 1.71675.59659893 1.71675 1.64464171v.02560428c0 1.08231016-.8124375 1.80654545-1.8256875 1.80654545zm3.8173125 0c-.5274375 0-.9714375-.18750802-1.289625-.51131551-.4269375-.44316577-.6781875-1.06517647-.6781875-2.32633155v-.06814973c0-1.9771123.8289375-3.24673797 2.1688125-3.24673797.561 0 .988125.19597861 1.41525.53691979l-.334875.51112299c-.318375-.27259893-.6616875-.46010695-1.1055-.46010695-.9714375 0-1.5073125 1.09078075-1.51575 2.54791444.3099375-.50265241.7955625-.80951872 1.4236875-.80951872.9463125 0 1.767.66474867 1.767 1.82367915v.01694117c0 1.15893048-.8124375 1.98558289-1.8508125 1.98558289zm.0084375-.57099465c.736875 0 1.2058125-.61354011 1.2058125-1.38898396v-.01694118c0-.78410695-.5025-1.29542245-1.21425-1.29542245-.7284375 0-1.247625.56252406-1.247625 1.30389304v.01694118c0 .78410695.5023125 1.38051337 1.2560625 1.38051337zm3.959625.57099465c-1.3063125 0-2.1185625-1.2442139-2.1185625-3.03362567v-.06814973c0-1.78960428.8289375-3.05075936 2.127-3.05075936 1.297875 0 2.1185625 1.24421391 2.1185625 3.03362567v.06814973c0 1.78960428-.8289375 3.05075936-2.127 3.05075936zm.0084375-.57946524c.8960625 0 1.47375-1.02263102 1.47375-2.45416043v-.06814973c0-1.43172193-.5945625-2.47129412-1.4821875-2.47129412-.8960625 0-1.47375 1.02263102-1.47375 2.45416043v.06814973c0 1.43172193.586125 2.47129412 1.4821875 2.47129412z" fill="#fff" fill-rule="evenodd"/></mask><g fill="#000" fill-rule="evenodd"><path d="m0 21.8823529h21.776714v-21.88989854h-21.776714z" mask="url(#a)" transform="translate(0 1)"/><path d="m.02823529 2.69552941h4.84941177v-2.71058823h-4.84941177z" mask="url(#b)" transform="translate(19.058824 12.294118)"/><path d="m.15 6.3144385h11.7225v-6.16812834h-11.7225z" mask="url(#c)" transform="translate(4.941176 8.764706)"/></g></svg>
