<svg width="128" height="128" viewBox="0 0 128 128" xmlns="http://www.w3.org/2000/svg"><path d="M64.46 128c36.62-33.212 53.897-76.17 54.456-119.942C102.432 10.738 83.56 8.213 64.46 0 45.354 8.213 26.483 10.74 10 8.058 10.558 51.83 27.836 94.788 64.46 128zM30.042 36.78c0-2.466.856-4.732 2.282-6.528l7.156 2.96-4.773.885a6.395 6.395 0 0 0-.592 2.684 6.48 6.48 0 0 0 6.486 6.475 6.455 6.455 0 0 0 4.443-1.767l3.974 1.643a10.535 10.535 0 0 1-8.414 4.19c-5.83 0-10.562-4.718-10.562-10.54zm8.518 25.1c11.917-5.08 21.163-12.825 25.9-22.21v41.12c4.776-8.373 14.19-15.25 25.898-18.91-13.84 5.847-24.946 25.76-25.898 45.253-.955-19.492-12.06-39.406-25.9-45.254z"/></svg>
