<svg width="24" height="24" viewbox="0 0 24 24"  xmlns="http://www.w3.org/2000/svg"><path d="M15 1.75c-.255 0-.54.075-.78.21-2.16 1.32-7.47 5.16-9.72 5.79C2.43 7.75 0 8.755 0 11.5s2.445 3.75 4.5 3.75c.45.12.96.345 1.5.615v6.885h3v-5.175c2.01 1.29 4.035 2.745 5.22 3.465.24.135.51.21.78.21.78 0 1.5-.63 1.5-1.5V3.25c0-.87-.72-1.5-1.5-1.5zm0 18c-.57-.345-1.335-.87-2.25-1.5-.24-.165-.495-.33-.75-.51V5.215c.24-.165.465-.3.705-.465A84.955 84.955 0 0 1 15 3.25v16.5zm3-9h6v1.5h-6v-1.5zm0 3l6 3v1.5l-6-3v-1.5zm6-9v1.5l-6 3v-1.5l6-3z"  /></svg>
