<svg width="24" height="24" viewbox="0 0 24 24"  xmlns="http://www.w3.org/2000/svg"><path d="M11.278 24c2 0 4.032-.496 5.696-1.504l-.672-1.504c-1.344.832-3.024 1.328-4.848 1.328-5.168 0-9.024-3.328-9.024-9.152C2.43 6.176 7.598 1.68 12.958 1.68c5.52 0 8.352 3.504 8.352 8.32 0 3.824-2.144 6.176-4 6.176-1.68 0-2.176-1.168-1.68-3.504l1.168-6h-1.68l-.176 1.152c-.656-1.008-1.504-1.328-2.496-1.328-3.504 0-5.856 3.824-5.856 7.008 0 2.672 1.504 4.176 3.68 4.176 1.344 0 2.672-.848 3.68-2 .176 1.504 1.504 2.32 3.168 2.32 2.672 0 6.032-2.672 6.032-8 0-5.824-3.856-10-9.872-10C6.606 0 .75 5.328.75 13.328.75 20.336 5.422 24 11.278 24zm-.496-8c-1.168 0-2.176-.832-2.176-2.672 0-2.32 1.504-5.152 3.856-5.152.832 0 1.344.32 2 1.328l-.832 4.832c-1.008 1.168-2 1.68-2.848 1.68V16z"  /></svg>
