<svg width="24" height="24" viewbox="0 0 24 24"  xmlns="http://www.w3.org/2000/svg"><path d="M23.567 19.622a.435.435 0 0 0 .433-.439.334.334 0 0 0-.07-.214l.012-.011-5.145-8.671h-.012a.418.418 0 0 0-.351-.214.413.413 0 0 0-.293.119l-.012.012-2.098 2.194.012.012a.435.435 0 0 0-.105.273c0 .083.023.154.07.213l-.012.012 3.785 6.5c.07.12.211.214.364.214h3.422zM11.295 7.52l6.646 11.449h-.011c.047.059.07.13.07.213a.435.435 0 0 1-.434.439H.434A.435.435 0 0 1 0 19.183c0-.083.023-.154.07-.214H.058L8.626 4.214l.012.011C8.707 4.095 8.847 4 9 4c.152 0 .293.095.363.225l.012-.011 1.747 3.009V4.587h.195v.191c.166.077.463.178.976.178.98 0 1.17.364 1.17.364v1.284s-.191-.18-1.17-.18c-.512 0-.81-.1-.975-.198v1.295h-.023zm-.889 3.122a.423.423 0 0 1 .305-.13c.082 0 .152.023.21.059l1.712.96L9 5.293l-3.621 6.24 1.7-.962a.401.401 0 0 1 .21-.059c.117 0 .223.048.305.13L9 12.067l1.406-1.423z" /></svg>
