<svg width="24" height="24" viewbox="0 0 24 24"  xmlns="http://www.w3.org/2000/svg"><path d="M23.104 3a.86.86 0 0 1 .854.855v17.132a.86.86 0 0 1-.854.854H2.562A2.562 2.562 0 0 1 0 19.277V7.286c0-.48.386-.855.854-.855h1.708v12.413c0 .234.199.433.433.433a.44.44 0 0 0 .433-.433V3.854c0-.468.374-.854.853-.854h18.823zM5.99 5.998v7.705c0 .234.187.433.432.433h5.99a.43.43 0 0 0 .42-.433V5.998a.43.43 0 0 0-.42-.434h-5.99c-.245 0-.432.2-.432.434zm14.973.433a.44.44 0 0 0 .433-.433.44.44 0 0 0-.433-.434h-5.99a.44.44 0 0 0-.432.434c0 .234.199.433.433.433h5.99zm-8.984 0v6.85H6.843v-6.85h5.136zm8.984 2.565a.432.432 0 0 0 .433-.434.43.43 0 0 0-.433-.421h-5.99a.43.43 0 0 0-.432.421c0 .246.199.434.433.434h5.99zm0 2.564a.43.43 0 0 0 .433-.421.44.44 0 0 0-.433-.434h-5.99a.44.44 0 0 0-.432.434c0 .234.199.421.433.421h5.99zm0 2.576a.44.44 0 0 0 .433-.433.43.43 0 0 0-.433-.422h-5.99a.43.43 0 0 0-.432.422c0 .234.199.433.433.433h5.99zm0 2.565a.43.43 0 0 0 .433-.422c0-.246-.199-.433-.433-.433H6.423a.425.425 0 0 0-.433.433c0 .235.187.422.432.422h14.541zm0 2.576a.44.44 0 0 0 .433-.433.43.43 0 0 0-.433-.422H6.423a.422.422 0 0 0-.433.422c0 .234.187.433.432.433h14.541z" /></svg>
