<svg width="24" height="24" viewbox="0 0 24 24"  xmlns="http://www.w3.org/2000/svg"><path d="M9 6.856h6a.43.43 0 0 0 .434-.422v-6c0-.246-.2-.434-.434-.434H9a.433.433 0 0 0-.434.433v6c0 .235.2.422.434.422zM3.855 12h7.711v4.29h.868V12h7.71v4.29H21v-4.724a.423.423 0 0 0-.434-.422h-8.132V7.711h-.867v3.434H3.434a.423.423 0 0 0-.434.422v4.722h.856V12zm2.579 5.145h-6a.423.423 0 0 0-.434.422v6c0 .245.188.433.433.433h6a.423.423 0 0 0 .422-.434v-6a.42.42 0 0 0-.421-.422zm17.133 0h-6a.42.42 0 0 0-.422.422v6c0 .245.187.433.422.433h6a.425.425 0 0 0 .433-.434v-6a.423.423 0 0 0-.434-.422zm-8.567 0H9a.43.43 0 0 0-.434.422v6c0 .245.2.433.434.433h6a.433.433 0 0 0 .434-.434v-6a.43.43 0 0 0-.434-.422z" /></svg>
