<svg width="24" height="24" viewbox="0 0 24 24"  xmlns="http://www.w3.org/2000/svg"><path d="M24 20.248c0 .659-.675 1.5-1.5 1.5H11.992c-.808 0-1.49-.67-1.492-1.498h-9c-.81 0-1.5-.841-1.5-1.5 0-3.951 4.5-6 4.5-6s.343-.614 0-1.5c-1.261-.931-1.587-.885-1.5-4.5.087-3.628 2.05-4.5 3.75-4.5 1.7 0 3.663.87 3.75 4.5.087 3.615-.239 3.569-1.5 4.5-.344.885 0 1.5 0 1.5s2.323 1.066 3.63 3.132c1.164-1.079 2.37-1.633 2.37-1.633s.344-.614 0-1.5c-1.261-.93-1.587-.886-1.5-4.5.087-3.629 2.05-4.5 3.75-4.5 1.7 0 3.655.871 3.742 4.5.089 3.614-.236 3.57-1.5 4.5-.343.884 0 1.5 0 1.5s4.508 2.048 4.508 6z"  /></svg>
