<svg width="24" height="24" viewbox="0 0 24 24"  xmlns="http://www.w3.org/2000/svg"><path d="M22.855 12.52c-.711-9.241-2.312-11.455-10.86-11.455-8.546 0-10.147 2.214-10.858 11.455-.583 7.575.285 11.455 10.859 11.455s11.44-3.88 10.859-11.455zM16.44 10.86a3.849 3.849 0 0 1-2.785-1.19l-1.69 4.293-1.653-4.197a3.848 3.848 0 0 1-2.69 1.094 3.865 3.865 0 0 1 0-7.73 3.863 3.863 0 0 1 3.599 5.265h1.62a3.862 3.862 0 1 1 7.463-1.402 3.866 3.866 0 0 1-3.864 3.867zM7.621 6.092a1.624 1.624 0 1 0 0 3.248 1.624 1.624 0 0 0 0-3.247m8.818 0a1.62 1.62 0 0 0-1.62 1.623 1.623 1.623 0 1 0 1.62-1.623m5.646-5.84c-2.874 1.507-6.341.55-10.09.55-3.748 0-7.214.957-10.09-.55-.768-.404-.943-.367-.682.424.731 2.22 3.734 2.759 6.007 3.54 1.745.598 4.045 2.04 4.766 2.04.72 0 3.02-1.442 4.765-2.04 2.273-.781 5.275-1.32 6.007-3.54.26-.79.085-.827-.683-.424"  /></svg>
