<svg width="24" height="24" viewbox="0 0 24 24"  xmlns="http://www.w3.org/2000/svg"><path d="M0 6.122v11.952c0 .72.48 1.344 1.2 1.552l10.4 2.768c.256.08.544.08.8 0l10.4-2.768c.72-.208 1.2-.832 1.2-1.552V6.122c0-.72-.48-1.344-1.2-1.552L12.4 1.786a2.24 2.24 0 0 0-.8 0L1.2 4.57C.48 4.778 0 5.402 0 6.122zm11.2 14.544l-9.6-2.544V7.29l9.6 2.576v10.8zM1.6 5.69l4-1.072L16 7.386l-4 1.072L1.6 5.69zm20.8 12.432l-9.6 2.544v-10.8l3.2-.88v3.904l3.2-.848V8.138l3.2-.848v10.832zM19.2 6.538L8.8 3.77l3.2-.848L22.4 5.69l-3.2.848z"  /></svg>
