<svg width="24" height="24" viewbox="0 0 24 24"  xmlns="http://www.w3.org/2000/svg"><path d="M11.6 0C6.304 0 2 4.304 2 9.6v1.6c0 .88.72 1.6 1.6 1.6v8c0 1.76 3.584 3.2 8 3.2s8-1.44 8-3.2v-8c.88 0 1.6-.72 1.6-1.6V9.6c0-5.296-4.304-9.6-9.6-9.6zm4.8 16v.8c0 .448-.352.8-.8.8a.792.792 0 0 1-.8-.8V16c0-.448-.352-.8-.8-.8-.448 0-.8.352-.8.8v4c0 .448-.352.8-.8.8a.792.792 0 0 1-.8-.8v-3.2c0-.448-.352-.8-.8-.8-.448 0-.8.352-.8.8v.8c0 .88-.72 1.6-1.6 1.6-.88 0-1.6-.72-1.6-1.6V16c-.88 0-1.6-.72-1.6-1.6v-2.88c1.456.784 3.776 1.28 6.4 1.28 2.624 0 4.944-.496 6.4-1.28v2.88c0 .88-.72 1.6-1.6 1.6zm-4.8-4.8c-2.688 0-4.992-.656-5.936-1.6C6.608 8.656 8.912 8 11.6 8c2.688 0 4.992.656 5.936 1.6-.944.944-3.248 1.6-5.936 1.6zm0-4.8c-4.416 0-8 1.424-8 3.2 0-4.416 3.584-8 8-8s8 3.584 8 8c0-1.76-3.584-3.2-8-3.2z"  /></svg>
