<svg width="24" height="24" viewbox="0 0 24 24"  xmlns="http://www.w3.org/2000/svg"><path d="M18.352 14.112a.278.278 0 0 1-.278.278h-1.753a.277.277 0 0 1-.277-.278v-.887c0-.153.124-.278.277-.278h1.753c.153 0 .277.125.277.278v.887zM6.706 10.171c-.179 0-.323-.125-.323-.278l.785-2.978c0-.154.125-.278.278-.278h9.108c.154 0 .278.124.278.278l.785 2.978c0 .153-.144.277-.322.277H6.705zm1.25 3.941a.278.278 0 0 1-.277.278H5.926a.277.277 0 0 1-.277-.278v-.887c0-.153.124-.278.277-.278h1.752c.154 0 .278.125.278.278v.887zm10.706-3.984l-.918-3.24c0-.767-.993-1.244-1.76-1.244H8.017c-.767 0-1.76.477-1.76 1.244l-.918 3.24c-.668 0-.838.672-.838 1.323v4.211c0 .627.5.739 1.132.747v1.67c0 .153.124.277.277.277h1.212a.277.277 0 0 0 .278-.277v-1.67H16.6v1.67c0 .153.124.277.278.277h1.211a.277.277 0 0 0 .278-.277v-1.67c.632-.008 1.132-.12 1.132-.747v-4.21c0-.652-.17-1.325-.838-1.325zM14.9 8.418a.76.76 0 1 0 0-1.52.76.76 0 0 0 0 1.52m0 .205c-.794 0-1.456.566-1.605 1.316h3.21A1.638 1.638 0 0 0 14.9 8.623M12 1.1C5.99 1.1 1.1 5.99 1.1 12c0 6.01 4.89 10.9 10.9 10.9 6.01 0 10.9-4.89 10.9-10.9 0-6.01-4.89-10.9-10.9-10.9zM12 24a11.92 11.92 0 0 1-8.485-3.515A11.921 11.921 0 0 1 0 12c0-3.205 1.248-6.219 3.515-8.485A11.921 11.921 0 0 1 12 0c3.205 0 6.219 1.248 8.485 3.515A11.92 11.92 0 0 1 24 12a11.92 11.92 0 0 1-3.515 8.485A11.92 11.92 0 0 1 12 24z" /></svg>
