<svg width="24" height="24" viewbox="0 0 24 24"  xmlns="http://www.w3.org/2000/svg"><path d="M11.854 24c5.543 0 10.271-3.494 12.1-8.4h-.515c-.195 0-.39-1.794-.39-1.794h-.39l-.195 1.209h-.663v-2.028L21.1 11.7l-.818 1.17.039 1.303h-4.874V9.694h.37v-.147h-.297V8.12l-.245-1.082-.296 1.082V6.151l-.836-4.502h-.197V1.29h.175V.98h-.175V0h-.123v.979h-.404v.312h.404v.382h-.148c-.098 1.55-.984 4.527-.984 4.527V7.85l-.345-.985-.246 1.107v1.65h-.369v.144h.338v5.143h-.985l-1.575-2.19V11.29h.099L8.106 7.747v-.998h.243v-.312h-.243V5.016l-.099-.099v1.52h-.359v.311h.36v.753c0 1.009-1.354 3.838-1.354 3.838 0 1.452-.418 1.797-.418 1.797v-.517h-.419v.96l-.837 1.796h-.369v-.738l-.467-2.215-.59 2.117v1.599c-.32.098-.517-2.14-.517-2.14h-.37c.074.737-.418 2.189-.418 2.189H.75v-1.058H.255v1.083H0C1.982 20.794 6.543 24 11.854 24" /></svg>
