<svg width="24" height="24" viewbox="0 0 24 24" xmlns="http://www.w3.org/2000/svg"><path d="M11.085.08C7.123.523 3.173 3.724 3.01 8.296c-.103 2.793.692 4.888 3.352 5.477 1.154-2.034-.372-2.482-.61-3.956-.976-6.03 6.968-10.145 11.126-5.933 2.877 2.916.983 11.885-3.657 10.954-4.445-.892 2.176-8.032-1.372-9.433C8.964 4.265 7.433 8.89 8.8 11.186c-.802 3.951-2.529 7.673-1.83 12.628 2.267-1.642 3.032-4.785 3.658-8.063 1.14.69 1.749 1.408 3.201 1.521 5.358.414 8.351-5.339 7.62-10.65C20.8 1.916 16.098-.48 11.086.08" /></svg>