<svg width="24" height="24" viewbox="0 0 24 24"  xmlns="http://www.w3.org/2000/svg"><path d="M10.286 15.429h3.428v3.428h-3.428V15.43zm6.857-6c0 3.668-3.429 4.285-3.429 4.285h-3.428A1.72 1.72 0 0 1 12 12h.857c.48 0 .857-.377.857-.857V9.429a.849.849 0 0 0-.857-.858h-1.714a.849.849 0 0 0-.857.858v.857H6.857c0-2.572 2.572-5.143 5.143-5.143 2.571 0 5.143 1.714 5.143 4.286zM12 2.229c5.383 0 9.771 4.388 9.771 9.771 0 5.383-4.388 9.771-9.771 9.771A9.789 9.789 0 0 1 2.229 12c0-5.383 4.388-9.771 9.771-9.771zM12 0C5.383 0 0 5.383 0 12s5.383 12 12 12 12-5.383 12-12S18.617 0 12 0z"  /></svg>
