<svg width="24" height="24" viewbox="0 0 24 24"  xmlns="http://www.w3.org/2000/svg"><path d="M11.226 3.853c-4.429 2.843-6.58 5.777-6.58 10.679.292-.091.548-.091.803-.091 2.314 0 4.556 1.567 4.556 4.392 0 2.934-1.877 4.756-4.556 4.756-3.463 0-5.449-2.77-5.449-7.745C0 8.919 3.19 3.944 9.148.5l2.078 3.353zm12.756 0c-4.428 2.843-6.579 5.777-6.579 10.679.292-.091.547-.091.802-.091 2.314 0 4.556 1.567 4.556 4.392 0 2.934-1.877 4.756-4.556 4.756-3.444 0-5.43-2.77-5.43-7.745 0-6.925 3.189-11.9 9.148-15.344L24 3.853h-.018z"  /></svg>
