<svg width="24" height="24" viewbox="0 0 24 24"  xmlns="http://www.w3.org/2000/svg"><path d="M7.17 9.67a.987.987 0 0 0 0-1.38 2.557 2.557 0 0 1-.72-1.784c0-.645.24-1.29.72-1.785a.987.987 0 0 0 0-1.38.92.92 0 0 0-.675-.285.92.92 0 0 0-.675.285 4.508 4.508 0 0 0-1.275 3.165c0 1.14.435 2.295 1.275 3.165a.95.95 0 0 0 1.35 0zM3.48 1.287a.977.977 0 0 0-1.38 0A7.481 7.481 0 0 0 0 6.49c0 1.89.705 3.78 2.1 5.22.375.39.99.39 1.365 0s.375-1.02 0-1.41a5.453 5.453 0 0 1-1.53-3.81c0-1.38.51-2.76 1.53-3.81a.99.99 0 0 0 .015-1.395zm8.535 7.65a2.43 2.43 0 1 0-2.43-2.43c-.015 1.335 1.08 2.43 2.43 2.43zM21.87 1.3a.942.942 0 0 0-1.365 0 1.024 1.024 0 0 0 0 1.41 5.453 5.453 0 0 1 1.53 3.81 5.48 5.48 0 0 1-1.53 3.81 1.024 1.024 0 0 0 0 1.41c.381.38.999.38 1.38 0a7.49 7.49 0 0 0 2.1-5.22A7.572 7.572 0 0 0 21.87 1.3zm-9.855 9.585c-.615 0-1.245-.15-1.8-.45L5.49 22.99h2.235l1.29-1.5h6l1.26 1.5h2.235L13.8 10.436c-.57.3-1.17.45-1.785.45zm-.015.72l1.515 5.4h-3l1.485-5.4zM9.015 19.99l1.5-1.5h3l1.5 1.5h-6zM16.8 3.34a.987.987 0 0 0 0 1.38c.48.495.72 1.14.72 1.785s-.24 1.29-.72 1.785a.987.987 0 0 0 0 1.38.945.945 0 0 0 1.35 0 4.508 4.508 0 0 0 1.275-3.165c0-1.14-.42-2.295-1.275-3.165a.951.951 0 0 0-1.35 0z"  /></svg>
