<svg width="24" height="24" viewbox="0 0 24 24"  xmlns="http://www.w3.org/2000/svg"><path d="M20.89 0c.47 0 .857.375.857.856v22.277c0 .48-.387.867-.856.867h-6.868v-8.578H9.725V24H2.857A.864.864 0 0 1 2 23.133V.855C2 .375 2.387 0 2.857 0H20.89zm-1.714 6V2.566H14.88V6h4.297zM8.868 6V2.566H4.571V6h4.297zm5.155 0V2.566H9.725V6h4.298zM8.01 3.422v1.71H5.428v-1.71h2.583zm5.154 0v1.71h-2.583v-1.71h2.583zm5.154 0v1.71h-2.583v-1.71h2.583zm-4.296 6.855V6.856H9.725v3.421h4.298zm5.153 0V6.856H14.88v3.421h4.297zm-10.308 0V6.856H4.571v3.421h4.297zm4.297-2.566v1.71h-2.583v-1.71h2.583zm-5.154 0v1.71H5.428v-1.71h2.583zm10.308 0v1.71h-2.583v-1.71h2.583zm-4.296 6.855v-3.433H9.725v3.433h4.298zm5.153 0v-3.433H14.88v3.433h4.297zm-10.308 0v-3.433H4.571v3.433h4.297zM8.011 12v1.71H5.428V12h2.583zm5.154 0v1.71h-2.583V12h2.583zm5.154 0v1.71h-2.583V12h2.583zm.857 6.856v-3.434H14.88v3.434h4.297zm-10.308 0v-3.434H4.571v3.434h4.297zm-.857-2.579V18H5.428v-1.723h2.583zm10.308 0V18h-2.583v-1.723h2.583zM10.582 24v-7.723h2.583V24h-2.583z" /></svg>
