<svg width="24" height="24" viewbox="0 0 24 24"  xmlns="http://www.w3.org/2000/svg"><path d="M16.053 1.077c.812.468.428 1.088 1.14 1.8s1.332.328 1.801 1.14c.485.84-.194 1.176.065 2.135.259.96 1.012.92 1.012 1.883 0 .971-.758.92-1.012 1.88-.254.96.416 1.304-.065 2.138-.483.836-1.114.422-1.818 1.122-.704.702-.282 1.333-1.123 1.819-.84.485-1.175-.195-2.136.065-.958.26-.919 1.011-1.881 1.011-.937 0-.915-.728-1.89-.988-.97-.259-1.319.379-2.128-.088-.843-.487-.418-1.117-1.124-1.819-.703-.699-1.335-.287-1.817-1.123-.466-.807.17-1.158-.09-2.13S4 8.973 4 8.036s.728-.916.988-1.889c.259-.97-.378-1.32.089-2.129.468-.81 1.088-.429 1.8-1.14.713-.712.328-1.331 1.14-1.8.81-.468 1.159.17 2.13-.09.972-.259.952-.987 1.888-.987.937 0 .916.728 1.888.988.972.26 1.32-.379 2.13.089zm-4.018 1.02c3.28 0 5.94 2.71 5.94 6.055 0 3.344-2.66 6.055-5.94 6.055-3.28 0-5.939-2.711-5.939-6.055s2.66-6.056 5.94-6.056zm.117.465a5.59 5.59 0 1 0 0 11.179 5.59 5.59 0 0 0 0-11.18zm4.192 13.072v8.144c0 .107-.111.261-.196.195l-3.868-3.047-3.892 3.047c-.085.066-.196-.088-.196-.195v-8.145c.292.127.588.17.922.124.426-.059.68-.206 1.125-.088.446.118.59.37.929.633.331.256.68.366 1.1.366a1.7 1.7 0 0 0 1.14-.395c.316-.259.461-.514.883-.628.42-.112.668.035 1.068.104.357.062.672.022.985-.115z" /></svg>
