<svg width="24" height="24" viewbox="0 0 24 24"  xmlns="http://www.w3.org/2000/svg"><path d="M23.871 5.695l-3-3a.389.389 0 0 0-.305-.129H13.29V1.278C13.29.574 12.715 0 12 0c-.714 0-1.288.574-1.288 1.277v1.29H5.144a.853.853 0 0 0-.855.855v5.144c0 .47.375.856.856.856h5.566v1.71H3.433a.432.432 0 0 0-.304.13l-3 3a.425.425 0 0 0 0 .609l3 3c.07.07.176.129.305.129h7.277v6h2.578v-6h5.566c.48 0 .856-.387.856-.867V12a.855.855 0 0 0-.856-.867H13.29V9.422h7.278a.388.388 0 0 0 .304-.13l3-3A.38.38 0 0 0 24 6a.388.388 0 0 0-.129-.305z" /></svg>
