<svg width="24" height="24" viewbox="0 0 24 24"  xmlns="http://www.w3.org/2000/svg"><path d="M18.255 5.745a4.743 4.743 0 0 1-.945-1.32 5.74 5.74 0 0 1-.51-1.53c-.87.495-1.74 1.05-2.595 1.695-.87.66-1.71 1.41-2.535 2.22C10.62 7.86 9.675 9.525 9 10.485H4.5L0 15h4.5l3-3c-.51 1.155-1.53 4.47-1.5 4.5L7.5 18c.03.03 3.345-.96 4.5-1.5l-3 3V24l4.5-4.5V15c.96-.675 2.625-1.635 3.675-2.67a22.686 22.686 0 0 0 2.205-2.55c.66-.87 1.215-1.74 1.71-2.58a7.774 7.774 0 0 1-1.545-.51 5.085 5.085 0 0 1-1.29-.945zM24 0s-.135.57-.45 1.59c-.3 1.05-.825 2.37-1.59 3.99-1.05-.12-1.905-.495-2.49-1.08-.585-.585-.945-1.41-1.05-2.46 1.62-.78 2.925-1.32 3.96-1.62C23.43.12 24 0 24 0z"  /></svg>
