<svg width="24" height="24" viewbox="0 0 24 24"  xmlns="http://www.w3.org/2000/svg"><path d="M3.429 5.143H0V3.429h3.429V0h1.714v3.429c0 .937-.777 1.714-1.714 1.714zm0 13.714H0v1.714h3.429V24h1.714v-3.429c0-.937-.777-1.714-1.714-1.714zm15.428-3.428c0 .937-.776 1.714-1.714 1.714H6.857a1.726 1.726 0 0 1-1.714-1.714V8.57c0-.937.776-1.714 1.714-1.714h10.286c.938 0 1.714.777 1.714 1.714v6.858zm-3.428-5.143H8.57v3.428h6.858v-3.428zm3.428 10.285V24h1.714v-3.429H24v-1.714h-3.429c-.937 0-1.714.777-1.714 1.714zM20.571 3.43V0h-1.714v3.429c0 .937.777 1.714 1.714 1.714H24V3.429h-3.429z"  /></svg>
