<svg width="24" height="24" viewbox="0 0 24 24"  xmlns="http://www.w3.org/2000/svg"><path d="M13.77 16.54l1.769 6.192H8.46l1.77-6.193-1.327-2.654h6.192L13.77 16.54zm3.538-7.963H6.692l-3.539 1.77h17.694l-3.539-1.77zM15.538 1.5L12 3.27 8.461 1.5 6.692 6.808h10.616L15.538 1.5zm7.131 13.712l-5.361-1.327 1.77 3.539-3.54 5.308h5.698c.796 0 1.522-.549 1.716-1.327l.991-4.034c.248-.938-.336-1.911-1.274-2.159zM6.692 13.885l-5.361 1.327c-.938.248-1.522 1.221-1.274 2.159l.99 4.034c.195.778.92 1.327 1.717 1.327h5.697l-3.538-5.308 1.769-3.539z"  /></svg>
