<svg width="24" height="24" viewbox="0 0 24 24"  xmlns="http://www.w3.org/2000/svg"><path d="M20.607 8.571H3.464a1.72 1.72 0 0 0-1.714 1.715v3.428a1.72 1.72 0 0 0 1.714 1.715h17.143a1.72 1.72 0 0 0 1.714-1.715v-3.428a1.72 1.72 0 0 0-1.714-1.715zM5.18 13.714H3.464v-3.428H5.18v3.428zm3.428 0H6.893v-3.428h1.714v3.428zm3.429 0H10.32v-3.428h1.715v3.428zm3.428 0H13.75v-3.428h1.714v3.428zM20.607 0H3.464A1.72 1.72 0 0 0 1.75 1.714v3.429a1.72 1.72 0 0 0 1.714 1.714h17.143a1.72 1.72 0 0 0 1.714-1.714V1.714A1.72 1.72 0 0 0 20.607 0zM5.18 5.143H3.464V1.714H5.18v3.429zm3.428 0H6.893V1.714h1.714v3.429zm3.429 0H10.32V1.714h1.715v3.429zm3.428 0H13.75V1.714h1.714v3.429zm5.143-1.714h-1.714V1.714h1.714V3.43zm0 13.714H3.464a1.72 1.72 0 0 0-1.714 1.714v3.429A1.72 1.72 0 0 0 3.464 24h17.143a1.72 1.72 0 0 0 1.714-1.714v-3.429a1.72 1.72 0 0 0-1.714-1.714zM5.18 22.286H3.464v-3.429H5.18v3.429zm3.428 0H6.893v-3.429h1.714v3.429zm3.429 0H10.32v-3.429h1.715v3.429zm3.428 0H13.75v-3.429h1.714v3.429z"  /></svg>
