<svg width="24" height="24" viewbox="0 0 24 24"  xmlns="http://www.w3.org/2000/svg"><path d="M4.8 10.5H3.2v-8h1.6v8zM3.2 21.7h1.6v-4.8H3.2v4.8zm8 0h1.6v-9.6h-1.6v9.6zm8 0h1.6v-3.2h-1.6v3.2zm1.6-19.2h-1.6v9.6h1.6V2.5zm-8 0h-1.6v3.2h1.6V2.5zm-6.4 9.6H1.6c-.88 0-1.6.72-1.6 1.6 0 .88.72 1.6 1.6 1.6h4.8c.88 0 1.6-.72 1.6-1.6 0-.88-.72-1.6-1.6-1.6zm8-4.8H9.6c-.88 0-1.6.72-1.6 1.6 0 .88.72 1.6 1.6 1.6h4.8c.88 0 1.6-.72 1.6-1.6 0-.88-.72-1.6-1.6-1.6zm8 6.4h-4.8c-.88 0-1.6.72-1.6 1.6 0 .88.72 1.6 1.6 1.6h4.8c.88 0 1.6-.72 1.6-1.6 0-.88-.72-1.6-1.6-1.6z"  /></svg>
