<svg width="24" height="24" viewbox="0 0 24 24"  xmlns="http://www.w3.org/2000/svg"><path d="M12 0C5.37 0 0 5.37 0 12s5.37 12 12 12 12-5.37 12-12S18.63 0 12 0zm7.215 19.215a10.08 10.08 0 0 1-3.255 2.175c-1.245.54-2.58.795-3.96.795s-2.715-.255-3.96-.795a10.16 10.16 0 0 1-3.255-2.175A10.16 10.16 0 0 1 2.61 15.96 9.885 9.885 0 0 1 1.815 12c0-1.38.255-2.715.795-3.96a10.16 10.16 0 0 1 2.175-3.255A10.16 10.16 0 0 1 8.04 2.61 9.885 9.885 0 0 1 12 1.815c1.38 0 2.715.255 3.96.795a10.16 10.16 0 0 1 3.255 2.175c.93.93 1.665 2.04 2.175 3.255.54 1.245.795 2.58.795 3.96s-.255 2.715-.795 3.96a10.16 10.16 0 0 1-2.175 3.255zM6 10.2v-.885c0-.99.795-1.785 1.8-1.785h.885c.99 0 1.785.795 1.785 1.785v.885c0 1.005-.795 1.8-1.785 1.8H7.8C6.795 12 6 11.205 6 10.2zm7.5 0v-.885c0-.99.795-1.785 1.8-1.785h.885c.99 0 1.785.795 1.785 1.785v.885c0 1.005-.795 1.8-1.785 1.8H15.3c-1.005 0-1.8-.795-1.8-1.8zm6 4.8c-1.08 2.82-4.365 4.5-7.5 4.5S5.58 17.805 4.5 15c-.21-.585.345-1.5.99-1.5h12.885c.615 0 1.335.915 1.125 1.5z"  /></svg>
