<svg width="24" height="24" viewbox="0 0 24 24"  xmlns="http://www.w3.org/2000/svg"><path d="M12 6a6.02 6.02 0 0 1 3.445 1.09l4.278-4.277a12.005 12.005 0 0 0-15.446 0L8.555 7.09A5.99 5.99 0 0 1 12 6zm-6 6a6.02 6.02 0 0 1 1.09-3.445L2.813 4.277a12.005 12.005 0 0 0 0 15.446l4.277-4.278A6.019 6.019 0 0 1 6 12zm15.188-7.723L16.91 8.555A6.016 6.016 0 0 1 18 12a6.02 6.02 0 0 1-1.09 3.445l4.277 4.278a12.005 12.005 0 0 0 0-15.446zM12 18c-1.29 0-2.473-.41-3.445-1.09l-4.278 4.277a12.004 12.004 0 0 0 15.446 0l-4.278-4.277A6.016 6.016 0 0 1 12 18z" /></svg>
