<svg width="24" height="24" viewbox="0 0 24 24"  xmlns="http://www.w3.org/2000/svg"><path d="M17.625 1.75c-3.315 0-6 1.965-6 4.38 0 2.91.75 4.545 0 9.12 0-6.75-4.155-9.51-6-9.51.075-.75-.72-.99-.72-.99s-.33.165-.45.51c-.405-.465-.84-.405-.84-.405l-.195.87s-2.745.96-2.775 4.83c.3.495 2.295.9 3.705.645 1.335.075 1.005 1.185.705 1.485-1.26 1.26-2.43-.435-3.93-.435s-1.5 1.5 0 1.5 1.5 1.5 4.5 1.5c-4.635 1.8 0 6 0 6h-1.5c-1.5 0-1.5 1.5-1.5 1.5h9c4.5 0 7.5-1.5 7.5-5.205 0-1.275-.645-2.685-1.5-3.795-1.665-2.19.345-4.02 1.5-3 1.155 1.02 4.5 1.5 4.5-3 0-3.315-2.685-6-6-6zm-14.25 7.5c-.42 0-.75-.33-.75-.75s.33-.75.75-.75.75.33.75.75-.33.75-.75.75z"  /></svg>
