<svg width="24" height="24" viewbox="0 0 24 24"  xmlns="http://www.w3.org/2000/svg"><path d="M21.912 10.588c-.031-.01-.078-.03-.132-.048a8.399 8.399 0 0 0-.19-.061c-.073-.02-.151-.043-.235-.062l-.063-.014-.065-.013c-.042-.01-.089-.015-.133-.024-.092-.013-.184-.027-.28-.035a6.419 6.419 0 0 0-.294-.019 6.568 6.568 0 0 0-.61.015c-.102.009-.205.016-.306.028-.05.004-.1.012-.15.017-.05.008-.1.011-.147.02l-.143.02-.07.01c-.022.004-.044.008-.067.01l-.065.01-.064.011-.061.01-.06.01c-.077.01-.144.023-.204.032-.058.008-.105.017-.14.02a1.732 1.732 0 0 1-.051.005l.018-.048a1.011 1.011 0 0 1 .063-.13 1.504 1.504 0 0 1 .206-.293c.031-.036.066-.073.104-.109l.058-.055c.02-.018.043-.035.065-.053a1.937 1.937 0 0 1 .3-.203l.087-.045c.03-.014.059-.03.09-.042a2.147 2.147 0 0 1 .823-.18c.146-.003.293.01.436.035a1.842 1.842 0 0 1 .758.318c.05.038.1.075.143.116.022.02.044.04.063.06l.058.062a1.285 1.285 0 0 1 .265.45c.022.06.03.107.035.14a.929.929 0 0 1 .009.052l-.05-.017zm-2.645 4.987a1.973 1.973 0 0 1-.416.316c-.052.032-.11.062-.171.093-.03.016-.063.031-.096.047l-.102.044a3.61 3.61 0 0 1-.108.043c-.037.014-.075.026-.113.039l-.12.038-.124.032c-.042.01-.086.022-.13.03a6.196 6.196 0 0 1-.133.025c-.045.007-.091.016-.138.022l-.141.014c-.047.004-.095.01-.144.012l-.146.003-.149.002-.155-.01-.157-.012-.04-.004-.034-.004-.069-.01-.138-.021-.07-.011-.018-.004h-.004l-.01-.003-.018-.004-.037-.008c-.098-.023-.196-.046-.293-.072a4.15 4.15 0 0 1-.819-.33c-.085-.04-.164-.09-.242-.139a2.653 2.653 0 0 1-.22-.15 2.673 2.673 0 0 1-.199-.156 2.46 2.46 0 0 1-.174-.16 2.408 2.408 0 0 1-.148-.158 2.49 2.49 0 0 1-.3-.416 1.541 1.541 0 0 1-.09-.184c-.019-.045-.026-.069-.026-.069l.017.009.048.023.077.037.102.047c.077.034.168.076.273.12.053.02.106.046.165.067l.09.036.092.035.097.037c.032.013.066.024.1.037l.103.037c.035.013.071.024.107.036a6.245 6.245 0 0 1 .164.055l.056.018c.076.023.151.05.23.07.156.048.319.09.483.134.083.02.166.04.25.062l.252.054.032.007.016.004.008.002h.003l.002.001.058.01.137.026.069.014.034.007.03.004c.04.006.08.011.119.018l.118.02.124.016.122.017.121.012.12.014.118.01c.04.002.078.006.117.01l.114.006.112.007.109.004.106.005.103.002.1.002h.095c.032 0 .063.002.092 0h.088c.113 0 .213-.005.297-.008l.198-.009.053-.003.019-.001s-.016.02-.05.054h.002zm-5.926-6.72c-.057-.005-.108-.004-.14-.007-.034-.001-.053-.004-.053-.004l.028-.044c.019-.028.043-.07.087-.116a1.296 1.296 0 0 1 .419-.312l.076-.036.082-.03c.056-.022.115-.037.177-.053a1.86 1.86 0 0 1 .822 0c.142.03.282.076.416.135a2.207 2.207 0 0 1 .69.484c.023.023.045.048.067.073l.062.075a2.587 2.587 0 0 1 .109.151c.033.051.064.1.09.152l.038.074.033.073c.022.048.04.095.054.14a1.528 1.528 0 0 1 .084.493l-.001.053-.047-.025c-.03-.016-.07-.042-.12-.073-.051-.03-.11-.068-.176-.108l-.05-.032-.054-.032-.054-.034-.058-.034-.057-.037-.06-.035c-.04-.025-.083-.049-.125-.074-.04-.026-.086-.048-.128-.075-.044-.023-.087-.05-.132-.073-.088-.05-.18-.096-.271-.144a6.55 6.55 0 0 0-.557-.248 5.954 5.954 0 0 0-.278-.097c-.092-.03-.183-.053-.273-.076-.044-.009-.088-.021-.132-.029l-.065-.013-.064-.01c-.084-.016-.165-.025-.24-.034a8.078 8.078 0 0 0-.199-.017zm4.853-3.546c-3.76-.675-5.49-.034-5.49-.034l-1.386 6.896.013.003c-.478 3.381 1.964 6.619 4.35 7.097 2.635.529 5.89-1.567 6.756-4.87l.013.002 1.386-6.896s-1.728-1.494-5.642-2.198zm-7.143 9.786l-.053.004-.197.016c-.084.008-.184.017-.297.031a2.765 2.765 0 0 1-.086.01c-.03.003-.06.008-.09.013l-.096.012-.098.016-.102.014-.106.019-.107.018-.11.022-.113.021a4.255 4.255 0 0 1-.114.025l-.115.025-.118.029-.118.028-.12.033-.12.031-.115.035-.115.034-.029.008-.033.011-.066.023-.133.043-.056.017h-.002l-.003.002-.008.003-.015.006-.03.011c-.082.03-.163.06-.245.087a7.38 7.38 0 0 1-.239.093c-.157.065-.313.128-.461.195-.076.03-.147.068-.219.1l-.054.025a4.053 4.053 0 0 1-.155.076c-.034.017-.07.032-.101.05l-.098.05c-.032.017-.064.032-.094.049l-.091.05c-.03.015-.06.03-.088.047l-.084.047c-.056.029-.105.061-.155.088-.098.057-.183.11-.255.154-.036.021-.066.043-.095.06l-.072.046-.044.029-.016.01s.004-.024.016-.07c.012-.047.032-.114.066-.195a2.346 2.346 0 0 1 .243-.451c.038-.058.08-.118.127-.176.047-.06.096-.121.152-.18.055-.061.112-.123.176-.182.063-.06.128-.121.2-.177.07-.057.143-.117.221-.17a4.12 4.12 0 0 1 .77-.432c.093-.038.187-.073.28-.109l.036-.013.018-.006.009-.003.005-.002.017-.006.067-.02.135-.039.067-.019.034-.009.038-.008c.052-.011.103-.023.155-.033l.152-.029.148-.018.145-.016c.049-.004.097-.004.145-.007a7.43 7.43 0 0 1 .141-.004c.047 0 .094.003.14.004l.135.007c.045.003.089.009.132.014l.128.016c.042.006.083.014.123.022l.118.023.112.03c.037.01.073.019.107.03a2.41 2.41 0 0 1 .736.364c.038.03.056.048.056.048h-.018zm-5.747-4.637a1.197 1.197 0 0 1-.02.133c-.01.048-.02.097-.036.147l-.023.077-.028.079a1.76 1.76 0 0 1-.112.244l-.046.082-.053.082c-.018.027-.036.055-.057.081a2.152 2.152 0 0 1-1.43.857 1.85 1.85 0 0 1-.4.006c-.064-.008-.124-.015-.183-.03-.029-.006-.057-.012-.085-.02l-.08-.025a1.391 1.391 0 0 1-.456-.256c-.05-.04-.079-.077-.101-.103l-.033-.04s.018-.005.051-.011c.032-.007.083-.013.138-.025.056-.011.123-.026.196-.043.073-.018.151-.038.233-.064l.062-.019.063-.021c.042-.014.084-.032.127-.046.086-.035.173-.07.26-.11a5.863 5.863 0 0 0 .526-.283c.087-.054.173-.11.258-.167.084-.06.17-.117.25-.178.042-.03.08-.061.122-.09.038-.032.08-.06.117-.09.038-.03.077-.06.113-.09l.055-.043c.018-.014.035-.03.053-.043l.052-.042.05-.04.048-.04.046-.037c.061-.049.114-.094.16-.13.047-.038.084-.068.111-.088l.043-.031a.822.822 0 0 0 .015.113 1.539 1.539 0 0 1-.006.304zm1.88-1.036l.14.003c.06 0 .13.004.208.005l.06.002.061.002.065.002.066.001.069.002h.07c.047.003.095.002.144.003.049.001.099-.002.148 0 .05-.002.1 0 .152-.003.1 0 .204-.007.306-.011a7.31 7.31 0 0 0 .307-.024c.101-.011.201-.025.3-.04a4.728 4.728 0 0 0 .562-.127c.043-.015.088-.027.13-.042l.062-.021.061-.022c.08-.03.155-.062.224-.092.068-.031.13-.06.18-.085.053-.024.096-.05.126-.064.03-.016.047-.023.047-.023l-.001.052c-.002.034-.003.081-.017.143a1.268 1.268 0 0 1-.205.481c-.015.023-.032.045-.049.069-.017.023-.036.044-.055.068a1.845 1.845 0 0 1-.837.547 2.226 2.226 0 0 1-.86.094 2.183 2.183 0 0 1-.407-.076c-.033-.008-.064-.02-.095-.03-.031-.01-.062-.021-.091-.033-.03-.012-.06-.024-.088-.037a1.752 1.752 0 0 1-.237-.125l-.07-.045-.065-.047a1.36 1.36 0 0 1-.118-.095 1.554 1.554 0 0 1-.32-.384l-.025-.046.052-.001zm3.653 2.88l-.013-.002.881-4.388-.955-2.806s-2.246-.427-5.985.928C1.174 7.334 0 8.756 0 8.756l2.268 6.66.013-.004c1.286 3.163 5.026 4.739 7.33 3.956 1.018-.346 1.91-1.104 2.556-2.1-.987-1.334-1.59-3.129-1.33-4.966z" /></svg>
