<svg width="24" height="24" viewbox="0 0 24 24"  xmlns="http://www.w3.org/2000/svg"><path d="M23.955 11.738L22.5 2.82C22.245.749 19.684 0 17.991 0H8.529c-.3 0-.57.075-.795.21L5.579 1.5h-2.58C1.41 1.5 0 2.907 0 4.495v5.997c0 1.589 1.41 3.027 2.998 2.997h2.999c1.364 0 2.084.675 3.582 2.325 1.365 1.499 1.32 2.698.945 4.901-.12.75.09 1.5.63 2.13.585.705 1.469 1.154 2.337 1.154 2.745 0 4.498-5.577 4.498-7.526l-.03-1.47h3.058c1.74 0 2.923-1.198 2.968-2.952 0-.09.03-.195-.03-.3v-.015.002zm-2.953 1.785h-2.984c-1.05 0-1.544.42-1.544 1.453l.046 1.545c0 1.902-1.755 5.995-2.999 5.995-.75 0-1.619-.75-1.498-1.5.375-2.368.51-4.166-1.335-6.205-1.529-1.695-2.652-2.819-4.691-2.819V2.998l2.502-1.5h9.49c1.094 0 2.922.466 2.997 1.5l.03.03 1.5 8.995c-.044.96-.57 1.5-1.5 1.5h-.014z"  /></svg>
