<svg width="24" height="24" viewbox="0 0 24 24"  xmlns="http://www.w3.org/2000/svg"><path d="M20.986 20.986c-.075 1.035-1.903 1.5-2.997 1.5H8.5l-2.502-1.5v-8.994c2.039 0 3.162-1.125 4.692-2.818 1.844-2.038 1.709-3.837 1.319-6.19-.12-.75.75-1.5 1.5-1.5 1.243 0 2.997 4.093 2.997 5.997l-.03 1.544c0 1.034.494 1.454 1.53 1.454H21c.945 0 1.47.54 1.5 1.498L21 20.971l-.015.015h.002zm0-11.992H17.96l.03-1.47C17.99 5.578 16.235 0 13.491 0c-.87 0-1.753.45-2.338 1.155-.54.615-.75 1.363-.63 2.114.375 2.218.42 3.417-.944 4.916-1.5 1.634-2.22 2.324-3.582 2.324h-3C1.41 10.494 0 11.902 0 13.491v5.997c0 1.59 1.41 2.998 2.998 2.998h2.579l2.159 1.29c.24.134.494.209.78.209h9.487c1.695 0 4.259-.75 4.498-2.819l1.469-8.918c.03-.12.03-.21.03-.3-.045-1.755-1.26-2.954-2.998-2.954h-.015z"  /></svg>
