<svg width="24" height="24" viewbox="0 0 24 24"  xmlns="http://www.w3.org/2000/svg"><path d="M6.72 10.905c.39.39 1.92 1.995 1.92 1.995l.84-.87-1.32-1.365 2.535-2.7s-1.14-1.11-.645-.675c.48-1.785.045-3.765-1.305-5.16A5.065 5.065 0 0 0 3.78.765l2.895 3-.765 2.94-2.835.78-2.895-3C-.285 6.255.15 8.22 1.5 9.6a5.019 5.019 0 0 0 5.22 1.305zm9.66 2.91l-3.495 3.45 5.76 5.97a2.342 2.342 0 0 0 1.71.735c.615 0 1.23-.24 1.71-.735a2.546 2.546 0 0 0 0-3.525l-5.685-5.895zM24 3.795L20.325 0 9.495 11.19l1.32 1.365-6.465 6.69-1.485.795L.78 23.445l.525.555 3.3-2.16.765-1.53 6.48-6.69 1.32 1.365L24 3.795z"  /></svg>
