<svg width="24" height="24" viewbox="0 0 24 24"  xmlns="http://www.w3.org/2000/svg"><path d="M19.643 1.714h-3.429A1.72 1.72 0 0 0 14.5 0H9.357a1.72 1.72 0 0 0-1.714 1.714H4.214A1.72 1.72 0 0 0 2.5 3.43v1.714a1.72 1.72 0 0 0 1.714 1.714v15.429A1.72 1.72 0 0 0 5.93 24h12a1.72 1.72 0 0 0 1.714-1.714V6.857a1.72 1.72 0 0 0 1.714-1.714V3.429a1.72 1.72 0 0 0-1.714-1.715zm-1.714 20.572h-12V6.857h1.714v13.714h1.714V6.857h1.714v13.714h1.715V6.857H14.5v13.714h1.714V6.857h1.715v15.429zm1.714-17.143H4.214V3.429h15.429v1.714z"  /></svg>
