<svg width="24" height="24" viewbox="0 0 24 24"  xmlns="http://www.w3.org/2000/svg"><path d="M2.66 14.347a4.64 4.64 0 0 0 2.21-.093c-2.237-.49-3.917-2.646-3.917-5.24v-.066a4.586 4.586 0 0 0 2.209.662C1.852 8.657.992 7.017.992 5.165c0-.979.239-1.892.662-2.686C4.061 5.707 7.66 7.837 11.722 8.063a6.042 6.042 0 0 1-.12-1.218c0-2.95 2.184-5.345 4.883-5.345 1.402 0 2.672.648 3.559 1.693a9.23 9.23 0 0 0 3.109-1.296c-.37 1.244-1.138 2.289-2.144 2.95A9.06 9.06 0 0 0 23.814 4a10.308 10.308 0 0 1-2.447 2.779l.013.688c0 7.065-4.908 15.201-13.892 15.201-2.765 0-5.332-.886-7.488-2.394.37.04.767.066 1.164.066 2.289 0 4.393-.847 6.06-2.29-2.13-.039-3.943-1.587-4.565-3.703z" /></svg>