<svg width="24" height="24" viewbox="0 0 24 24"  xmlns="http://www.w3.org/2000/svg"><path d="M23.503 10.598l-1.62-2.01a2.25 2.25 0 0 1-.463-1.155l-.285-2.547A2.265 2.265 0 0 0 19.14 2.89l-2.548-.285c-.45-.045-.84-.239-1.17-.494L13.416.494a2.256 2.256 0 0 0-2.817 0l-2.01 1.62a2.25 2.25 0 0 1-1.155.465l-2.547.285a2.264 2.264 0 0 0-1.995 1.993l-.285 2.549c-.045.45-.238.84-.493 1.17L.494 10.58a2.256 2.256 0 0 0 0 2.817l1.62 2.01c.255.33.42.72.465 1.155l.285 2.547a2.264 2.264 0 0 0 1.993 1.995l2.549.285c.45.045.84.238 1.17.493l2.008 1.62a2.255 2.255 0 0 0 2.817 0l2.01-1.62c.33-.255.72-.42 1.155-.465l2.547-.285a2.264 2.264 0 0 0 1.995-1.993l.285-2.549c.045-.45.238-.84.493-1.17l1.62-2.008a2.256 2.256 0 0 0 0-2.817l-.003.002zm-9.999 6.655c0 .42-.33.75-.75.75h-1.498a.752.752 0 0 1-.75-.75v-1.5c0-.42.345-.75.75-.75h1.5c.42 0 .75.33.75.75v1.5h-.002zm2.34-7.33a2.09 2.09 0 0 1-.45.705c-.195.24-.21.285-.495.57-.24.255-.465.45-.78.675-.165.133-.3.283-.42.403-.12.12-.21.255-.285.405-.075.15-.12.285-.165.45-.045.165-.045.195-.045.375h-2.501c0-.33 0-.465.045-.72.045-.285.12-.54.21-.78.09-.21.21-.42.375-.63.165-.195.345-.375.613-.57.405-.285.54-.45.72-.78.18-.328.3-.568.3-.883 0-.405-.09-.675-.3-.87-.195-.195-.465-.285-.87-.285-.135 0-.285.03-.45.075-.165.045-.255.135-.375.24-.12.105-.21.165-.3.3a.615.615 0 0 0-.135.42H7.541c0-.57.195-.84.405-1.245.24-.405.54-.749.915-1.004s.823-.45 1.318-.57a6.978 6.978 0 0 1 1.635-.195c.658 0 1.243.075 1.752.195.51.135.945.33 1.32.585.345.255.615.57.825.945.195.375.285.825.285 1.32 0 .33 0 .629-.12.884l-.03-.015h-.002z"  /></svg>
