<svg width="24" height="24" viewbox="0 0 24 24"  xmlns="http://www.w3.org/2000/svg"><path d="M23.503 10.598l-1.62-2.01a2.25 2.25 0 0 1-.463-1.155l-.285-2.547A2.265 2.265 0 0 0 19.14 2.89l-2.548-.285c-.45-.045-.84-.239-1.17-.494L13.416.494a2.256 2.256 0 0 0-2.817 0l-2.01 1.62a2.25 2.25 0 0 1-1.155.465l-2.547.285a2.264 2.264 0 0 0-1.995 1.993l-.285 2.549c-.045.45-.238.84-.493 1.17L.494 10.58a2.256 2.256 0 0 0 0 2.817l1.62 2.01c.255.33.42.72.465 1.155l.285 2.547a2.264 2.264 0 0 0 1.993 1.995l2.549.285c.45.045.84.238 1.17.493l2.008 1.62a2.255 2.255 0 0 0 2.817 0l2.01-1.62c.33-.255.72-.42 1.155-.465l2.547-.285a2.264 2.264 0 0 0 1.995-1.993l.285-2.549c.045-.45.238-.84.493-1.17l1.62-2.008a2.256 2.256 0 0 0 0-2.817l-.003.002zM9.758 18L4.51 12.756l2.25-2.25 2.997 3 7.495-7.495L19.5 8.334l-9.743 9.667z"  /></svg>
