<svg width="24" height="24" viewbox="0 0 24 24"  xmlns="http://www.w3.org/2000/svg"><path d="M22.286 3.5H12a1.72 1.72 0 0 0-1.714 1.714V18.93A1.72 1.72 0 0 0 12 20.643h10.286A1.72 1.72 0 0 0 24 18.929V5.214A1.72 1.72 0 0 0 22.286 3.5zM20.57 17.214h-6.857V6.93h6.857v10.285zm-13.714-12h1.714V6.93H6.857v10.285h1.714v1.715H6.857a1.72 1.72 0 0 1-1.714-1.715V6.93a1.72 1.72 0 0 1 1.714-1.715zM1.714 6.93H3.43v1.714H1.714V15.5H3.43v1.714H1.714A1.72 1.72 0 0 1 0 15.5V8.643a1.72 1.72 0 0 1 1.714-1.714z"  /></svg>
