<svg width="24" height="24" viewbox="0 0 24 24"  xmlns="http://www.w3.org/2000/svg"><path d="M22 1.25H2c-1.1 0-2 .908-2 2.017V20.75c0 1.109.9 2.017 2 2.017h20c1.1 0 2-.908 2-2.017V3.267c0-1.11-.9-2.017-2-2.017zm-7.333 18.826H8.544a1.995 1.995 0 0 1-1.877 1.345c-.87 0-1.602-.564-1.878-1.345H2.667v-1.345h2.122a1.995 1.995 0 0 1 1.878-1.344c.87 0 1.602.563 1.877 1.344h6.122v1.345zM2 3.267h20v12.775H2V3.267zm13.764 5.685c.527.307.527.81 0 1.116L9.653 13.63c-.527.306-.958.06-.958-.55V5.94c0-.61.431-.856.958-.55l6.111 3.563z" /></svg>
