<svg xmlns="http://www.w3.org/2000/svg" viewBox="0 0 126 126"><g fill="none" fill-rule="nonzero"><path fill="#222" d="M123.367 32.862c-1.45-5.457-5.718-9.753-11.14-11.212C102.401 19 63 19 63 19s-39.401 0-49.227 2.65c-5.421 1.459-9.69 5.755-11.14 11.212C0 42.752 0 63.386 0 63.386S0 84.02 2.633 93.911c1.45 5.456 5.719 9.753 11.14 11.212 9.826 2.65 49.227 2.65 49.227 2.65s39.401 0 49.227-2.65c5.422-1.459 9.69-5.756 11.14-11.212C126 84.021 126 63.386 126 63.386s0-20.634-2.633-30.524"/><path fill="#FFFFFE" d="M50.114 82.121l32.931-18.734-32.931-18.735v37.469"/></g></svg>