<svg width="101" height="106" xmlns="http://www.w3.org/2000/svg"><g fill="#222" fill-rule="evenodd"><path d="M59.782 34.914c-1.55 2.19-3.287 2.425-4.485 1.755-1.198-.671-1.857-2.247-.676-4.644 2.872-5.828 12.57-25.429 14.35-28.248 1.44-2.276 4.62-4.983 7.808-3.198l.004.002c.002 0 .003.002.005.003 3.187 1.784 2.36 5.809 1.047 8.155-1.627 2.906-14.285 20.85-18.053 26.175M57.171 40.082a4.592 4.592 0 0 1-2.07-.607 4.545 4.545 0 0 1-1.564-1.473c-1.654-.04-3.248.736-4.481 1.784-.879.748-1.65 1.963-2.044 3.038-.388 1.057-.432 2.195-.676 3.285-.218.968-.782 2.17-1.911 2.275a2.56 2.56 0 0 1-.882-.09c-.54-.141-1.044-.39-1.543-.638.348.982.873 1.856 1.663 2.552.721.635 1.593 1.083 2.51 1.369a9.848 9.848 0 0 0 2.875.423c.144 0 .288-.002.431-.006 2.9-.098 5.73-1.547 7.202-4.076 1.606-2.758 1.716-5.84.49-7.836M65.924 101.625h-1.52c-.088-.107-1.951-8.416-2.495-10.625H38.091c-.544 2.21-2.407 10.518-2.496 10.625h-1.519c-1.147 0-2.076.98-2.076 2.188 0 1.208.93 2.187 2.076 2.187h31.848c1.147 0 2.076-.98 2.076-2.187 0-1.208-.93-2.188-2.076-2.188"/><path d="M97.196 11H79.504a237.065 237.065 0 0 1-3.162 4.951h19.611v57.082H5.047V15.951h56.326c.817-1.705 1.625-3.382 2.386-4.951H3.804C1.712 11 0 12.741 0 14.87v70.26C0 87.26 1.712 89 3.804 89h93.392c2.092 0 3.804-1.741 3.804-3.87V14.87c0-2.129-1.712-3.87-3.804-3.87"/></g></svg>
