<?xml version="1.0" encoding="UTF-8"?>
<svg width="300px" height="173px" viewBox="0 0 300 173" version="1.1" xmlns="http://www.w3.org/2000/svg" xmlns:xlink="http://www.w3.org/1999/xlink">
    <!-- Generator: Sketch 52.6 (67491) - http://www.bohemiancoding.com/sketch -->
    <title>Fill 4</title>
    <desc>Created with Sketch.</desc>
    <g id="Page-1" stroke="none" stroke-width="1" fill="none" fill-rule="evenodd">
        <path d="M278.456615,46.9912946 C278.962541,48.9419838 277.804145,50.9366271 275.868542,51.4464963 L263.847566,54.6147179 C261.911963,55.1254661 259.932746,53.9580415 259.425948,52.0064733 L256.693947,41.4785539 C256.188021,39.5278648 257.346417,37.5323423 259.28202,37.0224732 L271.302996,33.8542516 C273.238599,33.3443824 275.217817,34.511807 275.724615,36.4624962 L278.456615,46.9912946 Z M291.474697,98.0608028 C291.940578,99.8405322 290.743747,101.694268 288.801685,102.201616 L264.293868,108.605432 C262.351807,109.11278 260.399928,108.081143 259.934047,106.301414 L255.151185,88.0306545 L248.019285,89.8941988 C246.077224,90.4015465 244.126237,89.3699098 243.660357,87.5901804 L240.675865,76.1904607 C240.209985,74.4107313 241.406816,72.5569951 243.348877,72.0496474 L278.504118,62.8638897 C280.44618,62.356542 282.398059,63.3881787 282.863939,65.1679081 L291.474697,98.0608028 Z M296.456615,118.99056 C296.962541,120.941227 295.804145,122.936727 293.868542,123.44659 L281.847566,126.614775 C279.911963,127.125518 277.932746,125.957227 277.425948,124.006561 L274.693947,113.477883 C274.188021,111.527216 275.346417,109.532595 277.28202,109.022732 L289.302996,105.854547 C291.238599,105.343804 293.218689,106.512094 293.724615,108.462761 L296.456615,118.99056 Z M274.456323,124.990962 C274.963115,126.941602 273.803862,128.936196 271.868284,129.446931 L259.847469,132.615073 C257.911892,133.12493 255.932701,131.957534 255.425909,130.006894 L252.693946,119.47836 C252.188026,117.527719 253.346407,115.533126 255.281984,115.022391 L267.3028,111.854249 C269.238377,111.344392 271.21844,112.511788 271.724359,114.462428 L274.456323,124.990962 Z M251.456323,130.991109 C251.963115,132.941727 250.803862,134.936298 248.868284,135.446148 L236.847469,138.615134 C234.911892,139.124985 232.932701,137.956723 232.425909,136.006105 L229.693946,125.478569 C229.188026,123.52795 230.346407,121.532501 232.281984,121.02265 L244.3028,117.854544 C246.238377,117.343814 248.21844,118.512075 248.724359,120.462693 L251.456323,130.991109 Z M228.456615,136.99094 C228.962541,138.941586 227.804145,140.937064 225.868542,141.446922 L213.847566,144.615073 C211.911963,145.124931 209.931874,143.957532 209.425948,142.006886 L206.693947,131.478322 C206.188021,129.527676 207.346417,127.533078 209.28202,127.02322 L221.302996,123.85419 C223.238599,123.344332 225.218689,124.512609 225.724615,126.463255 L228.456615,136.99094 Z M206.456615,142.990962 C206.962541,144.941602 205.804145,146.936196 203.868542,147.446931 L191.847566,150.615073 C189.911963,151.12493 187.932746,149.957534 187.425948,148.006894 L184.693947,137.47836 C184.188021,135.527719 185.346417,133.532247 187.28202,133.022391 L199.302996,129.854249 C201.238599,129.344392 203.218689,130.511788 203.724615,132.462428 L206.456615,142.990962 Z M183.475161,148.538651 C183.938893,150.314652 182.747581,152.164504 180.814475,152.670789 L77.9849588,179.605317 C76.0527411,180.112492 74.1098629,179.083016 73.6461306,177.307016 L70.6754014,165.931179 C70.2116692,164.155179 71.4029813,162.305326 73.3360874,161.799041 L176.164716,134.863624 C178.097822,134.357339 180.0407,135.386814 180.504432,137.161925 L183.475161,148.538651 Z M70.4566205,177.991 C70.9625398,179.941645 69.8041591,181.936244 67.8677093,182.446102 L55.8477642,185.615132 C53.9121867,186.12499 51.9321232,184.956712 51.4262039,183.006067 L48.6942396,172.478382 C48.187448,170.527736 49.3467011,168.532258 51.2822786,168.0224 L63.3030959,164.854249 C65.2386734,164.344391 67.2178647,165.51179 67.723784,167.462435 L70.4566205,177.991 Z M47.4566171,183.990753 C47.9625363,185.941371 46.8041557,187.936821 44.8685785,188.446672 L32.8477631,191.614778 C30.9121859,192.125508 28.9321227,190.957247 28.4262034,189.006629 L25.6942396,178.478213 C25.1874481,176.527595 26.3467009,174.533024 28.2822781,174.023173 L40.3030936,170.854188 C42.2386708,170.344337 44.2178617,171.512598 44.7246532,173.463217 L47.4566171,183.990753 Z M19.6960568,157.334687 C19.1808808,155.362906 20.3613445,153.346695 22.3323369,152.830424 L45.169735,146.855545 C47.1407275,146.340162 49.1570199,147.52021 49.6721959,149.491991 L52.4541465,160.134635 C52.9702107,162.106416 51.789747,164.122627 49.8187546,164.638898 L26.9804682,170.613777 C25.0094758,171.129159 22.9940716,169.949112 22.4788956,167.97733 L19.6960568,157.334687 Z M14.6939421,135.478575 C14.1880228,133.52788 15.3464036,131.533232 17.2828533,131.022482 L29.3036707,127.854252 C31.2392482,127.344381 33.2184394,128.511809 33.7243587,130.462503 L36.456323,140.99133 C36.9631146,142.942024 35.8038616,144.936673 33.8682841,145.446544 L21.8474667,148.614774 C19.9118892,149.125523 17.932698,147.957216 17.4259064,146.006522 L14.6939421,135.478575 Z M7.69388418,106.478575 C7.18797554,104.52788 8.34720414,102.532352 10.2827408,102.022482 L22.3033047,98.8542519 C24.2388414,98.3443814 26.2179909,99.5118091 26.7247718,101.462503 L29.4566785,111.99133 C29.9625871,113.942024 28.8033585,115.936673 26.8678218,116.446544 L14.847258,119.614774 C12.9117213,120.125523 10.9325718,118.957216 10.4266631,117.006522 L7.69388418,106.478575 Z M37.6939456,129.478906 C37.1880263,127.527338 38.3464069,125.532695 40.2819841,125.022825 L52.3027996,121.854604 C54.239249,121.343856 56.21844,122.51128 56.7243592,124.462848 L59.4563231,134.990768 C59.9631146,136.941457 58.8038617,138.9361 56.8682845,139.446849 L44.8474691,142.61507 C42.9118919,143.124939 40.9327009,141.957515 40.4259094,140.006826 L37.6939456,129.478906 Z M36.6939472,99.4779918 C36.1880212,97.5272975 37.3464172,95.5326488 39.2820203,95.0227782 L51.3029964,91.8545482 C53.2385995,91.3437986 55.2178168,92.5121054 55.7246151,94.4627997 L58.4566155,104.990747 C58.9625415,106.941442 57.8041454,108.93609 55.8685423,109.44684 L43.8475663,112.61507 C41.9119632,113.12494 39.9327458,111.957513 39.4259475,110.006818 L36.6939472,99.4779918 Z M72.7246151,143.463255 L75.4566155,153.99094 C75.9625415,155.941586 74.8041454,157.937064 72.8685423,158.446922 L60.8475663,161.615073 C58.9119632,162.124931 56.9318735,160.957532 56.4259475,159.006886 L53.6939472,148.478322 C53.1880212,146.527676 54.3464172,144.533078 56.2820203,144.02322 L68.3029964,140.85419 C70.2385995,140.344332 72.2186891,141.512609 72.7246151,143.463255 Z M74.3033047,115.854252 C76.2388414,115.344381 78.2179909,116.511809 78.7238995,118.462503 L81.4566785,128.990451 C81.9625871,130.941145 80.8033585,132.936673 78.8678218,133.446544 L66.847258,136.614774 C64.9117213,137.125523 62.9325718,135.957216 62.4266631,134.006522 L59.6938842,123.478575 C59.1879755,121.527001 60.3472041,119.532352 62.2827408,119.022482 L74.3033047,115.854252 Z M59.6939472,93.4785746 C59.1880212,91.5278802 60.3464172,89.5323525 62.2820203,89.0224819 L74.3029964,85.8542519 C76.2385995,85.3443814 78.2186891,86.5118091 78.7246151,88.4625034 L81.4566155,98.99133 C81.9625415,100.942024 80.8041454,102.936673 78.8685423,103.446544 L66.8475663,106.614774 C64.9119632,107.125523 62.9327458,105.957216 62.4259475,104.006522 L59.6939472,93.4785746 Z M95.7246151,137.462761 L98.4566155,147.991439 C98.9625415,149.942106 97.8041454,151.936727 95.8685423,152.44659 L83.8475663,155.614775 C81.9119632,156.125518 79.9327458,154.957227 79.4259475,153.006561 L76.6939472,142.478762 C76.1880212,140.528095 77.3464172,138.532595 79.2820203,138.022732 L91.3029964,134.854547 C93.2385995,134.343804 95.2186891,135.512094 95.7246151,137.462761 Z M97.3036524,109.854249 C99.2392347,109.344391 101.218431,110.51179 101.724352,112.462435 L104.456323,122.991 C104.963116,124.941645 103.80386,126.936244 101.868277,127.446981 L89.8474296,130.615132 C87.9118472,131.12499 85.932651,129.956712 85.4267304,128.006067 L82.693887,117.478382 C82.1879664,115.527736 83.3472224,113.533137 85.2828047,113.0224 L97.3036524,109.854249 Z M81.6939472,87.4783597 C81.1880212,85.5277195 82.3464172,83.5331261 84.2820203,83.0223907 L96.3029964,79.8542486 C98.2385995,79.3443922 100.218689,80.5117875 100.724615,82.4624277 L103.456615,92.9909621 C103.962541,94.9416023 102.804145,96.9361956 100.868542,97.4469311 L88.8475663,100.615073 C86.9119632,101.12493 84.9318735,99.9575342 84.4259475,98.006894 L81.6939472,87.4783597 Z M117.724359,131.462428 L120.456323,141.990962 C120.963115,143.941602 119.803862,145.936196 117.868284,146.446931 L105.847469,149.615073 C103.911892,150.12493 101.932701,148.957534 101.425909,147.006894 L98.6939456,136.47836 C98.1880263,134.527719 99.3464069,132.533126 101.281984,132.022391 L113.3028,128.854249 C115.238377,128.344392 117.21844,129.511788 117.724359,131.462428 Z M120.303112,103.854604 C122.238684,103.343856 124.21787,104.51128 124.723788,106.462848 L127.456617,116.990768 C127.962535,118.941457 126.804158,120.9361 124.868585,121.446849 L112.8478,124.61507 C110.911356,125.124939 108.93217,123.957515 108.426252,122.006826 L105.694295,111.478027 C105.187505,109.527338 106.345882,107.532695 108.282327,107.022825 L120.303112,103.854604 Z M104.693946,81.4779918 C104.188026,79.5272975 105.346407,77.5326488 107.281984,77.0227782 L119.3028,73.8545482 C121.238377,73.3437986 123.21844,74.5121054 123.724359,76.4627997 L126.456323,86.9907472 C126.963115,88.9414415 125.803862,90.9360902 123.868284,91.4468398 L111.847469,94.6150698 C109.911892,95.1249404 107.932701,93.9575127 107.425909,92.0068183 L104.693946,81.4779918 Z M140.724359,125.4628 L143.456323,135.990747 C143.963115,137.941442 142.803862,139.936969 140.868284,140.44684 L128.847469,143.61507 C126.911892,144.12494 124.932701,142.957513 124.425909,141.006818 L121.693946,130.477992 C121.188026,128.527297 122.346407,126.532649 124.281984,126.022778 L136.3028,122.854548 C138.239249,122.343799 140.21844,123.512105 140.724359,125.4628 Z M142.303305,98.8542519 C144.238841,98.3443814 146.217991,99.5118091 146.7239,101.462503 L149.456678,111.990451 C149.962587,113.941145 148.803359,115.936673 146.867822,116.446544 L134.847258,119.614774 C132.911721,120.125523 130.932572,118.957216 130.426663,117.006522 L127.693884,106.478575 C127.187976,104.52788 128.347204,102.532352 130.282741,102.022482 L142.303305,98.8542519 Z M135.693942,73.4788709 C135.188036,71.5281766 136.346387,69.5326488 138.281913,69.0227782 L150.302415,65.8545482 C152.238814,65.3437986 154.217953,66.5121054 154.723859,68.4627997 L157.456624,78.9907472 C157.96253,80.9414415 156.804179,82.9360902 154.86778,83.4468398 L142.847279,86.6150698 C140.911752,87.1249404 138.932613,85.9575127 138.425835,84.0068183 L135.693942,73.4788709 Z M157.69424,67.4785746 C157.187447,65.5278802 158.346703,63.5323525 160.282285,63.0224819 L172.303133,59.8542519 C174.238715,59.3443814 176.217912,60.5118091 176.724704,62.4625034 L179.456676,72.99133 C179.962596,74.9420243 178.80334,76.936673 176.867758,77.4465435 L164.84691,80.6147735 C162.911328,81.1255232 160.932132,79.9572164 160.426211,78.006522 L157.69424,67.4785746 Z M180.69424,61.4783597 C180.187447,59.5277195 181.346703,57.5331261 183.282285,57.0223907 L195.303133,53.8542486 C197.238715,53.3443922 199.217912,54.5117875 199.724704,56.4624277 L202.456676,66.9909621 C202.962596,68.9416023 201.80334,70.9361956 199.867758,71.4469311 L187.84691,74.6150732 C185.911328,75.1249296 183.932132,73.9575342 183.426211,72.006894 L180.69424,61.4783597 Z M203.69424,55.4788709 C203.187448,53.5281766 204.346701,51.5326488 206.282278,51.0227782 L218.303094,47.8545482 C220.238671,47.3437986 222.217862,48.5121054 222.723781,50.4627997 L225.456617,60.9916263 C225.962536,62.9423206 224.804156,64.9369693 222.868579,65.4468398 L210.846891,68.6150698 C208.911314,69.1249404 206.932123,67.9575127 206.426203,66.0068183 L203.69424,55.4788709 Z M212.693887,106.478382 C212.187966,104.527736 213.347222,102.532258 215.282805,102.0224 L227.303652,98.8542489 C229.239235,98.3443911 231.218431,99.5117897 231.724352,101.462435 L234.456323,111.991 C234.963116,113.941645 233.80386,115.936244 231.868277,116.446981 L219.84743,119.615132 C217.911847,120.12499 215.932651,118.956712 215.42673,117.006067 L212.693887,106.478382 Z M202.847763,101.614774 C200.912186,102.125523 198.932123,100.957216 198.426203,99.006522 L195.69424,88.4785746 C195.187448,86.5278802 196.346701,84.5332316 198.282278,84.0224819 L210.303094,80.8542519 C212.238671,80.3443814 214.217862,81.5118091 214.724653,83.4625034 L217.456617,93.99133 C217.962536,95.9420243 216.804156,97.936673 214.868579,98.4465435 L202.847763,101.614774 Z M189.693946,112.477883 C189.188026,110.527216 190.346407,108.532595 192.281984,108.022732 L204.303672,104.854547 C206.239249,104.343804 208.21844,105.512094 208.724359,107.462761 L211.456323,117.99056 C211.963115,119.941227 210.803862,121.936727 208.868284,122.44659 L196.847469,125.614775 C194.911892,126.125518 192.932701,124.957227 192.426782,123.006561 L189.693946,112.477883 Z M180.847763,107.61507 C178.912186,108.12494 176.932123,106.957513 176.426203,105.006818 L173.69424,94.4788709 C173.187448,92.5272975 174.346701,90.5326488 176.282278,90.0227782 L188.303094,86.8545482 C190.238671,86.3437986 192.217862,87.5121054 192.724653,89.4627997 L195.456617,99.9907472 C195.962536,101.941442 194.804156,103.936969 192.868579,104.44684 L180.847763,107.61507 Z M166.693946,118.47836 C166.188026,116.527719 167.346407,114.533126 169.281984,114.022391 L181.3028,110.854249 C183.238377,110.344392 185.21844,111.511788 185.724359,113.462428 L188.456323,123.990962 C188.963115,125.941602 187.803862,127.936196 185.868284,128.446931 L173.847469,131.615073 C171.911892,132.12493 169.932701,130.957534 169.425909,129.006894 L166.693946,118.47836 Z M163.724359,119.462693 L166.456323,129.991109 C166.963115,131.941727 165.803862,133.936298 163.868284,134.446148 L151.847469,137.615134 C149.911892,138.124985 147.932701,136.956723 147.425909,135.006105 L144.693946,124.478569 C144.188026,122.52795 145.346407,120.532501 147.281984,120.02265 L159.3028,116.854544 C161.238377,116.343814 163.21844,117.512075 163.724359,119.462693 Z M157.84724,113.615129 C155.911708,114.124987 153.932563,112.956709 153.426656,111.006942 L150.693884,100.478378 C150.187977,98.5277323 151.347202,96.5331334 153.282734,96.0223965 L165.303268,92.8542454 C167.238799,92.3443876 169.217944,93.5117862 169.724724,95.463311 L172.456623,105.990996 C172.962531,107.941642 171.804177,109.936241 169.867773,110.446978 L157.84724,113.615129 Z M249.3028,93.8541896 C251.238377,93.3443317 253.21844,94.5126094 253.724359,96.4632551 L256.456323,106.99094 C256.963115,108.941586 255.803862,110.937064 253.868284,111.446922 L241.847469,114.615073 C239.911892,115.124931 237.932701,113.957532 237.425909,112.006886 L234.693946,101.478322 C234.188026,99.5276765 235.346407,97.5330775 237.281984,97.0223406 L249.3028,93.8541896 Z M237.724653,77.4633037 L240.456617,87.9909608 C240.962536,89.9416013 239.804156,91.936195 237.868579,92.4469305 L225.846891,95.6150731 C223.911314,96.1249296 221.932123,94.9575341 221.426203,93.0068936 L218.69424,82.4783575 C218.187448,80.5277169 219.346701,78.5331233 221.282278,78.0232668 L233.303094,74.8542451 C235.238671,74.3443886 237.217862,75.5117841 237.724653,77.4633037 Z M233.693946,47.4788709 C233.188026,45.5281766 234.346407,43.5326488 236.281984,43.0227782 L248.3028,39.8545482 C250.238377,39.3437986 252.21844,40.5121054 252.724359,42.4627997 L255.456323,52.9907472 C255.963115,54.9414415 254.803862,56.9369693 252.868284,57.4468398 L240.847469,60.6150698 C238.911892,61.1249404 236.932701,59.9575127 236.425909,58.0068183 L233.693946,47.4788709 Z M271.81899,12.9654486 L33.4258212,75.3689108 L30.9325413,65.8607965 C30.9245272,65.8099938 30.4392281,60.7038833 40.6100289,58.0416469 C45.4879527,56.7644508 49.1717737,53.9096992 51.259005,49.7839904 C55.8101312,40.795489 51.3435985,28.8978682 50.8182288,27.571652 C49.8503019,25.1206476 47.1272842,23.887124 44.6277712,24.8844599 C42.1745619,25.8470362 40.9679926,28.624247 41.923453,31.0814902 C42.9038463,33.5966664 44.9599117,41.0851531 42.723974,45.4746791 C42.1879188,46.5254915 41.1353985,48.0121371 38.1915474,48.7830894 C22.9549364,52.7715419 20.6361862,62.8616584 21.6112367,67.9606387 L24.1793149,77.7896119 L-3.16751242,84.9483271 C-6.92613174,85.932294 -9.17720723,89.7799252 -8.19414262,93.5419941 L19.7457291,200.47263 C20.7287937,204.234699 24.5728969,206.48784 28.3324067,205.503873 L303.318018,133.520995 C307.077528,132.537028 309.327713,128.689397 308.344649,124.927328 L280.405667,17.9966921 C279.422603,14.2346232 275.577609,11.9814817 271.81899,12.9654486 Z" id="Fill-4" fill="#222222" transform="translate(150.075281, 109.234661) rotate(15.000000) translate(-150.075281, -109.234661) "></path>
    </g>
</svg>