<svg width="24" height="24" viewbox="0 0 24 24"  xmlns="http://www.w3.org/2000/svg"><g fill="none" fill-rule="evenodd"><path d="M19.706 7.15l-3.787 4.085 1.638-7.144-2.18 1.154L13.74.798l-1.634 4.447-2.18-1.154 1.636 7.144-3.867-4.171-.251 1.82-3.172-.924 1.464 3.46-1.344.366 4.533 3.384c5.156-1.989 8.39-1.411 10.286-.643a11.828 11.828 0 01-1.237 3.037 7.1 7.1 0 00-.482-.242c-.659-.299-1.45-.54-2.402-.682a12.504 12.504 0 00-1.526-.13 15.591 15.591 0 00-.705-.003c-1.071.019-2.285.143-3.664.407l-.154.028c-.251.046-.495.084-.733.115-3.463.453-5.6-.573-6.882-1.742a12.259 12.259 0 01-.342-1.166c1.285 1.341 3.549 2.516 7.302 1.218l-5.07-3.786 1.763-.48-1.643-3.885 3.608 1.052.314-2.275 3.335 3.597-1.47-6.415 2.621 1.388L13.444.216c.21.028.42.058.629.091l1.564 4.256 2.622-1.388-1.47 6.415 2.92-3.149-.003.71" fill="#FFFFFE"/><path d="M8.374 17.862c-3.572.286-5.585-.71-6.72-1.944.183.453.394.898.633 1.335l.038.068c1.064.78 2.85 1.522 5.853 1.765 3.152.255 5.225 1.104 6.588 2.076a13.11 13.11 0 002.167-2.096c-1.543-.88-4.152-1.556-8.559-1.204" fill="#FFFFFE"/><path d="M2.325 17.321c1.705 3.082 4.444 4.829 7.61 6.206a.698.698 0 00.58 0c.928-.43 1.959-.86 2.829-1.39.503-.306.977-.632 1.422-.975-1.363-.972-3.436-1.821-6.588-2.076-3.002-.243-4.79-.984-5.853-1.765M9.196 16.914c-3.99.766-6.381-.331-7.769-1.598.07.202.145.403.226.602 1.136 1.234 3.15 2.23 6.721 1.944 4.407-.352 7.016.324 8.56 1.204.388-.477.736-.978 1.042-1.503-1.69-.928-4.412-1.486-8.78-.649" fill="#0A0B09"/><path d="M19.212 14.528c.24-.939.381-1.934.419-2.987.052-1.463.069-2.926.075-4.39l-3.787 4.084 1.638-7.144-2.18 1.154L13.74.798l-1.634 4.447-2.18-1.154 1.636 7.144-3.867-4.171-.251 1.82-3.172-.924 1.464 3.46-1.344.366 4.533 3.384c5.156-1.99 8.391-1.411 10.286-.642" fill="#D8232A"/><g fill="#0A0B09"><path d="M18.26 3.175L16.79 9.59l2.919-3.149c.004-1.43.002-2.861.015-4.292.003-.26-.058-.405-.332-.499a31.232 31.232 0 00-5.32-1.343l1.565 4.256 2.622-1.388M8.387 15.367l-5.07-3.786 1.763-.48-1.643-3.885 3.608 1.052.314-2.275 3.335 3.597-1.47-6.415 2.621 1.388L13.444.216c-.44-.057-.88-.105-1.324-.14C8.365-.221 4.728.368 1.181 1.601c-.343.12-.46.273-.457.638.02 1.609.02 4.83.02 4.83 0 1.45-.015 2.9.003 4.352.012.935.126 1.845.338 2.73 1.285 1.34 3.55 2.514 7.302 1.216"/></g></g></svg>