<svg viewbox="0 0 24 24" xmlns="http://www.w3.org/2000/svg"><g fill="none" fill-rule="evenodd"><g fill-rule="nonzero"><path d="M4 23V1h10.84L20 6.473V23z" fill="#fff"/><path d="M14.62 1.611l4.809 5.142v15.636H4.57V1.61zM14.858 1H4v22h16V6.5z" fill="#ff6d00"/><path d="M14 7V1h.195L20 6.805V7z" fill="#fff3e0"/><path d="M14.6 1.848L19.152 6.4H14.6zm0-.848H14v6h6v-.6z" fill="#ff6d00"/></g><path d="M10 12.5v-3" stroke="#ff6d00" stroke-linecap="square"/><path d="M11.656 9H9v7h1.65v-2.412h.854c.91 0 1.637-.217 2.18-.651.544-.435.817-1.004.816-1.706C14.5 9.744 13.552 9 11.656 9zm-.622 3.45H10V10.2h1.034c1.31 0 1.966.371 1.966 1.113 0 .759-.655 1.137-1.966 1.137z" fill="#ff6d00" fill-rule="nonzero"/></g></svg>
