<svg height="24" width="24" viewbox="0 0 24 24" xmlns="http://www.w3.org/2000/svg" aria-hidden="true"><g fill="none"><path d="M23.498 6.64a3.016 3.016 0 0 0-2.121-2.135C19.505 4 12 4 12 4s-7.505 0-9.377.505A3.016 3.016 0 0 0 .502 6.64C0 8.524 0 12.454 0 12.454s0 3.93.502 5.815a3.016 3.016 0 0 0 2.121 2.135c1.872.505 9.377.505 9.377.505s7.505 0 9.377-.505a3.016 3.016 0 0 0 2.121-2.135C24 16.385 24 12.454 24 12.454s0-3.93-.502-5.814" fill="#222"/><path d="M9.546 16.023l6.272-3.568-6.272-3.569z" fill="#fffffe"/></g></svg>
