<svg viewbox="0 0 24 24" xmlns="http://www.w3.org/2000/svg"><g fill="none" fill-rule="evenodd"><g fill-rule="nonzero"><path d="M4 23V1h10.84L20 6.473V23z" fill="#fff"/><path d="M14.62 1.611l4.809 5.142v15.636H4.57V1.61zM14.858 1H4v22h16V6.5z" fill="#ffa000"/><path d="M14 7V1h.195L20 6.805V7z" fill="#ffca28" fill-opacity=".38"/><path d="M14.6 1.848L19.152 6.4H14.6zm0-.848H14v6h6v-.6z" fill="#ffa000"/></g><g fill="#ffa000"><path d="M8 11v.889h1.836v.052L8 14.381V15h3v-.889H9.164v-.052L11 11.619V11zM12 11v4h1v-4zM14 11v4h.855l.002-1.333h.807c.793 0 1.336-.555 1.336-1.344 0-.8-.52-1.323-1.288-1.323z"/></g><path d="M15 12h.525c.29 0 .475.173.475.501 0 .327-.187.499-.479.499H15z" fill="#f9f9f9"/><g fill="#ffa000"><path d="M6.5 2a.5.5 0 1 1 0 1 .5.5 0 0 1 0-1zM6.5 5a.5.5 0 1 1 0 1 .5.5 0 0 1 0-1zM6.5 8a.5.5 0 1 1 0 1 .5.5 0 0 1 0-1zM6.5 11a.5.5 0 1 1 0 1 .5.5 0 0 1 0-1zM6.5 14a.5.5 0 1 1 0 1 .5.5 0 0 1 0-1zM6.5 17a.5.5 0 1 1 0 1 .5.5 0 0 1 0-1zM6.5 20a.5.5 0 1 1 0 1 .5.5 0 0 1 0-1z"/></g></g></svg>
