<svg width="420" height="238" xmlns="http://www.w3.org/2000/svg"><g fill="none" fill-rule="evenodd"><path d="M382 221.547V8.831A8.831 8.831 0 0 0 373.169 0H44.83A8.831 8.831 0 0 0 36 8.831v212.716c0 1.226.25 2.392.701 3.453h344.598a8.805 8.805 0 0 0 .701-3.453" fill="#13171F"/><path d="M213 7.5a3.5 3.5 0 1 1-7 0 3.5 3.5 0 0 1 7 0" fill="#999"/><path d="M211 7a2 2 0 1 1-4 0 2 2 0 0 1 4 0" fill="#13171F"/><path d="M397.83 238H22.17C8.302 238 2 235 2 235h416s-6.303 3-20.17 3" fill="#22252D"/><path d="M420 233.082c0 1.059-.846 1.918-1.89 1.918H1.89C.846 235 0 234.14 0 233.082v-6.164C0 225.86.846 225 1.89 225h416.22c1.044 0 1.89.86 1.89 1.918v6.164" fill="#2E3139"/><path d="M171.324 229h73.616c.695 0 1.06-.386 1.06-1.007V225h-76v2.993c0 .621.63 1.007 1.324 1.007" fill="#22252D"/><path fill="#EEE" d="M49 215h318V16H49z"/><path fill="#2E3139" d="M60 215h297V24H60z"/><path fill="#13171F" d="M60 30h297v-7H60z"/><path fill="#22252D" d="M107 38h250v-7H107zM107 215h250v-6H107zM60 214h47V30H60zM108 116h249v-8H108z"/><path fill="#2E3139" d="M60 64h47v-7H60z"/><path fill="#586172" d="M115 46h2v-4h-2zM114 55h3v-4h-3zM114 62h3v-4h-3zM114 71h3v-4h-3zM114 79h3v-4h-3zM114 88h3v-4h-3zM114 97h3v-6h-3zM114 106h3v-4h-3zM114 114h3v-4h-3zM113 123h6v-4h-6zM113 132h6v-6h-6zM113 139h6v-4h-6zM85 79h6v-4h-6zM85 88h6v-4h-6zM85 97h6v-6h-6zM85 107h6v-6h-6zM85 71h6v-4h-6zM80 64h6v-6h-6zM76 114h6v-4h-6zM74 55h7v-4h-7zM67 46h7v-4h-7zM113 149h6v-6h-6zM68 123h6v-6h-6zM68 130h6v-4h-6zM68 140h6v-6h-6zM113 156h6v-4h-6zM113 166h6v-6h-6zM113 173h6v-4h-6zM113 182h6v-6h-6zM113 190h6v-4h-6zM113 199h6v-6h-6zM113 206h6v-4h-6z"/><path d="M169 44.945c0 .583-.564 1.055-1.26 1.055h-40.48c-.696 0-1.26-.472-1.26-1.055v-.89c0-.583.564-1.055 1.26-1.055h40.48c.696 0 1.26.472 1.26 1.055v.89M153 51.944c0 .584-.567 1.056-1.266 1.056h-24.468c-.699 0-1.266-.472-1.266-1.056v-.888c0-.584.567-1.056 1.266-1.056h24.468c.699 0 1.266.472 1.266 1.056v.888" fill="#FFFFFE"/><path d="M246 51.944c0 .584-.562 1.056-1.256 1.056h-80.488c-.694 0-1.256-.472-1.256-1.056v-.888c0-.584.562-1.056 1.256-1.056h80.488c.694 0 1.256.472 1.256 1.056v.888" fill="#999"/><path d="M281 51.944c0 .584-.568 1.056-1.267 1.056h-24.466c-.7 0-1.267-.472-1.267-1.056v-.888c0-.584.568-1.056 1.267-1.056h24.466c.7 0 1.267.472 1.267 1.056v.888" fill="#FFFFFE"/><path d="M312 51.944c0 .584-.546 1.056-1.22 1.056h-10.56c-.674 0-1.22-.472-1.22-1.056v-.888c0-.584.546-1.056 1.22-1.056h10.56c.674 0 1.22.472 1.22 1.056v.888M214 112.944c0 .583-.573 1.056-1.28 1.056h-7.44c-.707 0-1.28-.473-1.28-1.056v-.888c0-.584.573-1.056 1.28-1.056h7.44c.707 0 1.28.472 1.28 1.056v.888M274 120.945c0 .583-.526 1.055-1.173 1.055h-7.654c-.647 0-1.173-.472-1.173-1.055v-.89c0-.583.526-1.055 1.173-1.055h7.654c.647 0 1.173.472 1.173 1.055v.89M299 129.944c0 .583-.573 1.056-1.28 1.056h-7.44c-.707 0-1.28-.473-1.28-1.056v-.888c0-.583.573-1.056 1.28-1.056h7.44c.707 0 1.28.473 1.28 1.056v.888M228 136.945c0 .583-.533 1.055-1.19 1.055h-8.62c-.657 0-1.19-.472-1.19-1.055v-.89c0-.583.533-1.055 1.19-1.055h8.62c.657 0 1.19.472 1.19 1.055v.89M272 163.944c0 .583-.573 1.056-1.28 1.056h-7.44c-.707 0-1.28-.473-1.28-1.056v-.888c0-.583.573-1.056 1.28-1.056h7.44c.707 0 1.28.473 1.28 1.056v.888M261 188.945c0 .583-.573 1.055-1.28 1.055h-7.44c-.707 0-1.28-.472-1.28-1.055v-.89c0-.583.573-1.055 1.28-1.055h7.44c.707 0 1.28.472 1.28 1.055v.89" fill="#999"/><path d="M167 60.945c0 .583-.57 1.055-1.275 1.055h-26.45c-.704 0-1.275-.472-1.275-1.055v-.89c0-.583.57-1.055 1.275-1.055h26.45c.704 0 1.275.472 1.275 1.055v.89M155 94.945c0 .583-.564 1.055-1.26 1.055h-14.48c-.696 0-1.26-.472-1.26-1.055v-.89c0-.583.564-1.055 1.26-1.055h14.48c.696 0 1.26.472 1.26 1.055v.89M169 103.944c0 .584-.558 1.056-1.246 1.056h-28.508c-.688 0-1.246-.472-1.246-1.056v-.888c0-.584.558-1.056 1.246-1.056h28.508c.688 0 1.246.472 1.246 1.056v.888M249 103.944c0 .584-.567 1.056-1.266 1.056h-69.468c-.699 0-1.266-.472-1.266-1.056v-.888c0-.584.567-1.056 1.266-1.056h69.468c.699 0 1.266.472 1.266 1.056v.888M199 112.944c0 .583-.56 1.056-1.25 1.056h-45.5c-.69 0-1.25-.473-1.25-1.056v-.888c0-.584.56-1.056 1.25-1.056h45.5c.69 0 1.25.472 1.25 1.056v.888M190 120.945c0 .583-.567 1.055-1.266 1.055h-24.468c-.699 0-1.266-.472-1.266-1.055v-.89c0-.583.567-1.055 1.266-1.055h24.468c.699 0 1.266.472 1.266 1.055v.89" fill="#FFFFFE"/><path d="M226 120.945c0 .583-.573 1.055-1.28 1.055h-27.44c-.707 0-1.28-.472-1.28-1.055v-.89c0-.583.573-1.055 1.28-1.055h27.44c.707 0 1.28.472 1.28 1.055v.89" fill="#BF112B"/><path d="M206 129.944c0 .583-.57 1.056-1.275 1.056h-26.45c-.704 0-1.275-.473-1.275-1.056v-.888c0-.583.57-1.056 1.275-1.056h26.45c.704 0 1.275.473 1.275 1.056v.888" fill="#999"/><path d="M251 129.944c0 .583-.55 1.056-1.227 1.056h-38.546c-.677 0-1.227-.473-1.227-1.056v-.888c0-.583.55-1.056 1.227-1.056h38.546c.677 0 1.227.473 1.227 1.056v.888" fill="#BF112B"/><path d="M283 129.944c0 .583-.57 1.056-1.275 1.056h-26.45c-.704 0-1.275-.473-1.275-1.056v-.888c0-.583.57-1.056 1.275-1.056h26.45c.704 0 1.275.473 1.275 1.056v.888" fill="#999"/><path d="M215 136.945c0 .583-.57 1.055-1.274 1.055h-35.452c-.704 0-1.274-.472-1.274-1.055v-.89c0-.583.57-1.055 1.274-1.055h35.452c.703 0 1.274.472 1.274 1.055v.89M314 136.945c0 .583-.573 1.055-1.28 1.055h-77.44c-.707 0-1.28-.472-1.28-1.055v-.89c0-.583.573-1.055 1.28-1.055h77.44c.707 0 1.28.472 1.28 1.055v.89M259 120.945c0 .583-.584 1.055-1.304 1.055h-22.392c-.72 0-1.304-.472-1.304-1.055v-.89c0-.583.584-1.055 1.304-1.055h22.392c.72 0 1.304.472 1.304 1.055v.89M190 145.944c0 .583-.567 1.056-1.266 1.056h-24.468c-.699 0-1.266-.473-1.266-1.056v-.888c0-.583.567-1.056 1.266-1.056h24.468c.699 0 1.266.473 1.266 1.056v.888M186 171.945c0 .583-.554 1.055-1.238 1.055h-19.524c-.684 0-1.238-.472-1.238-1.055v-.89c0-.583.554-1.055 1.238-1.055h19.524c.684 0 1.238.472 1.238 1.055v.89M314 171.945c0 .583-.561 1.055-1.253 1.055H193.253c-.692 0-1.253-.472-1.253-1.055v-.89c0-.583.561-1.055 1.253-1.055h119.494c.692 0 1.253.472 1.253 1.055v.89M194 197.944c0 .583-.573 1.056-1.28 1.056h-27.44c-.707 0-1.28-.473-1.28-1.056v-.888c0-.583.573-1.056 1.28-1.056h27.44c.707 0 1.28.473 1.28 1.056v.888" fill="#FFFFFE"/><path d="M240 197.944c0 .583-.558 1.056-1.247 1.056h-36.506c-.689 0-1.247-.473-1.247-1.056v-.888c0-.583.558-1.056 1.247-1.056h36.506c.689 0 1.247.473 1.247 1.056v.888" fill="#BF112B"/><path d="M265 197.944c0 .583-.575 1.056-1.285 1.056h-18.43c-.71 0-1.285-.473-1.285-1.056v-.888c0-.583.575-1.056 1.285-1.056h18.43c.71 0 1.285.473 1.285 1.056v.888" fill="#999"/><path d="M241 205.945c0 .583-.564 1.055-1.26 1.055h-74.48c-.696 0-1.26-.472-1.26-1.055v-.89c0-.583.564-1.055 1.26-1.055h74.48c.696 0 1.26.472 1.26 1.055v.89M313 205.945c0 .583-.568 1.055-1.269 1.055H259.27c-.701 0-1.269-.472-1.269-1.055v-.89c0-.583.568-1.055 1.269-1.055h52.462c.701 0 1.269.472 1.269 1.055v.89M170 153.945c0 .583-.57 1.055-1.273 1.055h-16.454c-.703 0-1.273-.472-1.273-1.055v-.89c0-.583.57-1.055 1.273-1.055h16.454c.703 0 1.273.472 1.273 1.055v.89M170 180.944c0 .583-.57 1.056-1.273 1.056h-16.454c-.703 0-1.273-.473-1.273-1.056v-.888c0-.583.57-1.056 1.273-1.056h16.454c.703 0 1.273.473 1.273 1.056v.888M170 188.945c0 .583-.57 1.055-1.273 1.055h-16.454c-.703 0-1.273-.472-1.273-1.055v-.89c0-.583.57-1.055 1.273-1.055h16.454c.703 0 1.273.472 1.273 1.055v.89" fill="#FFFFFE"/><path d="M213 188.945c0 .583-.565 1.055-1.263 1.055h-32.474c-.698 0-1.263-.472-1.263-1.055v-.89c0-.583.565-1.055 1.263-1.055h32.474c.698 0 1.263.472 1.263 1.055v.89" fill="#BF112B"/><path d="M243 188.945c0 .583-.567 1.055-1.266 1.055h-24.468c-.699 0-1.266-.472-1.266-1.055v-.89c0-.583.567-1.055 1.266-1.055h24.468c.699 0 1.266.472 1.266 1.055v.89" fill="#999"/><path d="M185 163.944c0 .583-.564 1.056-1.259 1.056H152.26c-.695 0-1.259-.473-1.259-1.056v-.888c0-.583.564-1.056 1.259-1.056h31.482c.695 0 1.259.473 1.259 1.056v.888" fill="#FFFFFE"/><path d="M226 163.944c0 .583-.565 1.056-1.263 1.056h-32.474c-.698 0-1.263-.473-1.263-1.056v-.888c0-.583.565-1.056 1.263-1.056h32.474c.698 0 1.263.473 1.263 1.056v.888" fill="#BF112B"/><path d="M258 163.944c0 .583-.572 1.056-1.276 1.056h-26.448c-.704 0-1.276-.473-1.276-1.056v-.888c0-.583.572-1.056 1.276-1.056h26.448c.704 0 1.276.473 1.276 1.056v.888" fill="#999"/><path d="M186 68.944c0 .584-.565 1.056-1.263 1.056h-32.474c-.698 0-1.263-.472-1.263-1.056v-.888c0-.584.565-1.056 1.263-1.056h32.474c.698 0 1.263.472 1.263 1.056v.888" fill="#FFFFFE"/><path d="M213 68.944c0 .584-.57 1.056-1.273 1.056h-16.454c-.703 0-1.273-.472-1.273-1.056v-.888c0-.584.57-1.056 1.273-1.056h16.454c.703 0 1.273.472 1.273 1.056v.888" fill="#BF112B"/><path d="M179 77.945c0 .583-.549 1.055-1.225 1.055h-24.55c-.676 0-1.225-.472-1.225-1.055v-.89c0-.583.549-1.055 1.225-1.055h24.55c.676 0 1.225.472 1.225 1.055v.89" fill="#FFFFFE"/><path d="M259 77.945c0 .583-.568 1.055-1.267 1.055h-69.466c-.7 0-1.267-.472-1.267-1.055v-.89c0-.583.567-1.055 1.267-1.055h69.466c.7 0 1.267.472 1.267 1.055v.89" fill="#999"/><path d="M314 77.945c0 .583-.579 1.055-1.293 1.055h-31.414c-.714 0-1.293-.472-1.293-1.055v-.89c0-.583.579-1.055 1.293-1.055h31.414c.714 0 1.293.472 1.293 1.055v.89" fill="#FFF"/><path d="M278 77.945c0 .583-.533 1.055-1.19 1.055h-8.62c-.657 0-1.19-.472-1.19-1.055v-.89c0-.583.533-1.055 1.19-1.055h8.62c.657 0 1.19.472 1.19 1.055v.89" fill="#999"/><path d="M225 85.944c0 .584-.562 1.056-1.254 1.056h-71.492c-.692 0-1.254-.472-1.254-1.056v-.888c0-.584.562-1.056 1.254-1.056h71.492c.692 0 1.254.472 1.254 1.056v.888" fill="#FFFFFE"/><path fill="#586172" d="M76 44h7v-1h-7zM82 54h6v-1h-6zM87 63h11v-1H87zM94 69h6v-1h-6zM94 78h10v-1H94zM94 87h10v-1H94zM94 96h10v-1H94zM94 105h10v-2H94zM84 113h11v-1H84zM77 121h18v-1H77zM77 130h18v-1H77zM77 138h18v-1H77z"/></g></svg>
